<?xml version="1.0" encoding="UTF-8"?>
<svg width="276px" height="131px" viewBox="0 0 276 131" version="1.1" xmlns="http://www.w3.org/2000/svg" xmlns:xlink="http://www.w3.org/1999/xlink">
    <!-- Generator: Sketch 44.1 (41455) - http://www.bohemiancoding.com/sketch -->
    <title>empty-no-repo</title>
    <desc>Created with Sketch.</desc>
    <defs></defs>
    <g id="Page-1" stroke="none" stroke-width="1" fill="none" fill-rule="evenodd">
        <g id="empty-no-repo">
            <g transform="translate(-1.000000, 0.000000)" id="Shape">
                <path d="M72.472,75.187 L54.104,71.017 L55.91,63.059 C57.062,57.986 62.108,54.807 67.18,55.959 C72.252,57.111 75.43,62.156 74.28,67.229 L72.472,75.186 L72.472,75.187 Z M58.306,65.04 C59.051,60.183 63.296,57.447 67.833,59.037 L58.306,65.04 Z M73.87,80.04 L50.746,74.792 L51.726,70.478 L74.85,75.728 L73.87,80.04 Z M72.435,77.447 L62.06,75.092 L72.435,77.447 Z M68.232,81.54 L55.186,78.577 L55.116,75.784 L69.502,79.05 L68.232,81.54 Z M57.34,83.162 C57.1978452,83.5004173 56.9270763,83.7685026 56.5872599,83.9072797 C56.2474436,84.0460568 55.8664161,84.0441576 55.528,83.902 C55.1891556,83.7600659 54.9207054,83.4891483 54.7818773,83.1490195 C54.6430492,82.8088907 54.6452521,82.4275024 54.788,82.089 C55.1063146,81.4208203 55.8934522,81.1206363 56.575861,81.4071785 C57.2582699,81.6937207 57.5951359,82.4658718 57.341,83.161 L57.34,83.162 Z M56.6,81.35 L57.54,79.112 L56.6,81.35 Z M65.76,83.428 L65.877,81.004 L65.76,83.428 Z" stroke="#AFF4B0" stroke-linecap="round" stroke-linejoin="round"></path>
                <path d="M94.61,42.55 C94.825,48.613 90.084,53.703 84.02,53.918 C79.8960368,54.0646681 76.0380557,51.886707 74.033,48.28 C71.873,48.553 70.028,49.267 68.996,50.65 C68.473,51.35 68.146,50.865 68.236,50.383 C68.674,47.965 69.779,44.627 72.672,42.176 C73.052,36.634 77.567,32.163 83.242,31.962 C89.302,31.747 94.392,36.488 94.609,42.552" fill-opacity="0.75" fill="#AFF4B0" fill-rule="nonzero"></path>
                <path d="M82.78,44.404 C82.58,43.754 82.948,43.056 83.6,42.854 L84.19,42.674 C84.3482421,42.6272332 84.4809476,42.5186455 84.5581097,42.3727903 C84.6352718,42.2269352 84.6503735,42.0561312 84.6,41.899 L84.238,40.714 C84.1909786,40.5561507 84.0825107,40.4238112 83.9369656,40.3467137 C83.7914205,40.2696161 83.6210029,40.2542257 83.464,40.304 L82.279,40.668 C82.1212243,40.7147991 81.9888923,40.8230726 81.9117797,40.9684582 C81.834667,41.1138437 81.8192509,41.2841295 81.869,41.441 L82.049,42.034 L79.681,42.761 C79.135,40.985 80.366,38.663 82.141,38.116 C83.919,37.57 86.059,38.209 86.605,39.986 C87.385,42.519 85.147,43.673 85.147,43.673 L85.511,44.858 L83.141,45.588 L82.778,44.402 L82.78,44.404 Z M83.417,46.476 L85.785,45.749 L86.513,48.116 L84.143,48.844 L83.417,46.474 L83.417,46.476 Z" fill="#F8F9F8" fill-rule="nonzero"></path>
                <path d="M262.727,36.052 C262.747264,37.1877093 262.152968,38.2459279 261.172654,38.8197127 C260.192339,39.3934975 258.978661,39.3934975 257.998346,38.8197127 C257.018032,38.2459279 256.423736,37.1877093 256.444,36.052 C256.474566,34.3388443 257.872072,32.9660513 259.5855,32.9660513 C261.298928,32.9660513 262.696434,34.3388443 262.727,36.052 L262.727,36.052 Z M25.49,82.815 C25.49,83.6478454 24.8148454,84.323 23.982,84.323 C23.1491546,84.323 22.474,83.6478454 22.474,82.815 C22.4950556,81.9975512 23.1637801,81.3458298 23.9815,81.3458298 C24.7992199,81.3458298 25.4679444,81.9975512 25.489,82.815 L25.49,82.815 Z M231.02,72.61 L230.105,70.88 C230.061282,70.7962233 229.993326,70.7275703 229.91,70.683 L228.18,69.767 C228.026537,69.6854154 227.930624,69.5258012 227.930624,69.352 C227.930624,69.1781988 228.026537,69.0185846 228.18,68.937 L229.91,68.023 C229.993439,67.9785817 230.061435,67.9098884 230.105,67.826 L231.021,66.096 C231.102585,65.9425372 231.262199,65.8466241 231.436,65.8466241 C231.609801,65.8466241 231.769415,65.9425372 231.851,66.096 L232.767,67.826 C232.812,67.911 232.879,67.978 232.963,68.023 L234.693,68.938 C234.846463,69.0195846 234.942376,69.1791988 234.942376,69.353 C234.942376,69.5268012 234.846463,69.6864154 234.693,69.768 L232.963,70.683 C232.879562,70.7277583 232.811333,70.7963358 232.767,70.88 L231.852,72.61 C231.770415,72.7634628 231.610801,72.8593759 231.437,72.8593759 C231.263199,72.8593759 231.103585,72.7634628 231.022,72.61 L231.02,72.61 Z M152.538,28.052 L153.114,26.182 C153.141995,26.0921297 153.141995,25.9958703 153.114,25.906 L152.538,24.036 C152.486616,23.8696271 152.531425,23.6884794 152.654447,23.5652481 C152.777469,23.4420169 152.95854,23.3968992 153.125,23.448 L154.995,24.024 C155.085,24.051 155.182,24.051 155.272,24.024 L157.142,23.448 C157.502,23.338 157.842,23.674 157.729,24.035 L157.152,25.905 C157.124779,25.9953271 157.124779,26.0916729 157.152,26.182 L157.728,28.052 C157.779591,28.2185935 157.734694,28.400057 157.611376,28.5233757 C157.488057,28.6466943 157.306593,28.6915907 157.14,28.64 L155.27,28.064 C155.179942,28.0350104 155.083058,28.0350104 154.993,28.064 L153.123,28.64 C152.95654,28.6911008 152.775469,28.6459831 152.652447,28.5227519 C152.529425,28.3995206 152.484616,28.2183729 152.536,28.052 L152.538,28.052 Z M252.495,110.88 L252.495,116.74 L252.495,110.88 Z M255.425,113.81 L249.565,113.81 L255.425,113.81 Z M120.414,41.75 L116.269,45.896 L120.414,41.75 Z M120.414,45.896 L116.269,41.751 L120.414,45.896 Z M271.317,84.23 L269.727,85.82 L271.317,84.23 Z M275.74,79.81 L274.15,81.4 L275.74,79.81 Z M191.642,128.93 C191.642,129.630297 191.074297,130.198 190.374,130.198 C189.673703,130.198 189.106,129.630297 189.106,128.93 C189.106,128.229703 189.673703,127.662 190.374,127.662 C191.074297,127.662 191.642,128.229703 191.642,128.93 L191.642,128.93 Z M202.82,82.815 C202.82,83.5155732 202.252073,84.0835 201.5515,84.0835 C200.850927,84.0835 200.283,83.5155732 200.283,82.815 C200.283,82.1147029 200.850703,81.547 201.551,81.547 C202.251297,81.547 202.819,82.1147029 202.819,82.815 L202.82,82.815 Z M40.2,120.654 L39.523,119.374 L38.243,118.697 L39.523,118.02 L40.2,116.74 L40.878,118.02 L42.158,118.697 L40.878,119.375 L40.2,120.654 Z M100.312,4.506 L99.635,3.226 L98.355,2.55 L99.635,1.872 L100.312,0.592 L100.989,1.872 L102.269,2.55 L100.989,3.227 L100.312,4.506 Z M218.96,11.083 C218.357181,11.083 217.8685,11.5716812 217.8685,12.1745 C217.8685,12.7773188 218.357181,13.266 218.96,13.266 C219.562819,13.266 220.0515,12.7773188 220.0515,12.1745 C220.0515,11.5716812 219.562819,11.083 218.96,11.083 Z M80.856,108.733 C80.2540096,108.732448 79.7655523,109.22001 79.765,109.822 C79.7644477,110.42399 80.2520096,110.912448 80.854,110.913 C81.4559904,110.913552 81.9444477,110.42599 81.945,109.824 C81.9455523,109.22201 81.4579904,108.733552 80.856,108.733 L80.856,108.733 Z M220.38,107.313 L220.38,110.153 L220.38,107.313 Z M221.8,108.733 L218.96,108.733 L221.8,108.733 Z M3.274,55.948 L4.198,55.664 L5.12,55.948 L4.837,55.025 L5.121,54.102 L4.199,54.386 L3.275,54.102 L3.56,55.025 L3.274,55.948 Z M37.748,20.91 L40.2,22.25 L37.748,23.592 L36.408,26.042 L35.066,23.592 L32.614,22.25 L35.066,20.91 L36.406,18.457 L37.748,20.91 Z M5.17,109.823 L5.957,112.505 L3.275,111.719 L0.593,112.504 L1.378,109.822 L0.593,107.139 L3.275,107.926 L5.957,107.139 L5.17,109.823 Z" stroke="#AFF4B0" stroke-width="1.186" stroke-linecap="round" stroke-linejoin="round"></path>
                <path d="M210.77,53.134 C210.845,52.964 210.914,52.792 210.98,52.619 L211.02,52.525 C211.097107,52.3218297 211.16913,52.1167658 211.236,51.91 C211.286,51.76 211.332,51.606 211.376,51.452 L211.422,51.292 C211.462,51.142 211.499,50.994 211.535,50.845 C211.549,50.785 211.565,50.727 211.577,50.668 C211.609,50.522 211.637,50.376 211.667,50.23 C211.677,50.167 211.69,50.105 211.701,50.04 C211.726,49.898 211.749,49.753 211.769,49.61 C211.809986,49.3366446 211.84001,49.0617578 211.859,48.786 C211.869,48.643 211.879,48.5 211.885,48.358 L211.892,48.158 C211.897,48.016 211.9,47.874 211.9,47.733 C211.9,47.665 211.898,47.598 211.897,47.531 C211.895487,47.3899404 211.891486,47.2489185 211.885,47.108 C211.881,47.042 211.875,46.978 211.873,46.911 C211.865,46.769 211.855,46.626 211.843,46.484 L211.823,46.299 C211.805,46.154 211.79,46.009 211.769,45.864 C211.739302,45.6580931 211.705963,45.4527276 211.669,45.248 C211.661,45.211 211.652,45.175 211.645,45.138 C211.537,44.59 211.395,44.048 211.221,43.518 C211.216,43.503 211.211,43.488 211.207,43.471 C211.164,43.343 211.117,43.218 211.07,43.091 C211.044,43.021 211.02,42.948 210.993,42.878 C210.949,42.766 210.903,42.655 210.855,42.543 C210.821,42.461 210.788,42.378 210.752,42.297 C210.705,42.192 210.655,42.089 210.606,41.987 C210.566,41.899 210.526,41.811 210.482,41.725 C210.432,41.625 210.382,41.53 210.33,41.432 C210.283,41.344 210.236,41.255 210.187,41.167 C210.083388,40.9828306 209.976033,40.8007928 209.865,40.621 L209.695,40.353 C209.635,40.263 209.577,40.176 209.515,40.088 C209.456477,40.001967 209.396468,39.9169543 209.335,39.833 C209.272,39.745 209.208,39.657 209.141,39.571 C209.012713,39.4003582 208.879319,39.233616 208.741,39.071 C208.539144,38.8276671 208.327295,38.5927992 208.106,38.367 C207.954986,38.2136626 207.801635,38.0626449 207.646,37.914 C207.559,37.834 207.469,37.754 207.38,37.674 C207.306,37.611 207.234,37.544 207.16,37.482 C207.066,37.402 206.97,37.325 206.873,37.248 C206.799,37.188 206.726,37.128 206.65,37.071 C206.546592,36.990433 206.441227,36.9124096 206.334,36.837 C206.262,36.784 206.191,36.731 206.118,36.68 C205.99621,36.5957025 205.872855,36.5136882 205.748,36.434 L205.561,36.312 C205.373,36.194 205.179,36.079 204.981,35.969 C204.667,35.794 204.349,35.639 204.028,35.491 C203.988,35.473 203.948,35.451 203.908,35.435 L203.848,35.405 L203.855,35.415 C203.537,35.275 203.215,35.145 202.892,35.029 L202.897,35.029 L202.572,33.721 C199.888,32.531 196.822,33.281 196.822,33.281 L196.166,34.459 L196.168,34.461 C192.14188,35.1425155 188.643664,37.6168007 186.66,41.186 C185.193387,43.8121862 184.652733,46.8553484 185.125,49.826 L184.669,50.644 C184.669,50.644 184.841,52.634 185.603,53.758 L186.529,54.042 C187.332455,55.5574766 188.418683,56.9050771 189.729,58.012 C189.723,58.009 189.715,58.007 189.709,58.002 C189.756,58.044 189.809,58.078 189.859,58.118 C190.093,58.313 190.336,58.498 190.586,58.678 C190.673,58.74 190.759,58.804 190.849,58.865 C191.179,59.091 191.521,59.308 191.879,59.507 C192.162,59.663 192.449,59.807 192.739,59.942 L192.935,60.032 C193.221,60.16 193.508,60.279 193.798,60.386 C193.838,60.4 193.878,60.411 193.918,60.426 C194.182,60.521 194.448,60.606 194.718,60.683 C194.778,60.7 194.838,60.719 194.9,60.735 C195.193,60.815 195.487,60.885 195.783,60.943 C195.84,60.955 195.899,60.963 195.957,60.976 C196.225,61.026 196.494,61.068 196.764,61.103 L196.904,61.12 C197.202,61.154 197.502,61.177 197.801,61.19 L197.994,61.197 C198.288,61.207 198.584,61.21 198.876,61.2 L198.91,61.2 C199.213,61.19 199.516,61.164 199.817,61.133 L200.007,61.111 C200.307,61.076 200.607,61.033 200.902,60.978 C200.924,60.975 200.945,60.97 200.967,60.965 C201.304212,60.9002901 201.638795,60.8225653 201.97,60.732 C202.26,60.652 202.547,60.566 202.83,60.467 L202.956,60.421 C203.216,60.327 203.476,60.226 203.733,60.116 L203.85,60.066 C204.127,59.944 204.4,59.814 204.67,59.673 L204.812,59.596 C205.072,59.456 205.328,59.31 205.579,59.153 L205.617,59.13 C205.926798,58.9333407 206.2287,58.724511 206.522,58.504 C206.772,58.317 207.017,58.124 207.254,57.917 L208.574,58.401 C210.582,56.705 211.564,54.259 211.564,54.259 L210.774,53.131 L210.772,53.131 L210.77,53.134 Z" stroke="#AFF4B0" stroke-linecap="round" stroke-linejoin="round"></path>
                <path d="M193.206,59.918 C193.186,58.731 194.393,57.75 195.901,57.725 C197.411,57.7 198.648,58.643 198.668,59.829 L193.206,59.918 Z M204.636,54.53 C204.164,54.74 203.736,54.753 203.502,54.518 C203.107,54.124 203.414,53.176 204.189,52.401 C204.962,51.628 205.909,51.321 206.305,51.716 C206.502,51.913 206.525,52.249 206.4,52.633 L204.636,54.53 Z M206.557,43.39 C206.763349,44.4990656 206.261594,45.620051 205.297,46.205 L206.557,43.39 Z M203.026,46.457 C202.018983,46.1143344 201.305558,45.2142203 201.201895,44.1555621 C201.098231,43.0969039 201.623502,42.0754973 202.544921,41.544 C203.466341,41.0125027 204.613496,41.0692136 205.478,41.689 L203.026,46.457 Z M189.594,53.325 C189.676,52.785 190.047,52.339 190.571,52.221 C191.271,52.067 191.973,52.561 192.144,53.323 C192.314,54.087 191.884,54.833 191.188,54.987 C190.845309,55.0606356 190.487461,54.9857964 190.203,54.781 L189.594,53.325 Z M209.322,48.06 C208.952,48.16 208.538,47.818 208.4,47.3 C208.26,46.782 208.45,46.282 208.822,46.183 L209.322,48.06 Z M190.99,43.013 C190.31,43.693 189.427,43.91 189.015,43.499 C188.605,43.087 188.823,42.203 189.502,41.524 C190.182,40.844 191.065,40.627 191.476,41.037 C191.886,41.449 191.67,42.332 190.99,43.012 L190.99,43.013 Z M194.395,46.567 C195.309326,45.6516001 196.685137,45.3773047 197.880609,45.8720743 C199.07608,46.3668439 199.855654,47.5331882 199.855654,48.827 C199.855654,50.1208118 199.07608,51.2871561 197.880609,51.7819257 C196.685137,52.2766953 195.309326,52.0023999 194.395,51.087 L194.395,46.567 Z M193.458,48.827 C193.458,48.637 193.475,48.447 193.508,48.259 L193.458,48.827 Z M200.49,35.997 C199.786126,36.5472359 198.769662,36.4237569 198.218,35.721 L200.49,35.997 Z M150.042,63.457 L148.819,63.754 L150.042,63.457 Z" stroke="#AFF4B0" stroke-linecap="round" stroke-linejoin="round"></path>
                <path d="M145.584,64.54 L118.894,71.016" stroke="#AFF4B0" stroke-linecap="round" stroke-linejoin="round" stroke-dasharray="2.497,3.329"></path>
                <path d="M117.49,71.86 C117.24,72.16 117.066,72.548 117.138,73.032 M156.565,68.372 L154.745,66.81 L153.5,67" stroke="#AFF4B0" stroke-linecap="round" stroke-linejoin="round"></path>
                <path d="M150.142,67.518 L128.312,70.874" stroke="#AFF4B0" stroke-linecap="round" stroke-linejoin="round" stroke-dasharray="2.548,3.398"></path>
                <path d="M126.634,71.132 L125.39,71.322 C125.784,71.232 126.193,71.136 126.612,71.037" stroke="#AFF4B0" stroke-linecap="round" stroke-linejoin="round"></path>
                <path d="M129.633,70.323 C136.483,68.698 144.987,66.638 149.265,65.599" stroke="#AFF4B0" stroke-linecap="round" stroke-linejoin="round" stroke-dasharray="2.329,3.105"></path>
                <path d="M150.774,65.234 L151.994,64.937 L150.042,63.457 M163.866,114.296 L165.109,114.098 L164.879,112.858" stroke="#AFF4B0" stroke-linecap="round" stroke-linejoin="round"></path>
                <path d="M164.268,109.583 L157.096,71.078" stroke="#AFF4B0" stroke-linecap="round" stroke-linejoin="round" stroke-dasharray="2.5,3.333"></path>
                <polyline stroke="#AFF4B0" stroke-linecap="round" stroke-linejoin="round" points="156.79 69.44 156.56 68.203 155.315 68.385"></polyline>
                <path d="M152.122,68.854 L120.19,73.54" stroke="#AFF4B0" stroke-linecap="round" stroke-linejoin="round" stroke-dasharray="2.421,3.227"></path>
                <polyline stroke="#AFF4B0" stroke-linecap="round" stroke-linejoin="round" points="118.593 73.774 117.348 73.957 117.572 75.191"></polyline>
                <path d="M118.188,78.504 C120.104,88.757 124.102,109.761 125.565,117.436" stroke="#AFF4B0" stroke-linecap="round" stroke-linejoin="round" stroke-dasharray="2.529,3.372"></path>
                <path d="M125.88,119.092 C126.03,119.886 126.115,120.325 126.115,120.325 L127.358,120.127" stroke="#AFF4B0" stroke-linecap="round" stroke-linejoin="round"></path>
                <path d="M130.532,119.62 L162.278,114.55" stroke="#AFF4B0" stroke-linecap="round" stroke-linejoin="round" stroke-dasharray="2.411,3.215"></path>
                <path d="M124.263,72.942 L124.508,74.176" stroke="#AFF4B0" stroke-linecap="round" stroke-linejoin="round"></path>
                <path d="M125.15,77.41 L132.703,115.432" stroke="#AFF4B0" stroke-linecap="round" stroke-linejoin="round" stroke-dasharray="2.474,3.299"></path>
                <path d="M133.024,117.05 L133.269,118.285 M131.023,119.54 L131.023,120.8" stroke="#AFF4B0" stroke-linecap="round" stroke-linejoin="round"></path>
                <path d="M131.023,122.837 L131.023,125.384" stroke="#AFF4B0" stroke-linecap="round" stroke-linejoin="round" stroke-dasharray="1.528,2.037"></path>
                <path d="M131.023,126.403 L131.023,127.663 L131.998,126.863 M135.008,124.4 L135.982,123.602 L136.958,124.395 M140,126.867 L140.978,127.661 L140.978,126.403" stroke="#AFF4B0" stroke-linecap="round" stroke-linejoin="round"></path>
                <path d="M140.978,123.787 L140.978,120.517" stroke="#AFF4B0" stroke-linecap="round" stroke-linejoin="round" stroke-dasharray="1.962,2.615"></path>
                <path d="M140.978,119.21 L140.978,117.95 M121.658,96.898 C112.834,102.798 107.608,108.095 108.834,110.534 C110.694,114.236 126.704,109.952 144.594,100.966 C162.484,91.981 175.48,81.696 173.622,77.996 C172.546,75.853 166.734,76.384 158.562,78.953" stroke="#AFF4B0" stroke-linecap="round" stroke-linejoin="round"></path>
            </g>
        </g>
    </g>
</svg>