<svg xmlns="http://www.w3.org/2000/svg" width="257" height="85" viewBox="0 0 257 85">
  <g fill="#AFF4B0">
    <path d="M212.456377 28.47828c.228854.744292-.46741 1.440557-1.21196 1.213055l-1.86188-.573194-1.862266.57362c-.74407.22673-1.4405-.46896-1.21158-1.21347l.57317-1.86081-.57313-1.86168c-.22941-.74405.4684-1.44111 1.21299-1.21216l1.86081.57317 1.86168-.57313c.74383-.22934 1.44147.46831 1.21219 1.21192l-.5732 1.86187.57318 1.86083zm-1.531273-1.57428c-.058175-.18699-.058175-.38816-.00044-.571647l.559107-1.816124-1.8147.55866c-.18673.05809-.38633.05809-.57172.00041l-1.81615-.55942.5583 1.81351c.05865.186422.05865.387594.00089.57324l-.55951 1.816482 1.81514-.5591c.18674-.058096.38633-.058096.57165-.00044l1.81646.55921-.558995-1.81481zM170.928 2.364893L169.209553.646447c-.195262-.195263-.511844-.195263-.707106 0-.195263.195262-.195263.511844 0 .707106L170.220893 3.072l-1.718446 1.718447c-.195263.195262-.195263.511844 0 .707106.195262.195263.511844.195263.707106 0L170.928 3.779107l1.718447 1.718446c.195262.195263.511844.195263.707106 0 .195263-.195262.195263-.511844 0-.707106L171.635107 3.072l1.718446-1.718447c.195263-.195262.195263-.511844 0-.707106-.195262-.195263-.511844-.195263-.707106 0L170.928 2.364893zM234.5 14.267c0-.423358-.343642-.767-.768-.767-.42345 0-.767.343736-.767.767 0 .42417.343455.768.767.768.42445 0 .768-.343736.768-.768zm1 0c0 .976427-.791142 1.768-1.768 1.768-.976074 0-1.767-.79179-1.767-1.768 0-.975427.791142-1.767 1.767-1.767.976642 0 1.768.791358 1.768 1.767zm-35 52.233V66c0-.276142-.223858-.5-.5-.5s-.5.223858-.5.5v.5h-.5c-.276142 0-.5.223858-.5.5s.223858.5.5.5h.5v.5c0 .276142.223858.5.5.5s.5-.223858.5-.5v-.5h.5c.276142 0 .5-.223858.5-.5s-.223858-.5-.5-.5h-.5zm55 16.008c0-.556254-.45154-1.008-1.008-1.008-.555858 0-1.008.452142-1.008 1.008 0 .55646.451746 1.008 1.008 1.008.556858 0 1.008-.451142 1.008-1.008zm1 0c0 1.109142-.898858 2.008-2.008 2.008-1.108436 0-2.008-.899152-2.008-2.008 0-1.108142.899858-2.008 2.008-2.008 1.108848 0 2.008.899563 2.008 2.008zm-4.191915-39.61732c-.0839-.045884-.15288-.114866-.198766-.198765l-.90232-1.649878-.90232 1.649878c-.04589.0839-.11487.15288-.19877.198766l-1.64988.90232 1.64988.90232c.0839.04589.15288.11487.19876.19877l.90232 1.64988.90232-1.64988c.04588-.0839.11486-.15288.19876-.19876l1.64988-.90232-1.64988-.90232zm2.93183.46364c.34678.189653.34678.687706 0 .87736l-2.323507 1.270728-1.270727 2.323507c-.18965.34678-.6877.34678-.87736 0l-1.27072-2.323507-2.3235-1.270727c-.34678-.18965-.34678-.6877 0-.87736l2.32351-1.27072 1.27073-2.3235c.18966-.34678.68771-.34678.87736 0l1.27073 2.32351 2.32351 1.27073zM141.323782 15.081007c8.088983 1.418288 13.496964 9.12453 12.078676 17.213513-1.326947 7.569984-8.16129 12.789843-15.661166 12.267208-3.826535 3.422944-8.50803 4.283028-11.831435 4.4215-.66383.02832-1.254455-.499352-.21393-1.071128 2.042684-1.124917 3.34455-3.463925 4.110918-6.311748-4.311228-3.25568-6.69497-8.75268-5.696576-14.44067 1.41828-8.088982 9.12452-13.496964 17.21351-12.078675zm5.755583 10.958676l-2.04762-2.04762-8.873015 8.873016-3.412698-3.4127-2.04762 2.04762 5.460318 5.46031 10.920635-10.92064zm-29.9535 23.146512c-1.7871-4.59039-6.95572-6.863998-11.544786-5.077414-4.59027 1.78574-6.86332 6.95471-5.07731 11.54472l2.77769 7.13903 16.62206-6.46739-2.77766-7.13893zm3.606237 7.889576l-17.554 6.83c-.257348.10014-.547142-.02731-.647273-.28466l-2.959-7.60499c-1.98628-5.1047.54166-10.8533 5.64657-12.83924 5.10372-1.98694 10.85191.54161 12.83936 5.64664l2.959 7.605c.10013.25735-.02732.547148-.28467.647278z"/>
    <path d="M103.583194 55.92121c-1.981452-4.18432-.110566-8.475306 4.208312-9.611462.267056-.070254.426596-.343697.356342-.610754-.070254-.267056-.343697-.426596-.610754-.356342-4.93593 1.298482-7.102144 6.26682-4.857688 11.00654.118184.249573.41631.356086.665885.237902.24958-.118184.35609-.41631.23791-.665885zm20.197253 3.643118l-1.241434-3.191042-21.16806 8.236386 1.241434 3.191042 21.16806-8.236386zm.82856.750642l-22.1 8.599c-.257358.100136-.547163-.027325-.647286-.284687l-1.604-4.123c-.10011-.257344.02734-.547124.28468-.647253l22.1-8.599c.25736-.100136.54717.027325.64729.284687l1.604 4.123c.10012.257344-.02733.547124-.28467.647253z"/>
    <path d="M121.603813 58.037322l-9.914 3.857c-.257352.100122-.384812.389912-.28469.647265.10012.257352.38991.384813.647264.28469l9.914-3.857c.257352-.10012.384813-.38991.28469-.647264-.10012-.257352-.38991-.384812-.647264-.28469zm-1.76967 4.136124l-12.54939 4.882093 1.02327 1.43586 11.741805-4.56977-.215686-1.74819zm.9409 2.53901l-12.467 4.852c-.213283.083007-.4557.010604-.588524-.175777l-1.622-2.276c-.18917-.26544-.07787-.63799.2259-.75616l13.747-5.348c.30378-.11818.6376.08124.67751.40475l.342 2.772c.02801.22707-.10168.44419-.3149.52718zm-8.785983 7.074648c-.095096-.47867-.561624-.79015-1.040502-.695014-.47956.095912-.790864.56198-.695743 1.040777.095874.480006.56151.790826 1.040627.695643.47989-.095978.790862-.56135.695618-1.041406zm.980856-.194733c.202658 1.02146-.45963 2.01258-1.480987 2.21685-1.02097.20283-2.01276-.4592-2.21685-1.48098-.20276-1.02061.45983-2.01261 1.48098-2.21684 1.02094-.20282 2.01405.46023 2.21684 1.48099z"/>
    <path d="M111.34097 70.504338l-.474-2.38c-.053938-.270823-.317208-.446645-.588032-.392707-.270823.05394-.446645.31721-.392707.58804l.474 2.38c.05394.27083.31721.44665.58804.39271.27083-.05393.44665-.3172.39271-.58803zm9.737092-2.582093c-.253048-.41791-.798197-.55128-1.21483-.29862-.41875.254834-.55206.798745-.298517 1.21642.253633.417825.798064.55082 1.21613.29704.41775-.253587.550746-.797827.297217-1.21484zm.854942-.518722c.540152.88846.256762 2.048125-.63325 2.58839-.890085.540314-2.049595.257065-2.58987-.632958-.540156-.88983-.256263-2.048113.63415-2.589983.889503-.539424 2.050038-.255504 2.58897.63455z"/>
    <path d="M120.030413 66.937243l-1.259-2.074c-.143294-.236054-.450816-.31125-.68687-.167956-.236054.143294-.31125.450816-.167956.68687l1.259 2.074c.143294.236054.450816.31125.68687.167956.236054-.143294.31125-.450816.167956-.68687zM86.072 2.364893L84.353553.646447c-.195262-.195263-.511844-.195263-.707106 0-.195262.195262-.195262.511844 0 .707106L85.364893 3.072l-1.718446 1.718447c-.195262.195262-.195262.511844 0 .707106.195262.195263.511844.195263.707106 0L86.072 3.779107l1.718447 1.718446c.195262.195263.511844.195263.707106 0 .195262-.195262.195262-.511844 0-.707106L86.779107 3.072l1.718446-1.718447c.195262-.195262.195262-.511844 0-.707106-.195262-.195263-.511844-.195263-.707106 0L86.072 2.364893zM53.656088 37.175145l-1.095843 1.095842c-.195262.195262-.511844.195262-.707107 0-.195262-.195262-.195262-.511844 0-.707107l1.096413-1.096412c-.26156-.39539-.41374-.869262-.41342-1.37846 0-1.38206 1.12047-2.502528 2.50221-2.502528.50934-.000325.98331.151875 1.37875.413455l1.26969-1.269685c.19526-.195263.51185-.195263.70711 0 .19526.195262.19526.511844 0 .707106l-1.2691 1.269094c.26309.396235.4164.871704.4164 1.382877-.00088 1.3811-1.1211 2.501322-2.5022 2.502206-.51118 0-.98665-.153312-1.38289-.416388zm1.382566-.583612c.828996-.00053 1.501996-.67353 1.502527-1.502526 0-.82972-.67333-1.503057-1.50252-1.502527-.82977 0-1.50252.672754-1.50252 1.502847-.00053.82887.67281 1.502206 1.50253 1.502206zM24.035 14.267c0-.423358-.343642-.767-.768-.767-.42345 0-.767.343736-.767.767 0 .42417.343455.768.767.768.42445 0 .768-.343736.768-.768zm1 0c0 .976427-.791142 1.768-1.768 1.768-.976074 0-1.767-.79179-1.767-1.768 0-.975427.791142-1.767 1.767-1.767.976642 0 1.768.791358 1.768 1.767zM57.5 66.5V66c0-.276142-.223858-.5-.5-.5s-.5.223858-.5.5v.5H56c-.276142 0-.5.223858-.5.5s.223858.5.5.5h.5v.5c0 .276142.223858.5.5.5s.5-.223858.5-.5v-.5h.5c.276142 0 .5-.223858.5-.5s-.223858-.5-.5-.5h-.5zM3.516 82.508c0-.556254-.45154-1.008-1.008-1.008-.555858 0-1.008.452142-1.008 1.008 0 .55646.451746 1.008 1.008 1.008.556858 0 1.008-.451142 1.008-1.008zm1 0c0 1.109142-.898858 2.008-2.008 2.008-1.108437 0-2.008-.899152-2.008-2.008 0-1.108142.899858-2.008 2.008-2.008 1.108848 0 2.008.899563 2.008 2.008zm2.378085-39.61732c-.0839-.045884-.15288-.114866-.198766-.198765L5.793 41.042037l-.90232 1.649878c-.045884.0839-.114866.15288-.198765.198766l-1.649878.90232 1.649878.90232c.0839.04589.15288.11487.198766.19877l.90232 1.64988.90232-1.64987c.04589-.0839.11487-.15288.19877-.19876l1.64988-.90232-1.64988-.90232zm2.93183.46364c.34678.189653.34678.687706 0 .87736l-2.323507 1.27073-1.270728 2.323505c-.189653.34678-.687707.34678-.87736 0l-1.27073-2.323507-2.323505-1.270728c-.34678-.189653-.34678-.687706 0-.87736l2.323507-1.270728 1.270727-2.323507c.18965-.34678.6877-.34678.87736 0l1.27072 2.323507 2.32351 1.270728z"/>
  </g>
</svg>
