<svg xmlns="http://www.w3.org/2000/svg" width="252" height="123">
  <g fill="none" fill-rule="evenodd">
    <path fill="#AFF4B0" fill-opacity=".75" fill-rule="nonzero" d="M116.976 35.513c.215 6.062-4.525 11.152-10.588 11.367a10.978 10.978 0 0 1-9.988-5.638c-2.16.273-4.006.987-5.036 2.37-.525.7-.85.215-.763-.267.44-2.418 1.546-5.756 4.44-8.207.38-5.542 4.895-10.013 10.57-10.214 6.06-.215 11.15 4.526 11.366 10.59"/>
    <path fill="#F5F5F5" fill-rule="nonzero" d="M105.147 37.367c-.2-.65.168-1.348.82-1.55l.59-.18a.614.614 0 0 0 .412-.775l-.365-1.184a.613.613 0 0 0-.775-.41l-1.183.364a.612.612 0 0 0-.41.774l.18.593-2.368.726c-.547-1.776.684-4.098 2.46-4.645 1.776-.545 3.916.094 4.463 1.87.78 2.534-1.46 3.688-1.46 3.688l.365 1.185-2.368.73-.364-1.186h.003zm.636 2.072l2.37-.728.727 2.368-2.368.728-.728-2.37-.001.002z"/>
    <path stroke="#AFF4B0" stroke-linecap="round" stroke-linejoin="round" stroke-width="1.186" d="M243.987 14.19a3.142 3.142 0 1 1-6.283.112 3.142 3.142 0 0 1 6.283-.112zM3.608 81.688a1.51 1.51 0 1 1-3.017 0 1.51 1.51 0 0 1 3.018 0h-.001zM209.14 71.482l-.916-1.73a.472.472 0 0 0-.195-.195l-1.73-.915a.47.47 0 0 1 0-.83l1.73-.916a.47.47 0 0 0 .194-.195l.915-1.73a.47.47 0 0 1 .83 0l.915 1.73a.47.47 0 0 0 .195.196l1.73.915a.47.47 0 0 1 0 .832l-1.73.915a.472.472 0 0 0-.195.196l-.915 1.73a.47.47 0 0 1-.83 0l.002-.003zm-78.483-44.556l.575-1.87a.452.452 0 0 0 0-.277l-.575-1.872a.47.47 0 0 1 .587-.586l1.87.576a.48.48 0 0 0 .276 0l1.87-.576c.362-.112.7.226.588.586l-.576 1.87a.484.484 0 0 0 0 .278l.576 1.87a.47.47 0 0 1-.587.587l-1.87-.576a.464.464 0 0 0-.276 0l-1.87.576a.47.47 0 0 1-.587-.587l-.001.001zm99.956 82.827v5.86-5.86zm2.931 2.931h-5.86 5.86zM98.533.593l-4.145 4.145L98.533.593zm0 4.145L94.388.593l4.145 4.145zm73.717 39.855l-1.59 1.59 1.59-1.59zm4.422-4.423l-1.59 1.59 1.59-1.59zm-4.422 4.423a2 2 0 1 0 2.825-2.834 2 2 0 0 0-2.825 2.835v-.001zm72.057 5.547a1.269 1.269 0 1 1 0-.002v.002zm-63.369 31.548a1.268 1.268 0 1 1-2.536 0 1.268 1.268 0 0 1 2.536 0zm68.542-3.425l-.677-1.28-1.28-.677 1.28-.678.677-1.28.677 1.28 1.28.678-1.28.677-.677 1.28zM25.21 104.615l-.676-1.28-1.28-.677 1.28-.677.677-1.28.678 1.28 1.28.678-1.28.677-.679 1.279zM197.08 9.957a1.09 1.09 0 1 0 1.088 1.09 1.09 1.09 0 0 0-1.09-1.09h.002zM68.758 16.24a1.09 1.09 0 1 0 0 2.18 1.09 1.09 0 0 0 0-2.18zM198.5 106.187v2.84-2.84zm1.418 1.419h-2.84 2.84zM31.29 57.01l.92-.283.924.284-.284-.922.284-.922-.923.284-.92-.284.283.922-.284.921zM15.867 19.784l2.452 1.34-2.453 1.342-1.34 2.452-1.342-2.452-2.452-1.34 2.452-1.342 1.34-2.452 1.343 2.452zM62.93 86.8l.785 2.68-2.68-.785-2.684.786.787-2.68-.786-2.684 2.684.787 2.68-.787-.786 2.683z"/>
    <path stroke="#AFF4B0" stroke-linecap="round" stroke-linejoin="round" d="M182.117 115.044c-11.516-8.396-36.27-13.705-61.882-13.703-25.61.003-50.367 5.316-61.885 13.715"/>
    <path stroke="#AFF4B0" stroke-linecap="round" stroke-linejoin="round" d="M82.82 105.32l1.725-3.98s6.018-2.046 12.584-2.046l2.963 3.15m45.321 9.112c-1.192.46-1.96 1.14-2.083 1.98-.304 2.057 3.36 4.302 8.185 5.013 4.824.71 8.98-.38 9.284-2.437.3-2.057-3.363-4.302-8.187-5.013m8.188 5.014c-.72 4.867 2.713 6.515 2.713 6.515m-20.183-9.092c-.718 4.867-4.48 5.453-4.48 5.453m7.586-1.939c-.14 2.467-2.04 3.756-2.04 3.756m14.147-5.026c-.608-1.677-5.133-2.914-6.988-2.903"/>
    <path fill="#AFF4B0" fill-opacity=".75" fill-rule="nonzero" d="M123.175 115.055c0 .734-4.975 1.33-11.112 1.33-6.137 0-11.112-.596-11.112-1.33 0-.734 4.976-1.33 11.113-1.33s11.112.596 11.112 1.33"/>
    <path stroke="#AFF4B0" stroke-dasharray="2.517,3.356" stroke-linecap="round" stroke-linejoin="round" d="M112.063 65.91v49.023"/>
    <path stroke="#AFF4B0" stroke-linecap="round" stroke-linejoin="round" d="M113.918 90.1c.364-.206.738-.397 1.12-.57"/>
    <path stroke="#AFF4B0" stroke-dasharray="2.41,3.214" stroke-linecap="round" stroke-linejoin="round" d="M118.075 88.49c6.415-1.56 14.066.093 17.71 2.772 2.55 1.876 5.61 1.867 7.776 1.51"/>
    <path stroke="#AFF4B0" stroke-linecap="round" stroke-linejoin="round" d="M145.13 92.428c.744-.205 1.192-.392 1.192-.392V90.78"/>
    <path stroke="#AFF4B0" stroke-dasharray="2.694,3.592" stroke-linecap="round" stroke-linejoin="round" d="M146.322 87.187v-17.06"/>
    <path stroke="#AFF4B0" stroke-linecap="round" stroke-linejoin="round" d="M146.322 68.33v-1.258s-.448.187-1.19.392"/>
    <path stroke="#AFF4B0" stroke-dasharray="2.41,3.214" stroke-linecap="round" stroke-linejoin="round" d="M141.965 67.98c-1.933.092-4.21-.232-6.18-1.683-3.94-2.896-12.566-4.594-19.248-2.325"/>
    <path stroke="#AFF4B0" stroke-linecap="round" stroke-linejoin="round" d="M115.04 64.564a14.56 14.56 0 0 0-1.122.57l1.122-.57zm17.172 12.376a3.172 3.172 0 1 1-6.344 0 3.172 3.172 0 0 1 6.344 0zm0 0h5.386-5.386zm-11.729 0h5.385-5.385zM91.648 51.064a9.256 9.256 0 1 1-18.51-.001 9.256 9.256 0 0 1 18.51.002v-.001zm-16.463 0a7.208 7.208 0 0 1 7.208-7.208l-7.208 7.208z"/>
    <path stroke="#AFF4B0" stroke-linecap="round" stroke-linejoin="round" d="M82.603 58.823c-1.07 1.688-.956 3.752.188 5.558 1.145 1.807-1.077 4.405-3.324 3.698-2.247-.708-2.582-3.507-.782-3.713m4.408-5.306c-.737 1.188.83 4.587 4.896 4.843 4.067.255 3.563-5.05 1.426-4.53-1.894.464-.89 2.467-.89 2.467"/>
    <path stroke="#AFF4B0" stroke-linecap="round" stroke-linejoin="round" d="M81.522 58.97c-.64 2.34-1.458 3.52-4.538 3.443-2.84-.07-3.05 2.893-1.837 3.83m7.706-7.128c-1.322.683-2.104 1.972-1.796 4.214.308 2.24-2.4 3.347-3.258 4.942-.856 1.596.403 2.364 1.272 2.22"/>
    <path stroke="#AFF4B0" stroke-linecap="round" stroke-linejoin="round" d="M82.902 59.254c-.793.72-1.383 2.2.937 4.092 2.32 1.89 1.54 6.166-2.1 6.282l1.163-10.374zm4.595-5.354l-.092-.214s.23-1.37-.43-2.71c.05-.335.218-1.87-.552-2.86a.4.4 0 0 0-.37-.148c-.447.062-1.45.26-1.99.785-2.205-.62-3.725-.052-3.725-.052s-1.752-.583-2.98.115a.4.4 0 0 0-.2.347c-.004.46.044 1.53.518 2.133 0 0-1.44 3.79 1.19 6.18 2.56 2.322 8.545 1.63 9.532-3.028.048-.227-.675-.495-.9-.548h-.001zm120.439-26.2c5.762 0 10.434 4.673 10.434 10.435 0 5.762-4.672 10.434-10.434 10.434-5.763 0-10.435-4.673-10.435-10.435 0-5.762 4.673-10.434 10.436-10.434h-.001z"/>
    <path stroke="#AFF4B0" stroke-linecap="round" stroke-linejoin="round" d="M207.936 27.7c5.762 0 10.434 4.673 10.434 10.435 0 5.762-4.672 10.434-10.434 10.434-5.763 0-10.435-4.673-10.435-10.435 0-5.762 4.673-10.434 10.436-10.434h-.001z"/>
    <path stroke="#AFF4B0" stroke-linecap="round" stroke-linejoin="round" d="M198.324 34.067c1.998.877 4.434 1.718 6.415 1.718 4.135 0 5.075-2.538 9.963-2.632.882-.017 1.675-.027 2.383-.034M203.89 47.754c.75-1.92 2.284-4.622 5.268-6.142 3.564-1.816 6.118-.31 8.763-.444"/>
    <path stroke="#AFF4B0" stroke-linecap="round" stroke-linejoin="round" d="M199.152 43.77c1.608-.22 4.254-.918 6.433-3.098 3.383-3.383 4.324-3.477 6.392-3.477 1.694 0 4.208 1.766 6.353 1.837m-14.608-10.445c2.172.335 4.795 1.016 6.47 2.403 1.307 1.083 3.563 1.01 5.81.526m-14.442-1.641c.8.175 1.537.362 2.017.518 1.58.51 2.976.697 2.573 1.82-.513 1.425-2.88.62-4.46.108-.52-.166-1.167-.473-1.8-.828m-2.32 5.442c2.086.298 4.99 1 5.29 2.61.205 1.113-2.102 1.738-4.758 2.09m7.138 6.582c1.812-1.924 6.25-5.813 11.515-4.507"/>
  </g>
</svg>
