<?xml version="1.0" encoding="UTF-8"?>
<svg width="251px" height="138px" viewBox="0 0 251 138" version="1.1" xmlns="http://www.w3.org/2000/svg" xmlns:xlink="http://www.w3.org/1999/xlink">
    <!-- Generator: Sketch 44.1 (41455) - http://www.bohemiancoding.com/sketch -->
    <title>empty-no-file-selected</title>
    <desc>Created with Sketch.</desc>
    <defs>
        <polygon id="path-1" points="76.632 7 0.977 7 0.977 0.14 76.632 0.14"></polygon>
    </defs>
    <g id="Page-1" stroke="none" stroke-width="1" fill="none" fill-rule="evenodd">
        <g id="empty-no-file-selected">
            <g>
                <path d="M50.416,27.997 L49.84,26.127 C49.8120045,26.0371297 49.8120045,25.9408703 49.84,25.851 L50.416,23.981 C50.4673841,23.8146271 50.4225747,23.6334794 50.299553,23.5102481 C50.1765313,23.3870169 49.9954601,23.3418992 49.829,23.393 L47.957,23.969 C47.8671297,23.9969955 47.7708703,23.9969955 47.681,23.969 L45.811,23.393 C45.6446271,23.3416159 45.4634794,23.3864253 45.3402481,23.509447 C45.2170169,23.6324687 45.1718992,23.8135399 45.223,23.98 L45.799,25.85 C45.8269955,25.9398703 45.8269955,26.0361297 45.799,26.126 L45.223,27.996 C45.1714093,28.1625935 45.2163057,28.344057 45.3396243,28.4673757 C45.462943,28.5906943 45.6444065,28.6355907 45.811,28.584 L47.681,28.008 C47.7708703,27.9800045 47.8671297,27.9800045 47.957,28.008 L49.827,28.584 C49.9935935,28.6355907 50.175057,28.5906943 50.2983757,28.4673757 C50.4216943,28.344057 50.4665907,28.1625935 50.415,27.996 L50.416,27.997 Z M84.425,0.5 L88.569,4.644 L84.425,0.5 Z M84.425,4.644 L88.57,0.5 L84.425,4.644 Z M222.32,1.48 C222.922819,1.48 223.4115,1.9686812 223.4115,2.5715 C223.4115,3.1743188 222.922819,3.663 222.32,3.663 C221.717457,3.663 221.229,3.17454266 221.229,2.572 C221.229,1.96945734 221.717457,1.481 222.32,1.481 L222.32,1.48 Z M181.555,70.83 L180.639,69.1 C180.595171,69.0159657 180.52681,68.9472562 180.443,68.903 L178.713,67.988 C178.559537,67.9064154 178.463624,67.7468012 178.463624,67.573 C178.463624,67.3991988 178.559537,67.2395846 178.713,67.158 L180.443,66.242 C180.52626,66.1982644 180.594264,66.1302602 180.638,66.047 L181.553,64.317 C181.634585,64.1635372 181.794199,64.0676241 181.968,64.0676241 C182.141801,64.0676241 182.301415,64.1635372 182.383,64.317 L183.299,66.047 C183.343305,66.1301808 183.411594,66.198121 183.495,66.242 L185.225,67.158 C185.378463,67.2395846 185.474376,67.3991988 185.474376,67.573 C185.474376,67.7468012 185.378463,67.9064154 185.225,67.988 L183.495,68.903 C183.411893,68.9474047 183.343979,69.0156672 183.3,69.099 L182.386,70.829 C182.304415,70.9824628 182.144801,71.0783759 181.971,71.0783759 C181.797199,71.0783759 181.637585,70.9824628 181.556,70.829 L181.555,70.83 Z M209.895,105.55 L209.895,111.41 L209.895,105.55 Z M212.826,108.48 L206.966,108.48 L212.826,108.48 Z M73.338,46.546 L71.748,48.136 L73.338,46.546 Z M77.76,42.124 L76.17,43.714 L77.76,42.124 Z M24.43,13.77 C24.43,14.4705732 23.8620732,15.0385 23.1615,15.0385 C22.4609268,15.0385 21.893,14.4705732 21.893,13.77 C21.893,13.0697029 22.4607029,12.502 23.161,12.502 C23.8612971,12.502 24.429,13.0697029 24.429,13.77 L24.43,13.77 Z M172.8,2.573 C172.812959,3.03432302 172.574249,3.46625884 172.176752,3.70074263 C171.779254,3.93522642 171.285746,3.93522642 170.888248,3.70074263 C170.490751,3.46625884 170.252041,3.03432302 170.265,2.573 C170.284275,1.88684015 170.846069,1.34060548 171.5325,1.34060548 C172.218931,1.34060548 172.780725,1.88684015 172.8,2.573 L172.8,2.573 Z M228.76,74.058 L228.084,72.778 L226.804,72.101 L228.084,71.425 L228.761,70.145 L229.439,71.425 L230.719,72.102 L229.439,72.78 L228.76,74.058 Z M158.167,41.626 C157.56501,41.626 157.077,42.1140096 157.077,42.716 C157.077,43.3179904 157.56501,43.806 158.167,43.806 C158.76899,43.806 159.257,43.3179904 159.257,42.716 C159.257,42.1140096 158.76899,41.626 158.167,41.626 Z M57.02,66.154 L57.02,68.994 L57.02,66.154 Z M58.44,67.574 L55.6,67.574 L58.44,67.574 Z M3.516,82.644 C3.51600002,83.1827565 3.22857685,83.6805881 2.76200002,83.9499664 C2.29542319,84.2193446 1.72057681,84.2193446 1.25399998,83.9499664 C0.787423149,83.6805881 0.499999977,83.1827565 0.5,82.644 C0.5,81.8111546 1.1751546,81.136 2.008,81.136 C2.8408454,81.136 3.516,81.8111546 3.516,82.644 Z M25.118,105.57 L24.441,104.29 L23.161,103.614 L24.441,102.936 L25.119,101.656 L25.796,102.936 L27.076,103.614 L25.796,104.291 L25.118,105.57 Z M31.196,57.967 L32.118,57.683 L33.041,57.967 L32.758,57.044 L33.042,56.122 L32.12,56.405 L31.198,56.122 L31.482,57.044 L31.196,57.967 Z M7.142,42.295 L9.594,43.635 L7.142,44.977 L5.802,47.429 L4.46,44.976 L2.008,43.636 L4.46,42.294 L5.8,39.842 L7.142,42.295 Z M249.682,42.717 L250.467,45.399 L247.787,44.612 L245.103,45.398 L245.889,42.715 L245.102,40.032 L247.785,40.819 L250.465,40.033 L249.682,42.717 Z M121.977,126.32 L121.977,125.06 L121.977,126.32 Z" id="Shape" stroke="#AFF4B0" stroke-linecap="round" stroke-linejoin="round"></path>
                <path d="M121.977,121.703 L121.977,70.487" id="Shape" stroke="#AFF4B0" stroke-linecap="round" stroke-linejoin="round" stroke-dasharray="2.519,3.358"></path>
                <path d="M121.977,68.808 L121.977,67.548 M134.02,62.864 L134.887,63.777" id="Shape" stroke="#AFF4B0" stroke-linecap="round" stroke-linejoin="round"></path>
                <path d="M137.184,66.202 L192.309,124.392" id="Shape" stroke="#AFF4B0" stroke-linecap="round" stroke-linejoin="round" stroke-dasharray="2.505,3.34"></path>
                <path d="M193.458,125.604 L194.323,126.518" id="Shape" stroke="#AFF4B0" stroke-linecap="round" stroke-linejoin="round"></path>
                <path d="M156.123,24.366 C156.338,30.429 151.598,35.518 145.535,35.734 C141.410569,35.8815146 137.551882,33.7033727 135.547,30.096 C133.387,30.368 131.541,31.082 130.511,32.464 C129.987,33.167 129.661,32.68 129.749,32.199 C130.189,29.779 131.294,26.441 134.187,23.989 C134.567,18.449 139.082,13.979 144.757,13.777 C150.819,13.561 155.909,18.303 156.124,24.365" id="Shape" fill-opacity="0.75" fill="#AFF4B0" fill-rule="nonzero"></path>
                <path d="M144.293,26.22 C144.093,25.568 144.463,24.87 145.113,24.67 L145.706,24.49 C145.864082,24.4429941 145.996608,24.3343691 146.07373,24.1885895 C146.150852,24.0428099 146.166086,23.8721335 146.116,23.715 L145.751,22.531 C145.703964,22.3733832 145.595653,22.2412294 145.450342,22.1641564 C145.305031,22.0870834 145.134872,22.0715365 144.978,22.121 L143.794,22.486 C143.635831,22.5325435 143.503133,22.6409366 143.425955,22.7866326 C143.348778,22.9323285 143.333651,23.1030012 143.384,23.26 L143.566,23.85 L141.196,24.58 C140.651,22.803 141.881,20.48 143.658,19.934 C145.435,19.388 147.575,20.026 148.121,21.802 C148.901,24.337 146.663,25.492 146.663,25.492 L147.027,26.676 L144.657,27.404 L144.294,26.22 L144.293,26.22 Z M144.93,28.292 L147.3,27.564 L148.027,29.934 L145.659,30.66 L144.929,28.292 L144.93,28.292 Z" id="Shape" fill="#F8F9F8" fill-rule="nonzero"></path>
                <path d="M199.982,16.846 C207.379,16.846 213.377,22.843 213.377,30.242 C213.377,37.639 207.379,43.636 199.982,43.636 C192.584,43.636 186.587,37.639 186.587,30.242 C186.587,22.842 192.584,16.846 199.982,16.846 Z M208.046,24.224 C208.486,22.968 208.816,21.674 209.026,20.36 L208.046,24.224 Z" id="Shape" stroke="#AFF4B0" stroke-linecap="round" stroke-linejoin="round"></path>
                <path d="M199.66,35.37 C201.958,33.76 203.933,31.7 205.484,29.365 C205.927,28.697 206.336,28.005 206.709,27.295 M194.768,38.008 C195.284682,37.8103721 195.793407,37.5925377 196.293,37.355 M190.1,39.285 C190.804461,39.1709696 191.503221,39.0241434 192.194,38.845 M191.19,36.757 C196.12,35.263 200.473,31.935 203.47,27.693 M187.612,25.61 C188.891895,24.8344172 190.092348,23.9347473 191.196,22.924 M192.448,25.44 C194.710384,23.5576252 196.584592,21.2527362 197.966,18.654 M202.153,43.373 C205.067,42.025 207.643,39.995 209.731,37.563 M210.477,29.198 C210.56,29.013 210.642,28.828 210.72,28.643 M198.167,41.13 C202.011,39.578 205.345,36.874 207.841,33.58 C208.548553,32.6474966 209.189156,31.66604 209.758,30.643 M194.114,42.285 C194.944,42.145 195.764,41.948 196.569,41.701 M209.862,34.105 C211.298,32.005 212.352,29.682 213.036,27.235 M196.975,43.295 C199.354396,42.6469873 201.612783,41.6169167 203.662,40.245 M201.25,24.84 C202.700466,22.6190002 203.75287,20.1622638 204.36,17.58 M197.763,29.01 C198.223,28.573 198.667,28.118 199.088,27.644 M187.32,34.62 C188.255,34.4 189.175,34.12 190.075,33.785 M201.316,18.706 C201.539965,18.1408665 201.741456,17.5670834 201.92,16.986 M196.06,26.616 C197.687,25.084 199.15,23.333 200.1,21.296 M193.625,28.7 C193.992,28.408 194.355,28.112 194.713,27.81 M186.727,32.18 C188.577442,31.6132414 190.34831,30.8134946 191.997,29.8 M189.25,27.8 C188.41,28.3 187.536,28.736 186.635,29.112" id="Shape" stroke="#AFF4B0" stroke-linecap="round" stroke-linejoin="round"></path>
                <path d="M96.105,81.374 C92.575,79.129 91.661,74.422 91.661,74.422 C91.661,74.422 90.585,77.824 87.206,78.798 L87.791,80.69 L92.057,81.815 L96.107,81.375 L96.105,81.374 Z" id="Shape" fill="#F8F9F8" fill-rule="nonzero"></path>
                <path d="M96.105,81.374 C92.575,79.129 91.661,74.422 91.661,74.422 C91.661,74.422 90.585,77.824 87.206,78.798 L87.791,80.69 L92.057,81.815 L96.107,81.375 L96.105,81.374 Z" id="Shape" stroke="#AFF4B0" stroke-linecap="round" stroke-linejoin="round"></path>
                <path d="M83.826,79.77 C83.826,79.77 82.001,78.13 82.852,74.546 C82.852,74.546 88.217,82.256 96.105,81.376 C96.105,81.376 91.278,84.186 83.825,79.771" id="Shape" fill="#F8F9F8" fill-rule="nonzero"></path>
                <path d="M83.826,79.77 C83.826,79.77 82.001,78.13 82.852,74.546 C82.852,74.546 88.217,82.256 96.105,81.376 C96.105,81.376 91.278,84.186 83.825,79.771 L83.826,79.77 Z" id="Shape" stroke="#AFF4B0" stroke-linecap="round" stroke-linejoin="round"></path>
                <path d="M62.09,98.41 C65.16,98.15 67.64,100.94 67.64,100.94 C67.64,100.94 68.24,97.54 65.784,96.62 L61.187,96.02 L62.089,98.41 L62.09,98.41 Z" id="Shape" fill="#F5F5F5" fill-rule="nonzero"></path>
                <path d="M62.09,98.41 C65.16,98.15 67.64,100.94 67.64,100.94 C67.64,100.94 68.24,97.54 65.784,96.62 L61.187,96.02 L62.089,98.41 L62.09,98.41 Z" id="Shape" stroke="#AFF4B0" stroke-linecap="round" stroke-linejoin="round"></path>
                <path d="M53.85,97.865 C53.85,97.865 57.817,97.875 60.637,100.791 C60.637,100.791 62.684,95.961 65.784,96.621 C65.784,96.621 55.842,92.011 53.85,97.866" id="Shape" fill="#F5F5F5" fill-rule="nonzero"></path>
                <path d="M53.85,97.865 C53.85,97.865 57.817,97.875 60.637,100.791 C60.637,100.791 62.684,95.961 65.784,96.621 C65.784,96.621 55.842,92.011 53.85,97.866 L53.85,97.865 Z" id="Shape" stroke="#AFF4B0" stroke-linecap="round" stroke-linejoin="round"></path>
                <path d="M113.295,132.812 C113.295,134.707 100.379,136.242 84.448,136.242 C68.516,136.242 55.601,134.707 55.601,132.812 C55.601,130.917 68.517,129.382 84.449,129.382 C100.379,129.382 113.296,130.917 113.296,132.812" id="Shape" fill="#E7F5E7" fill-rule="nonzero"></path>
                <g id="Group" transform="translate(121.000000, 130.145000)">
                    <g id="Clipped">
                        <mask id="mask-2" fill="white">
                            <use xlink:href="#path-1"></use>
                        </mask>
                        <g id="a"></g>
                        <path d="M76.632,3.57 C76.632,5.464 59.696,7 38.804,7 C17.914,7 0.977,5.464 0.977,3.57 C0.977,1.675 17.913,0.14 38.804,0.14 C59.696,0.14 76.632,1.675 76.632,3.57" id="Shape" fill="#E7F5E7" fill-rule="nonzero" mask="url(#mask-2)"></path>
                    </g>
                </g>
                <path d="M76.865,131.29 C74.602,131.775 69.861,133.715 69.861,133.715 L64.044,130.913 C63.774,126.279 62.534,112.433 62.534,112.433 C62.534,112.433 71.856,114.481 76.112,112.919 C76.112,112.919 79.562,114.695 83.709,114.749 C83.709,114.749 82.955,116.635 83.009,117.336 C83.009,117.336 84.625,117.82 85.433,117.82 L84.895,112.057 L85.435,111.733 L84.41,111.463 C84.41,111.463 88.397,110.171 90.66,107.853 C90.66,107.853 97.18,107.315 104.72,103.653 C104.72,103.653 103.805,106.185 101.38,108.608 L104.99,109.418 L103.374,132.206 L97.826,134.576 C97.826,134.576 93.84,132.852 90.391,132.206 L85.921,134.846 C85.921,134.846 82.957,133.392 76.869,132.26 L76.869,131.29 L76.865,131.29 Z" id="Shape" fill="#F8F9F8" fill-rule="nonzero"></path>
                <path d="M76.865,131.29 C74.602,131.775 69.861,133.715 69.861,133.715 L64.044,130.913 C63.774,126.279 62.534,112.433 62.534,112.433 C62.534,112.433 71.856,114.481 76.112,112.919 C76.112,112.919 79.562,114.695 83.709,114.749 C83.709,114.749 82.955,116.635 83.009,117.336 C83.009,117.336 84.625,117.82 85.433,117.82 L84.895,112.057 L85.435,111.733 L84.41,111.463 C84.41,111.463 88.397,110.171 90.66,107.853 C90.66,107.853 97.18,107.315 104.72,103.653 C104.72,103.653 103.805,106.185 101.38,108.608 L104.99,109.418 L103.374,132.206 L97.826,134.576 C97.826,134.576 93.84,132.852 90.391,132.206 L85.921,134.846 C85.921,134.846 82.957,133.392 76.869,132.26 L76.869,131.29 L76.865,131.29 Z" id="Shape" stroke="#AFF4B0" stroke-linecap="round" stroke-linejoin="round"></path>
                <path d="M62.534,112.434 C62.534,112.434 66.198,116.474 69.592,117.552 C69.592,117.552 77.726,118.145 83.707,114.752" id="Shape" stroke="#AFF4B0" stroke-linecap="round" stroke-linejoin="round"></path>
                <path d="M69.86,133.715 L69.592,125.902 L68.784,126.442 C68.784,126.442 66.574,125.256 65.336,122.292 C65.336,122.292 67.546,123.856 69.322,123.909 L69.592,117.551" id="Shape" stroke="#AFF4B0" stroke-linecap="round" stroke-linejoin="round"></path>
                <polyline id="Shape" stroke="#AFF4B0" stroke-linecap="round" stroke-linejoin="round" points="104.987 109.417 98.557 112.93 91.065 111.898"></polyline>
                <path d="M97.822,134.577 C97.822,134.577 98.442,121.127 98.558,112.931 M92.82,114.745 C95.69,114.628 98.504,115.74 98.504,115.74 C98.504,115.74 101.016,113.516 102.656,113.516" id="Shape" stroke="#AFF4B0" stroke-linecap="round" stroke-linejoin="round"></path>
                <path d="M104.36,118.258 L102.012,119.248" id="Shape" stroke="#AFF4B0" stroke-linecap="round" stroke-linejoin="round"></path>
                <path d="M103.67,127.97 L100.372,129.382 M92.82,125.633 C92.82,125.633 96.592,126.689 98.19,127.393 L99.026,127.04 M90.387,132.207 L91.59,119.547 L86.497,122.182 L85.915,134.847" id="Shape" stroke="#AFF4B0" stroke-linecap="round" stroke-linejoin="round"></path>
                <path d="M79.43,119.25 L75.783,121.712 C75.783,121.712 79.53,121.42 86.497,122.182" id="Shape" stroke="#AFF4B0" stroke-linecap="round" stroke-linejoin="round"></path>
                <path d="M91.59,119.546 L90.59,119.249" id="Shape" stroke="#AFF4B0" stroke-linecap="round" stroke-linejoin="round"></path>
                <path d="M76.865,131.29 C76.865,131.29 76.602,124.58 75.783,121.712" id="Shape" stroke="#AFF4B0" stroke-linecap="round" stroke-linejoin="round"></path>
                <path d="M69.592,125.903 C69.592,125.903 73.13,123.745 76.125,123.285 C76.125,123.285 72.172,122.945 69.322,123.91 M64.658,118.258 C64.658,118.258 68.46,119.658 69.458,120.715 C69.458,120.715 72.504,119.605 74.494,119.545" id="Shape" stroke="#AFF4B0" stroke-linecap="round" stroke-linejoin="round"></path>
                <path d="M63.253,119.807 C63.253,119.807 64.658,120.102 65.887,120.804 M68.874,128.387 L69.687,128.677 C69.687,128.677 71.684,127.801 73.207,127.743" id="Shape" stroke="#AFF4B0" stroke-linecap="round" stroke-linejoin="round"></path>
                <path d="M63.892,128.676 C63.892,128.676 66.03,129.558 67.598,130.144" id="Shape" stroke="#AFF4B0" stroke-linecap="round" stroke-linejoin="round"></path>
                <path d="M76.324,124.618 C76.324,124.618 78.827,124.582 80.76,124.933 M82.106,129.41 C82.106,129.41 84.596,129.383 86.131,130.144 C86.131,130.144 87.084,129.321 89.251,128.62" id="Shape" stroke="#AFF4B0" stroke-linecap="round" stroke-linejoin="round"></path>
                <path d="M91.146,124.22 C91.146,124.22 90.244,124.757 89.366,125.283" id="Shape" stroke="#AFF4B0" stroke-linecap="round" stroke-linejoin="round"></path>
                <path d="M90.538,130.618 C90.538,130.618 88.78,131.315 88.018,132.076" id="Shape" stroke="#AFF4B0" stroke-linecap="round" stroke-linejoin="round"></path>
                <path d="M76.834,130.618 C76.834,130.618 77.89,130.623 79.119,131.056" id="Shape" stroke="#AFF4B0" stroke-linecap="round" stroke-linejoin="round"></path>
                <path d="M92.82,120.715 C92.82,120.715 97.153,121.01 99.026,122.942 C99.026,122.942 100.156,121.362 101.086,120.306 L98.346,121.214 C98.346,121.214 95.513,120.42 92.82,120.714" id="Shape" fill="#F5F5F5" fill-rule="nonzero"></path>
                <path d="M92.82,120.715 C92.82,120.715 97.153,121.01 99.026,122.942 C99.026,122.942 100.156,121.362 101.086,120.306 L98.346,121.214 C98.346,121.214 95.513,120.42 92.82,120.714 L92.82,120.715 Z M83.006,117.337 C83.006,117.337 79.939,117.511 77.304,117.592 C77.304,117.592 79.948,120.542 85.914,121.712 C85.914,121.712 88.664,120.186 91.59,118.754 C91.59,118.754 88.697,118.556 85.43,117.821 L83.006,117.337 Z" id="Shape" stroke="#AFF4B0" stroke-linecap="round" stroke-linejoin="round"></path>
                <path d="M101.377,108.61 C101.377,108.61 100.372,109.828 100.137,110.004 C100.137,110.004 93.381,112.762 85.43,111.734" id="Shape" stroke="#AFF4B0" stroke-linecap="round" stroke-linejoin="round"></path>
                <path d="M131.55,47.61 L113.997,54.44 L111.037,46.835 C110.131351,44.5070672 110.187596,41.9147073 111.193362,39.6282457 C112.199127,37.341784 114.07202,35.5485286 116.4,34.643 C121.247,32.756 126.705,35.158 128.592,40.005 L131.552,47.61 L131.55,47.61 Z M114.13,47.135 C112.028,42.695 114.015,38.049 118.664,36.825 L114.13,47.135 Z" id="Shape" stroke="#AFF4B0" stroke-linecap="round" stroke-linejoin="round"></path>
                <path d="M135.428,50.85 L113.328,59.448 L111.724,55.325 L133.824,46.725 L135.428,50.85 Z M132.785,49.503 L122.871,53.36 L132.785,49.503 Z M131.594,55.246 L119.127,60.1 L117.505,57.825 L131.252,52.477 L131.594,55.246 Z M121.85,61.602 L121.377,59.222 L121.85,61.602 Z M132.505,58.662 C132.761874,59.0846452 132.773757,59.6122261 132.536172,60.0460081 C132.298588,60.4797901 131.847631,60.7538714 131.353172,60.7650081 C130.858714,60.7761449 130.395874,60.5226452 130.139,60.1 C129.762278,59.4484466 129.975273,58.6152796 130.618473,58.2244647 C131.261672,57.8336498 132.099278,58.0284598 132.504,58.663 L132.505,58.662 Z M130.603,58.197 L129.343,56.123 L130.603,58.197 Z" id="Shape" stroke="#AFF4B0" stroke-linecap="round" stroke-linejoin="round"></path>
            </g>
        </g>
    </g>
</svg>