<svg xmlns="http://www.w3.org/2000/svg" width="276" height="131">
  <g fill="none" fill-rule="evenodd">
    <path stroke="#AFF4B0" stroke-linecap="round" stroke-linejoin="round" d="M71.472 75.187l-18.368-4.17 1.806-7.958c1.152-5.073 6.198-8.252 11.27-7.1 5.072 1.152 8.25 6.197 7.1 11.27l-1.808 7.957v.001zM57.306 65.04c.745-4.857 4.99-7.593 9.527-6.003l-9.527 6.003zm15.564 15l-23.124-5.248.98-4.314 23.124 5.25-.98 4.312zm-1.435-2.593L61.06 75.092l10.375 2.355zm-4.203 4.093l-13.046-2.963-.07-2.793 14.386 3.266-1.27 2.49zM56.34 83.162a1.384 1.384 0 1 1-2.552-1.073 1.386 1.386 0 0 1 2.553 1.072l-.001.001zm-.74-1.812l.94-2.238-.94 2.238zm9.16 2.078l.117-2.424-.117 2.424z"/>
    <path fill="#AFF4B0" fill-opacity=".75" fill-rule="nonzero" d="M93.61 42.55c.215 6.063-4.526 11.153-10.59 11.368a10.98 10.98 0 0 1-9.987-5.638c-2.16.273-4.005.987-5.037 2.37-.523.7-.85.215-.76-.267.438-2.418 1.543-5.756 4.436-8.207.38-5.542 4.895-10.013 10.57-10.214 6.06-.215 11.15 4.526 11.367 10.59"/>
    <path fill="#F8F9F8" fill-rule="nonzero" d="M81.78 44.404c-.2-.65.168-1.348.82-1.55l.59-.18a.613.613 0 0 0 .41-.775l-.362-1.185a.614.614 0 0 0-.774-.41l-1.185.364a.613.613 0 0 0-.41.773l.18.593-2.368.727c-.546-1.776.685-4.098 2.46-4.645 1.778-.546 3.918.093 4.464 1.87.78 2.533-1.458 3.687-1.458 3.687l.364 1.185-2.37.73-.363-1.186.002.002zm.637 2.072l2.368-.727.728 2.367-2.37.728-.726-2.37v.002z"/>
    <path stroke="#AFF4B0" stroke-linecap="round" stroke-linejoin="round" stroke-width="1.186" d="M261.727 36.052a3.142 3.142 0 1 1-6.283.112 3.142 3.142 0 0 1 6.283-.112zM24.49 82.815a1.508 1.508 0 0 1-3.016 0 1.508 1.508 0 0 1 3.015 0h.001zM230.02 72.61l-.915-1.73a.47.47 0 0 0-.195-.197l-1.73-.916a.47.47 0 0 1 0-.83l1.73-.914a.467.467 0 0 0 .195-.197l.916-1.73a.47.47 0 0 1 .83 0l.916 1.73a.471.471 0 0 0 .196.197l1.73.915a.47.47 0 0 1 0 .83l-1.73.915a.477.477 0 0 0-.196.197l-.915 1.73a.47.47 0 0 1-.83 0h-.002zm-78.482-44.558l.576-1.87a.464.464 0 0 0 0-.276l-.576-1.87a.47.47 0 0 1 .587-.588l1.87.576c.09.027.187.027.277 0l1.87-.576c.36-.11.7.226.587.587l-.577 1.87a.48.48 0 0 0 0 .277l.576 1.87a.47.47 0 0 1-.588.588l-1.87-.576a.452.452 0 0 0-.277 0l-1.87.576a.47.47 0 0 1-.587-.588h.002zm99.957 82.828v5.86-5.86zm2.93 2.93h-5.86 5.86zM119.414 41.75l-4.145 4.146 4.145-4.146zm0 4.146l-4.145-4.145 4.145 4.145zM270.317 84.23l-1.59 1.59 1.59-1.59zm4.423-4.42l-1.59 1.59 1.59-1.59zm-84.098 49.12a1.268 1.268 0 1 1-2.536 0 1.268 1.268 0 0 1 2.536 0zm11.178-46.115a1.269 1.269 0 1 1-2.535 0 1.269 1.269 0 0 1 2.534 0h.001zM39.2 120.654l-.677-1.28-1.28-.677 1.28-.677.677-1.28.678 1.28 1.28.677-1.28.678-.678 1.279zM99.312 4.506l-.677-1.28-1.28-.676 1.28-.678.677-1.28.677 1.28 1.28.678-1.28.677-.677 1.279zm118.648 6.577a1.091 1.091 0 1 0 0 2.183 1.091 1.091 0 0 0 0-2.183zm-138.104 97.65a1.09 1.09 0 1 0-.002 2.18 1.09 1.09 0 0 0 .002-2.18zm139.524-1.42v2.84-2.84zm1.42 1.42h-2.84 2.84zM2.274 55.948l.924-.284.922.284-.283-.923.284-.923-.922.284-.924-.284.285.923-.286.923zM36.748 20.91l2.452 1.34-2.452 1.342-1.34 2.45-1.342-2.45-2.452-1.342 2.452-1.34 1.34-2.453 1.342 2.453zM4.17 109.823l.787 2.682-2.682-.786-2.682.785.785-2.682-.785-2.683 2.682.787 2.682-.787-.787 2.684z"/>
    <path stroke="#AFF4B0" stroke-linecap="round" stroke-linejoin="round" d="M209.77 53.134c.075-.17.144-.342.21-.515l.04-.094a13.055 13.055 0 0 0 .356-1.073l.046-.16c.04-.15.077-.298.113-.447.014-.06.03-.118.042-.177.032-.146.06-.292.09-.438.01-.063.023-.125.034-.19a12.4 12.4 0 0 0 .068-.43c.041-.273.071-.548.09-.824.01-.143.02-.286.026-.428l.007-.2c.005-.142.008-.284.008-.425 0-.068-.002-.135-.003-.202a12 12 0 0 0-.012-.423c-.004-.066-.01-.13-.012-.197a15.307 15.307 0 0 0-.03-.427l-.02-.185c-.018-.145-.033-.29-.054-.435a17.64 17.64 0 0 0-.1-.616c-.008-.037-.017-.073-.024-.11-.108-.548-.25-1.09-.424-1.62-.005-.015-.01-.03-.014-.047-.043-.128-.09-.253-.137-.38-.026-.07-.05-.143-.077-.213-.044-.112-.09-.223-.138-.335-.034-.082-.067-.165-.103-.246-.047-.105-.097-.208-.146-.31a6.265 6.265 0 0 0-.124-.262c-.05-.1-.1-.195-.152-.293-.047-.088-.094-.177-.143-.265a15.547 15.547 0 0 0-.322-.546l-.17-.268c-.06-.09-.118-.177-.18-.265a9.01 9.01 0 0 0-.18-.255 8.043 8.043 0 0 0-.194-.262 10.64 10.64 0 0 0-.4-.5 11.45 11.45 0 0 0-.635-.704 21.099 21.099 0 0 0-.46-.453c-.087-.08-.177-.16-.266-.24-.074-.063-.146-.13-.22-.192a10.83 10.83 0 0 0-.287-.234c-.074-.06-.147-.12-.223-.177a8.032 8.032 0 0 0-.316-.234c-.072-.053-.143-.106-.216-.157a11.89 11.89 0 0 0-.37-.246l-.187-.122a12.64 12.64 0 0 0-1.533-.821c-.04-.018-.08-.04-.12-.056l-.06-.03.007.01c-.318-.14-.64-.27-.963-.386h.005l-.325-1.308c-2.684-1.19-5.75-.44-5.75-.44l-.656 1.178.002.002a13.445 13.445 0 0 0-9.508 6.725 13.404 13.404 0 0 0-1.535 8.64l-.456.818s.172 1.99.934 3.114l.926.284a13.435 13.435 0 0 0 3.2 3.97c-.006-.003-.014-.005-.02-.01.047.042.1.076.15.116.234.195.477.38.727.56.087.062.173.126.263.187.33.226.672.443 1.03.642.283.156.57.3.86.435l.196.09c.286.128.573.247.863.354.04.014.08.025.12.04.264.095.53.18.8.257.06.017.12.036.182.052.293.08.587.15.883.208.057.012.116.02.174.033.268.05.537.092.807.127l.14.017c.298.034.598.057.897.07l.193.007c.294.01.59.013.882.003h.034c.303-.01.606-.036.907-.067l.19-.022c.3-.035.6-.078.895-.133.022-.003.043-.008.065-.013a13.32 13.32 0 0 0 1.863-.498l.126-.046c.26-.094.52-.195.777-.305l.117-.05c.277-.122.55-.252.82-.393l.142-.077c.26-.14.516-.286.767-.443l.038-.023c.31-.197.612-.405.905-.626.25-.187.495-.38.732-.587l1.32.484c2.008-1.696 2.99-4.142 2.99-4.142l-.79-1.128h-.002l-.002.003z"/>
    <path stroke="#AFF4B0" stroke-linecap="round" stroke-linejoin="round" d="M192.206 59.918c-.02-1.187 1.187-2.168 2.695-2.193 1.51-.025 2.747.918 2.767 2.104l-5.462.089zm11.43-5.388c-.472.21-.9.223-1.134-.012-.395-.394-.088-1.342.687-2.117.773-.773 1.72-1.08 2.116-.685.197.197.22.533.095.917l-1.764 1.897zm1.921-11.14a2.712 2.712 0 0 1-1.26 2.815l1.26-2.815zm-3.531 3.067a2.71 2.71 0 1 1 2.452-4.768l-2.452 4.768zm-13.432 6.868c.082-.54.453-.986.977-1.104.7-.154 1.402.34 1.573 1.102.17.764-.26 1.51-.956 1.664a1.24 1.24 0 0 1-.985-.206l-.609-1.456zm19.728-5.265c-.37.1-.784-.242-.922-.76-.14-.518.05-1.018.422-1.117l.5 1.877zm-18.332-5.047c-.68.68-1.563.897-1.975.486-.41-.412-.192-1.296.487-1.975.68-.68 1.563-.897 1.974-.487.41.412.194 1.295-.486 1.975v.001zm3.405 3.554a3.198 3.198 0 1 1 0 4.52v-4.52zm-.937 2.26c0-.19.017-.38.05-.568l-.05.568zm7.032-12.83a1.62 1.62 0 0 1-2.272-.276l2.272.276zm-50.448 27.46l-1.223.297 1.223-.297z"/>
    <path stroke="#AFF4B0" stroke-dasharray="2.497,3.329" stroke-linecap="round" stroke-linejoin="round" d="M144.584 64.54l-26.69 6.476"/>
    <path stroke="#AFF4B0" stroke-linecap="round" stroke-linejoin="round" d="M116.49 71.86c-.25.3-.424.688-.352 1.172m39.427-4.66l-1.82-1.562-1.245.19"/>
    <path stroke="#AFF4B0" stroke-dasharray="2.548,3.398" stroke-linecap="round" stroke-linejoin="round" d="M149.142 67.518l-21.83 3.356"/>
    <path stroke="#AFF4B0" stroke-linecap="round" stroke-linejoin="round" d="M125.634 71.132l-1.244.19c.394-.09.803-.186 1.222-.285"/>
    <path stroke="#AFF4B0" stroke-dasharray="2.329,3.105" stroke-linecap="round" stroke-linejoin="round" d="M128.633 70.323c6.85-1.625 15.354-3.685 19.632-4.724"/>
    <path stroke="#AFF4B0" stroke-linecap="round" stroke-linejoin="round" d="M149.774 65.234l1.22-.297-1.952-1.48m13.824 50.839l1.243-.198-.23-1.24"/>
    <path stroke="#AFF4B0" stroke-dasharray="2.5,3.333" stroke-linecap="round" stroke-linejoin="round" d="M163.268 109.583l-7.172-38.505"/>
    <path stroke="#AFF4B0" stroke-linecap="round" stroke-linejoin="round" d="M155.79 69.44l-.23-1.237-1.245.182"/>
    <path stroke="#AFF4B0" stroke-dasharray="2.421,3.227" stroke-linecap="round" stroke-linejoin="round" d="M151.122 68.854L119.19 73.54"/>
    <path stroke="#AFF4B0" stroke-linecap="round" stroke-linejoin="round" d="M117.593 73.774l-1.245.183.224 1.234"/>
    <path stroke="#AFF4B0" stroke-dasharray="2.529,3.372" stroke-linecap="round" stroke-linejoin="round" d="M117.188 78.504c1.916 10.253 5.914 31.257 7.377 38.932"/>
    <path stroke="#AFF4B0" stroke-linecap="round" stroke-linejoin="round" d="M124.88 119.092c.15.794.235 1.233.235 1.233l1.243-.198"/>
    <path stroke="#AFF4B0" stroke-dasharray="2.411,3.215" stroke-linecap="round" stroke-linejoin="round" d="M129.532 119.62l31.746-5.07"/>
    <path stroke="#AFF4B0" stroke-linecap="round" stroke-linejoin="round" d="M123.263 72.942l.245 1.234"/>
    <path stroke="#AFF4B0" stroke-dasharray="2.474,3.299" stroke-linecap="round" stroke-linejoin="round" d="M124.15 77.41l7.553 38.022"/>
    <path stroke="#AFF4B0" stroke-linecap="round" stroke-linejoin="round" d="M132.024 117.05l.245 1.235m-2.246 1.255v1.26"/>
    <path stroke="#AFF4B0" stroke-dasharray="1.528,2.037" stroke-linecap="round" stroke-linejoin="round" d="M130.023 122.837v2.547"/>
    <path stroke="#AFF4B0" stroke-linecap="round" stroke-linejoin="round" d="M130.023 126.403v1.26l.975-.8m3.01-2.463l.974-.798.976.793m3.042 2.472l.978.794v-1.258"/>
    <path stroke="#AFF4B0" stroke-dasharray="1.962,2.615" stroke-linecap="round" stroke-linejoin="round" d="M139.978 123.787v-3.27"/>
    <path stroke="#AFF4B0" stroke-linecap="round" stroke-linejoin="round" d="M139.978 119.21v-1.26m-19.32-21.052c-8.824 5.9-14.05 11.197-12.824 13.636 1.86 3.702 17.87-.582 35.76-9.568 17.89-8.985 30.886-19.27 29.028-22.97-1.076-2.143-6.888-1.612-15.06.957"/>
  </g>
</svg>
