<svg xmlns="http://www.w3.org/2000/svg" width="257" height="85">
  <g fill="#AFF4B0">
    <path d="M212.456 28.478a.97.97 0 0 1-1.212 1.213l-1.861-.573-1.863.574a.97.97 0 0 1-1.211-1.214l.573-1.86-.573-1.862a.97.97 0 0 1 1.213-1.212l1.86.573 1.862-.573a.97.97 0 0 1 1.212 1.212l-.573 1.861.573 1.861zm-1.53-1.574a.961.961 0 0 1-.001-.572l.559-1.816-1.815.559a.963.963 0 0 1-.572 0l-1.816-.56.559 1.814a.963.963 0 0 1 0 .574l-.56 1.816 1.816-.559a.963.963 0 0 1 .572 0l1.816.559-.559-1.815zm-39.998-24.54L169.21.647a.5.5 0 1 0-.708.708l1.719 1.718-1.719 1.718a.5.5 0 1 0 .708.708l1.718-1.719 1.718 1.719a.5.5 0 1 0 .708-.708l-1.719-1.718 1.719-1.718a.5.5 0 1 0-.708-.708l-1.718 1.719zM234.5 14.268a.768.768 0 1 0-1.535.001.768.768 0 0 0 1.535-.001zm1 0a1.768 1.768 0 1 1-3.535 0 1.768 1.768 0 0 1 3.535 0zm-35 52.233V66a.5.5 0 0 0-1 0v.5h-.5a.5.5 0 0 0 0 1h.5v.5a.5.5 0 0 0 1 0v-.5h.5a.5.5 0 0 0 0-1h-.5zm55 16.008a1.008 1.008 0 1 0-2.017 0 1.008 1.008 0 0 0 2.017 0zm1 0a2.008 2.008 0 1 1-4.016 0 2.008 2.008 0 0 1 4.016 0zm-4.192-39.617a.5.5 0 0 1-.199-.2l-.902-1.649-.902 1.65a.5.5 0 0 1-.2.199l-1.649.902 1.65.902a.5.5 0 0 1 .199.2l.902 1.649.902-1.65a.5.5 0 0 1 .2-.199l1.649-.902-1.65-.902zm2.932.463a.5.5 0 0 1 0 .878l-2.324 1.27-1.27 2.324a.5.5 0 0 1-.878 0l-1.27-2.324-2.324-1.27a.5.5 0 0 1 0-.878l2.324-1.27 1.27-2.324a.5.5 0 0 1 .878 0l1.27 2.324 2.324 1.27zM141.324 15.081c8.089 1.418 13.497 9.125 12.078 17.214-1.326 7.57-8.16 12.79-15.66 12.267-3.827 3.423-8.509 4.283-11.832 4.421-.664.029-1.255-.5-.214-1.07 2.043-1.126 3.344-3.465 4.11-6.313-4.31-3.255-6.694-8.752-5.696-14.44 1.419-8.09 9.125-13.497 17.214-12.079zm5.755 10.959l-2.047-2.048-8.873 8.873-3.413-3.413-2.048 2.048 5.46 5.46 10.921-10.92zm-29.953 23.146c-1.787-4.59-6.956-6.864-11.545-5.077a8.918 8.918 0 0 0-5.077 11.545l2.777 7.139 16.623-6.468-2.778-7.139zm3.606 7.89l-17.554 6.83a.5.5 0 0 1-.647-.285l-2.96-7.605c-1.985-5.105.542-10.853 5.647-12.84 5.104-1.986 10.852.542 12.84 5.648l2.959 7.605a.5.5 0 0 1-.285.647z"/>
    <path d="M103.583 55.921c-1.981-4.184-.11-8.475 4.209-9.611a.5.5 0 1 0-.255-.967c-4.936 1.298-7.102 6.266-4.858 11.006a.5.5 0 0 0 .904-.428zm20.197 3.643l-1.241-3.19-21.168 8.236 1.241 3.19 21.168-8.236zm.829.751l-22.1 8.599a.5.5 0 0 1-.647-.285l-1.604-4.123a.5.5 0 0 1 .284-.647l22.1-8.599a.5.5 0 0 1 .648.285l1.604 4.123a.5.5 0 0 1-.285.647z"/>
    <path d="M121.604 58.037l-9.914 3.857a.5.5 0 0 0 .362.932l9.914-3.857a.5.5 0 1 0-.362-.932zm-1.77 4.136l-12.55 4.883 1.024 1.435 11.742-4.57-.216-1.748zm.941 2.54l-12.467 4.851a.5.5 0 0 1-.588-.175l-1.622-2.276a.5.5 0 0 1 .225-.756l13.747-5.348a.5.5 0 0 1 .678.404l.342 2.772a.5.5 0 0 1-.315.527zm-8.786 7.074a.885.885 0 1 0-1.737.347.885.885 0 0 0 1.737-.347zm.98-.195a1.886 1.886 0 1 1-3.698.735 1.886 1.886 0 0 1 3.699-.735z"/>
    <path d="M111.341 70.504l-.474-2.38a.5.5 0 1 0-.98.196l.473 2.38a.5.5 0 0 0 .981-.196zm9.737-2.582a.885.885 0 1 0-1.514.918.885.885 0 0 0 1.514-.918zm.855-.518a1.884 1.884 0 1 1-3.223 1.955 1.886 1.886 0 0 1 3.223-1.955z"/>
    <path d="M120.03 66.937l-1.259-2.074a.5.5 0 1 0-.854.52l1.259 2.073a.5.5 0 1 0 .854-.519zM86.072 2.365L84.354.646a.5.5 0 1 0-.708.708l1.719 1.718-1.719 1.718a.5.5 0 1 0 .708.708l1.718-1.719 1.718 1.719a.5.5 0 1 0 .708-.708l-1.719-1.718 1.719-1.718a.5.5 0 1 0-.708-.708l-1.718 1.719zm-32.416 34.81l-1.096 1.096a.5.5 0 0 1-.707-.707l1.097-1.097A2.503 2.503 0 0 1 56.418 33l1.269-1.269a.5.5 0 0 1 .707.707l-1.27 1.27a2.504 2.504 0 0 1-3.469 3.469zm1.383-.583a1.503 1.503 0 1 0 0-3.005 1.503 1.503 0 0 0 0 3.005zM24.035 14.267a.768.768 0 1 0-1.535.001.768.768 0 0 0 1.535-.001zm1 0a1.768 1.768 0 1 1-3.535 0 1.768 1.768 0 0 1 3.535 0zM57.5 66.5V66a.5.5 0 0 0-1 0v.5H56a.5.5 0 0 0 0 1h.5v.5a.5.5 0 0 0 1 0v-.5h.5a.5.5 0 0 0 0-1h-.5zM3.516 82.508a1.008 1.008 0 1 0-2.017 0 1.008 1.008 0 0 0 2.017 0zm1 0a2.008 2.008 0 1 1-4.016 0 2.008 2.008 0 0 1 4.016 0zm2.378-39.617a.5.5 0 0 1-.199-.2l-.902-1.649-.902 1.65a.5.5 0 0 1-.2.199l-1.649.902 1.65.902a.5.5 0 0 1 .199.2l.902 1.649.902-1.65a.5.5 0 0 1 .2-.199l1.649-.902-1.65-.902zm2.932.463a.5.5 0 0 1 0 .878l-2.324 1.27-1.27 2.324a.5.5 0 0 1-.878 0l-1.27-2.324-2.324-1.27a.5.5 0 0 1 0-.878l2.324-1.27 1.27-2.324a.5.5 0 0 1 .878 0l1.27 2.324 2.324 1.27z"/>
  </g>
</svg>
