<svg xmlns="http://www.w3.org/2000/svg" xmlns:xlink="http://www.w3.org/1999/xlink" width="251" height="138">
  <defs>
    <path id="a" d="M76.632 7H.977V.14h75.655z"/>
  </defs>
  <g fill="none" fill-rule="evenodd">
    <path stroke="#AFF4B0" stroke-linecap="round" stroke-linejoin="round" d="M50.416 27.997l-.576-1.87a.464.464 0 0 1 0-.276l.576-1.87a.47.47 0 0 0-.587-.588l-1.872.576a.464.464 0 0 1-.276 0l-1.87-.576a.47.47 0 0 0-.588.587l.576 1.87a.464.464 0 0 1 0 .276l-.576 1.87a.47.47 0 0 0 .588.588l1.87-.576a.464.464 0 0 1 .276 0l1.87.576a.47.47 0 0 0 .588-.588l.001.001zM84.425.5l4.144 4.144L84.425.5zm0 4.144L88.57.5l-4.145 4.144zM222.32 1.48a1.091 1.091 0 1 1 0 2.181 1.091 1.091 0 0 1 0-2.18V1.48zm-40.765 69.35l-.916-1.73a.467.467 0 0 0-.196-.197l-1.73-.915a.47.47 0 0 1 0-.83l1.73-.916a.464.464 0 0 0 .195-.195l.915-1.73a.47.47 0 0 1 .83 0l.916 1.73a.47.47 0 0 0 .196.195l1.73.916a.47.47 0 0 1 0 .83l-1.73.915a.472.472 0 0 0-.195.196l-.914 1.73a.47.47 0 0 1-.83 0l-.001.001zm28.34 34.72v5.86-5.86zm2.931 2.93h-5.86 5.86zM73.338 46.546l-1.59 1.59 1.59-1.59zm4.422-4.422l-1.59 1.59 1.59-1.59zM24.43 13.77a1.269 1.269 0 1 1-2.535 0 1.269 1.269 0 0 1 2.534 0h.001zM172.8 2.573a1.268 1.268 0 1 1-2.535.071 1.268 1.268 0 0 1 2.535-.071zm55.96 71.485l-.676-1.28-1.28-.677 1.28-.676.677-1.28.678 1.28 1.28.677-1.28.678-.679 1.278zm-70.593-32.432a1.09 1.09 0 1 0 0 2.18 1.09 1.09 0 0 0 0-2.18zM57.02 66.154v2.84-2.84zm1.42 1.42H55.6h2.84zM3.516 82.644a1.508 1.508 0 1 1-3.016 0 1.508 1.508 0 0 1 3.016 0zm21.602 22.926l-.677-1.28-1.28-.676 1.28-.678.678-1.28.677 1.28 1.28.678-1.28.677-.678 1.279zm6.078-47.603l.922-.284.923.284-.283-.923.284-.922-.922.283-.922-.283.284.922-.286.923zM7.142 42.295l2.452 1.34-2.452 1.342-1.34 2.452-1.342-2.453-2.452-1.34 2.452-1.342 1.34-2.452 1.342 2.453zm242.54.422l.785 2.682-2.68-.787-2.684.786.786-2.683-.787-2.683 2.683.787 2.68-.786-.783 2.684zM121.977 126.32v-1.26 1.26z"/>
    <path stroke="#AFF4B0" stroke-dasharray="2.519,3.358" stroke-linecap="round" stroke-linejoin="round" d="M121.977 121.703V70.487"/>
    <path stroke="#AFF4B0" stroke-linecap="round" stroke-linejoin="round" d="M121.977 68.808v-1.26m12.043-4.684l.867.913"/>
    <path stroke="#AFF4B0" stroke-dasharray="2.505,3.34" stroke-linecap="round" stroke-linejoin="round" d="M137.184 66.202l55.125 58.19"/>
    <path stroke="#AFF4B0" stroke-linecap="round" stroke-linejoin="round" d="M193.458 125.604l.865.914"/>
    <path fill="#AFF4B0" fill-opacity=".75" fill-rule="nonzero" d="M156.123 24.366c.215 6.063-4.525 11.152-10.588 11.368a10.978 10.978 0 0 1-9.988-5.638c-2.16.272-4.006.986-5.036 2.368-.524.703-.85.216-.762-.265.44-2.42 1.545-5.758 4.438-8.21.38-5.54 4.895-10.01 10.57-10.212 6.062-.216 11.152 4.526 11.367 10.588"/>
    <path fill="#F8F9F8" fill-rule="nonzero" d="M144.293 26.22c-.2-.652.17-1.35.82-1.55l.593-.18a.614.614 0 0 0 .41-.775l-.365-1.184a.614.614 0 0 0-.773-.41l-1.184.365a.612.612 0 0 0-.41.774l.182.59-2.37.73c-.545-1.777.685-4.1 2.462-4.646 1.777-.546 3.917.092 4.463 1.868.78 2.535-1.458 3.69-1.458 3.69l.364 1.184-2.37.728-.363-1.184h-.001zm.637 2.072l2.37-.728.727 2.37-2.368.726-.73-2.368h.001z"/>
    <path stroke="#AFF4B0" stroke-linecap="round" stroke-linejoin="round" d="M199.982 16.846c7.397 0 13.395 5.997 13.395 13.396 0 7.397-5.998 13.394-13.395 13.394-7.398 0-13.395-5.997-13.395-13.394 0-7.4 5.997-13.396 13.395-13.396zm8.064 7.378c.44-1.256.77-2.55.98-3.864l-.98 3.864z"/>
    <path stroke="#AFF4B0" stroke-linecap="round" stroke-linejoin="round" d="M199.66 35.37c2.298-1.61 4.273-3.67 5.824-6.005a23.64 23.64 0 0 0 1.225-2.07m-11.941 10.713a21.138 21.138 0 0 0 1.525-.653m-6.193 1.93a22.95 22.95 0 0 0 2.094-.44m-1.004-2.088c4.93-1.494 9.283-4.822 12.28-9.064m-15.858-2.083a22.808 22.808 0 0 0 3.584-2.686m1.252 2.516a22.67 22.67 0 0 0 5.518-6.786m4.187 24.719c2.914-1.348 5.49-3.378 7.578-5.81m.746-8.365c.083-.185.165-.37.243-.555M198.167 41.13c3.844-1.552 7.178-4.256 9.674-7.55a24.785 24.785 0 0 0 1.917-2.937m-15.644 11.642c.83-.14 1.65-.337 2.455-.584m13.293-7.596c1.436-2.1 2.49-4.423 3.174-6.87m-16.061 16.06a22.78 22.78 0 0 0 6.687-3.05M201.25 24.84a22.836 22.836 0 0 0 3.11-7.26m-6.597 11.43c.46-.437.904-.892 1.325-1.366M187.32 34.62c.935-.22 1.855-.5 2.755-.835m11.241-15.079a23.02 23.02 0 0 0 .604-1.72m-5.86 9.63c1.627-1.532 3.09-3.283 4.04-5.32m-6.475 7.404c.367-.292.73-.588 1.088-.89m-7.986 4.37a22.83 22.83 0 0 0 5.27-2.38m-2.747-2c-.84.5-1.714.936-2.615 1.312"/>
    <path fill="#F8F9F8" fill-rule="nonzero" d="M96.105 81.374c-3.53-2.245-4.444-6.952-4.444-6.952s-1.076 3.402-4.455 4.376l.585 1.892 4.266 1.125 4.05-.44-.002-.001z"/>
    <path stroke="#AFF4B0" stroke-linecap="round" stroke-linejoin="round" d="M96.105 81.374c-3.53-2.245-4.444-6.952-4.444-6.952s-1.076 3.402-4.455 4.376l.585 1.892 4.266 1.125 4.05-.44-.002-.001z"/>
    <path fill="#F8F9F8" fill-rule="nonzero" d="M83.826 79.77s-1.825-1.64-.974-5.224c0 0 5.365 7.71 13.253 6.83 0 0-4.827 2.81-12.28-1.605"/>
    <path stroke="#AFF4B0" stroke-linecap="round" stroke-linejoin="round" d="M83.826 79.77s-1.825-1.64-.974-5.224c0 0 5.365 7.71 13.253 6.83 0 0-4.827 2.81-12.28-1.605l.001-.001z"/>
    <path fill="#F5F5F5" fill-rule="nonzero" d="M62.09 98.41c3.07-.26 5.55 2.53 5.55 2.53s.6-3.4-1.856-4.32l-4.597-.6.902 2.39h.001z"/>
    <path stroke="#AFF4B0" stroke-linecap="round" stroke-linejoin="round" d="M62.09 98.41c3.07-.26 5.55 2.53 5.55 2.53s.6-3.4-1.856-4.32l-4.597-.6.902 2.39h.001z"/>
    <path fill="#F5F5F5" fill-rule="nonzero" d="M53.85 97.865s3.967.01 6.787 2.926c0 0 2.047-4.83 5.147-4.17 0 0-9.942-4.61-11.934 1.245"/>
    <path stroke="#AFF4B0" stroke-linecap="round" stroke-linejoin="round" d="M53.85 97.865s3.967.01 6.787 2.926c0 0 2.047-4.83 5.147-4.17 0 0-9.942-4.61-11.934 1.245v-.001z"/>
    <path fill="#E7F5E7" fill-rule="nonzero" d="M113.295 132.812c0 1.895-12.916 3.43-28.847 3.43-15.932 0-28.847-1.535-28.847-3.43 0-1.895 12.916-3.43 28.848-3.43 15.93 0 28.847 1.535 28.847 3.43"/>
    <g transform="translate(121 130.145)">
      <mask id="b" fill="#fff">
        <use xlink:href="#a"/>
      </mask>
      <path fill="#E7F5E7" fill-rule="nonzero" d="M76.632 3.57C76.632 5.464 59.696 7 38.804 7 17.914 7 .977 5.464.977 3.57.977 1.675 17.913.14 38.804.14c20.892 0 37.828 1.535 37.828 3.43" mask="url(#b)"/>
    </g>
    <path fill="#F8F9F8" fill-rule="nonzero" d="M76.865 131.29c-2.263.485-7.004 2.425-7.004 2.425l-5.817-2.802c-.27-4.634-1.51-18.48-1.51-18.48s9.322 2.048 13.578.486c0 0 3.45 1.776 7.597 1.83 0 0-.754 1.886-.7 2.587 0 0 1.616.484 2.424.484l-.538-5.763.54-.324-1.025-.27s3.987-1.292 6.25-3.61c0 0 6.52-.538 14.06-4.2 0 0-.915 2.532-3.34 4.955l3.61.81-1.616 22.788-5.548 2.37s-3.986-1.724-7.435-2.37l-4.47 2.64s-2.964-1.454-9.052-2.586v-.97h-.004z"/>
    <path stroke="#AFF4B0" stroke-linecap="round" stroke-linejoin="round" d="M76.865 131.29c-2.263.485-7.004 2.425-7.004 2.425l-5.817-2.802c-.27-4.634-1.51-18.48-1.51-18.48s9.322 2.048 13.578.486c0 0 3.45 1.776 7.597 1.83 0 0-.754 1.886-.7 2.587 0 0 1.616.484 2.424.484l-.538-5.763.54-.324-1.025-.27s3.987-1.292 6.25-3.61c0 0 6.52-.538 14.06-4.2 0 0-.915 2.532-3.34 4.955l3.61.81-1.616 22.788-5.548 2.37s-3.986-1.724-7.435-2.37l-4.47 2.64s-2.964-1.454-9.052-2.586v-.97h-.004z"/>
    <path stroke="#AFF4B0" stroke-linecap="round" stroke-linejoin="round" d="M62.534 112.434s3.664 4.04 7.058 5.118c0 0 8.134.593 14.115-2.8"/>
    <path stroke="#AFF4B0" stroke-linecap="round" stroke-linejoin="round" d="M69.86 133.715l-.268-7.813-.808.54s-2.21-1.186-3.448-4.15c0 0 2.21 1.564 3.986 1.617l.27-6.358m35.395-8.134l-6.43 3.513-7.492-1.032m6.757 22.679s.62-13.45.736-21.646m-5.738 1.814c2.87-.117 5.684.995 5.684.995s2.512-2.224 4.152-2.224m1.704 4.742l-2.348.99"/>
    <path stroke="#AFF4B0" stroke-linecap="round" stroke-linejoin="round" d="M103.67 127.97l-3.298 1.412m-7.552-3.749s3.772 1.056 5.37 1.76l.836-.353m-8.639 5.167l1.203-12.66-5.093 2.635-.582 12.665M79.43 119.25l-3.647 2.462s3.747-.292 10.714.47m5.093-2.636l-1-.297M76.865 131.29s-.263-6.71-1.082-9.578"/>
    <path stroke="#AFF4B0" stroke-linecap="round" stroke-linejoin="round" d="M69.592 125.903s3.538-2.158 6.533-2.618c0 0-3.953-.34-6.803.625m-4.664-5.652s3.802 1.4 4.8 2.457c0 0 3.046-1.11 5.036-1.17m-11.241.262s1.405.295 2.634.997m2.987 7.583l.813.29s1.997-.876 3.52-.934m-9.315.933s2.138.882 3.706 1.468m8.726-5.526s2.503-.036 4.436.315m1.346 4.477s2.49-.027 4.025.734c0 0 .953-.823 3.12-1.524m1.895-4.4s-.902.537-1.78 1.063m1.172 5.335s-1.758.697-2.52 1.458m-11.184-1.458s1.056.005 2.285.438"/>
    <path fill="#F5F5F5" fill-rule="nonzero" d="M92.82 120.715s4.333.295 6.206 2.227c0 0 1.13-1.58 2.06-2.636l-2.74.908s-2.833-.794-5.526-.5"/>
    <path stroke="#AFF4B0" stroke-linecap="round" stroke-linejoin="round" d="M92.82 120.715s4.333.295 6.206 2.227c0 0 1.13-1.58 2.06-2.636l-2.74.908s-2.833-.794-5.526-.5v.001zm-9.814-3.378s-3.067.174-5.702.255c0 0 2.644 2.95 8.61 4.12 0 0 2.75-1.526 5.676-2.958 0 0-2.893-.198-6.16-.933l-2.424-.484zm18.371-8.727s-1.005 1.218-1.24 1.394c0 0-6.756 2.758-14.707 1.73m46.12-64.124l-17.553 6.83-2.96-7.605a9.418 9.418 0 0 1 5.363-12.192c4.847-1.887 10.305.515 12.192 5.362l2.96 7.605h-.002zm-17.42-.475c-2.102-4.44-.115-9.086 4.534-10.31l-4.534 10.31z"/>
    <path stroke="#AFF4B0" stroke-linecap="round" stroke-linejoin="round" d="M135.428 50.85l-22.1 8.598-1.604-4.123 22.1-8.6 1.604 4.125zm-2.643-1.347l-9.914 3.857 9.914-3.857zm-1.191 5.743L119.127 60.1l-1.622-2.275 13.747-5.348.342 2.769zm-9.744 6.356l-.473-2.38.473 2.38zm10.655-2.94a1.384 1.384 0 1 1-2.366 1.438 1.384 1.384 0 0 1 2.365-1.437l.001-.001zm-1.902-.465l-1.26-2.074 1.26 2.074z"/>
  </g>
</svg>
