<svg xmlns="http://www.w3.org/2000/svg" width="276" height="131" viewBox="0 0 276 131">
  <g fill="none" fill-rule="evenodd">
    <path stroke="#AFF4B0" d="M71.472 75.187l-18.368-4.17 1.806-7.958c1.152-5.073 6.198-8.252 11.27-7.1 5.072 1.152 8.25 6.197 7.1 11.27l-1.808 7.957v.001zM57.306 65.04c.745-4.857 4.99-7.593 9.527-6.003l-9.527 6.003zm15.564 15l-23.124-5.248.98-4.314 23.124 5.25-.98 4.312zm-1.435-2.593L61.06 75.092l10.375 2.355zm-4.203 4.093l-13.046-2.963-.07-2.793 14.386 3.266-1.27 2.49zM56.34 83.162c-.142155.338417-.412924.606503-.75274.74528-.339816.138777-.720844.136878-1.05926-.00528-.338844-.141934-.607295-.412852-.746123-.75298-.138828-.34013-.136625-.721518.006123-1.06002.318315-.66818 1.105452-.968364 1.78786-.68182.68241.28654 1.019276 1.058692.76514 1.75382l-.001.001zm-.74-1.812l.94-2.238-.94 2.238zm9.16 2.078l.117-2.424-.117 2.424z" stroke-linecap="round" stroke-linejoin="round"/>
    <path fill="#AFF4B0" fill-opacity=".75" fill-rule="nonzero" d="M93.61 42.55c.215 6.063-4.526 11.153-10.59 11.368-4.123963.146668-7.981944-2.031293-9.987-5.638-2.16.273-4.005.987-5.037 2.37-.523.7-.85.215-.76-.267.438-2.418 1.543-5.756 4.436-8.207.38-5.542 4.895-10.013 10.57-10.214 6.06-.215 11.15 4.526 11.367 10.59"/>
    <path fill="#F8F9F8" fill-rule="nonzero" d="M81.78 44.404c-.2-.65.168-1.348.82-1.55l.59-.18c.158242-.046767.290948-.155355.36811-.30121.077162-.145855.092264-.31666.04189-.47379l-.362-1.185c-.04702-.15785-.15549-.29019-.301034-.367286-.145545-.077098-.315963-.092488-.472966-.042714l-1.185.364c-.157776.0468-.290108.155073-.36722.300458-.077113.145386-.09253.315672-.04278.472542l.18.593-2.368.727c-.546-1.776.685-4.098 2.46-4.645 1.778-.546 3.918.093 4.464 1.87.78 2.533-1.458 3.687-1.458 3.687l.364 1.185-2.37.73-.363-1.186.002.002zm.637 2.072l2.368-.727.728 2.367-2.37.728-.726-2.37v.002z"/>
    <path stroke="#AFF4B0" stroke-width="1.186" d="M261.727 36.052c.020264 1.13571-.574032 2.193928-1.554346 2.767713-.980315.573785-2.193993.573785-3.174308 0-.980314-.573785-1.57461-1.632004-1.554346-2.767713.030566-1.713156 1.428072-3.08595 3.1415-3.08595 1.713428 0 3.110934 1.372794 3.1415 3.08595zM24.49 82.815c0 .832845-.675155 1.508-1.508 1.508-.832845 0-1.508-.675155-1.508-1.508.021056-.81745.68978-1.46917 1.5075-1.46917.81772 0 1.486444.65172 1.5075 1.46917h.001zM230.02 72.61l-.915-1.73c-.043718-.083777-.111674-.15243-.195-.197l-1.73-.916c-.153463-.081585-.249376-.2412-.249376-.415 0-.1738.095913-.333415.249376-.415l1.73-.914c.08344-.044418.151435-.113112.195-.197l.916-1.73c.081585-.153463.2412-.249376.415-.249376.1738 0 .333415.095913.415.249376l.916 1.73c.045.085.112.152.196.197l1.73.915c.153463.081585.249376.2412.249376.415 0 .1738-.095913.333415-.249376.415l-1.73.915c-.083438.044758-.151667.113336-.196.197l-.915 1.73c-.081585.153463-.2412.249376-.415.249376-.1738 0-.333415-.095913-.415-.249376h-.002zm-78.482-44.558l.576-1.87c.027995-.08987.027995-.18613 0-.276l-.576-1.87c-.051384-.166373-.006575-.34752.116447-.470752.123022-.12323.304093-.16835.470553-.117248l1.87.576c.09.027.187.027.277 0l1.87-.576c.36-.11.7.226.587.587l-.577 1.87c-.02722.090327-.02722.186673 0 .277l.576 1.87c.05159.166594.006694.348057-.116624.471376-.12332.123318-.304783.168215-.471376.116624l-1.87-.576c-.090058-.02899-.186942-.02899-.277 0l-1.87.576c-.16646.0511-.34753.005983-.470553-.117248-.123022-.12323-.16783-.30438-.116447-.470752h.002zm99.957 82.828v5.86-5.86zm2.93 2.93h-5.86 5.86zM119.414 41.75l-4.145 4.146 4.145-4.146zm0 4.146l-4.145-4.145 4.145 4.145zM270.317 84.23l-1.59 1.59 1.59-1.59zm4.423-4.42l-1.59 1.59 1.59-1.59zm-84.098 49.12c0 .700297-.567703 1.268-1.268 1.268-.700297 0-1.268-.567703-1.268-1.268 0-.700297.567703-1.268 1.268-1.268.700297 0 1.268.567703 1.268 1.268zm11.178-46.115c0 .700573-.567927 1.2685-1.2685 1.2685s-1.2685-.567927-1.2685-1.2685c0-.700297.567703-1.268 1.268-1.268.700297 0 1.268.567703 1.268 1.268h.001zM39.2 120.654l-.677-1.28-1.28-.677 1.28-.677.677-1.28.678 1.28 1.28.677-1.28.678-.678 1.279zM99.312 4.506l-.677-1.28-1.28-.676 1.28-.678.677-1.28.677 1.28 1.28.678-1.28.677-.677 1.279zm118.648 6.577c-.60282 0-1.0915.48868-1.0915 1.0915 0 .60282.48868 1.0915 1.0915 1.0915.60282 0 1.0915-.48868 1.0915-1.0915 0-.60282-.48868-1.0915-1.0915-1.0915zm-138.104 97.65c-.60199-.000552-1.090448.48701-1.091 1.089-.000552.60199.48701 1.090448 1.089 1.091.60199.000552 1.090448-.48701 1.091-1.089.000552-.60199-.48701-1.090448-1.089-1.091zm139.524-1.42v2.84-2.84zm1.42 1.42h-2.84 2.84zM2.274 55.948l.924-.284.922.284-.283-.923.284-.923-.922.284-.924-.284.285.923-.286.923zM36.748 20.91l2.452 1.34-2.452 1.342-1.34 2.45-1.342-2.45-2.452-1.342 2.452-1.34 1.34-2.453 1.342 2.453zM4.17 109.823l.787 2.682-2.682-.786-2.682.785.785-2.682-.785-2.683 2.682.787 2.682-.787-.787 2.684z" stroke-linecap="round" stroke-linejoin="round"/>
    <path stroke="#AFF4B0" d="M209.77 53.134c.075-.17.144-.342.21-.515l.04-.094c.077107-.20317.14913-.408234.216-.615.05-.15.096-.304.14-.458l.046-.16c.04-.15.077-.298.113-.447.014-.06.03-.118.042-.177.032-.146.06-.292.09-.438.01-.063.023-.125.034-.19.025-.142.048-.287.068-.43.040986-.273355.07101-.548242.09-.824.01-.143.02-.286.026-.428l.007-.2c.005-.142.008-.284.008-.425 0-.068-.002-.135-.003-.202-.001513-.14106-.005514-.28208-.012-.423-.004-.066-.01-.13-.012-.197-.008-.142-.018-.285-.03-.427l-.02-.185c-.018-.145-.033-.29-.054-.435-.029698-.205907-.063037-.411272-.1-.616-.008-.037-.017-.073-.024-.11-.108-.548-.25-1.09-.424-1.62-.005-.015-.01-.03-.014-.047-.043-.128-.09-.253-.137-.38-.026-.07-.05-.143-.077-.213-.044-.112-.09-.223-.138-.335-.034-.082-.067-.165-.103-.246-.047-.105-.097-.208-.146-.31-.04-.088-.08-.176-.124-.262-.05-.1-.1-.195-.152-.293-.047-.088-.094-.177-.143-.265-.103612-.18417-.210967-.366207-.322-.546l-.17-.268c-.06-.09-.118-.177-.18-.265-.058523-.086033-.118532-.171046-.18-.255-.063-.088-.127-.176-.194-.262-.128287-.170642-.26168-.337384-.4-.5-.201856-.243333-.413705-.4782-.635-.704-.151014-.153337-.304365-.304355-.46-.453-.087-.08-.177-.16-.266-.24-.074-.063-.146-.13-.22-.192-.094-.08-.19-.157-.287-.234-.074-.06-.147-.12-.223-.177-.103408-.080567-.208773-.15859-.316-.234-.072-.053-.143-.106-.216-.157-.12179-.084297-.245145-.166312-.37-.246l-.187-.122c-.188-.118-.382-.233-.58-.343-.314-.175-.632-.33-.953-.478-.04-.018-.08-.04-.12-.056l-.06-.03.007.01c-.318-.14-.64-.27-.963-.386h.005l-.325-1.308c-2.684-1.19-5.75-.44-5.75-.44l-.656 1.178.002.002c-4.02612.681516-7.524336 3.1558-9.508 6.725-1.466613 2.626186-2.007267 5.669348-1.535 8.64l-.456.818s.172 1.99.934 3.114l.926.284c.803455 1.515477 1.889683 2.863077 3.2 3.97-.006-.003-.014-.005-.02-.01.047.042.1.076.15.116.234.195.477.38.727.56.087.062.173.126.263.187.33.226.672.443 1.03.642.283.156.57.3.86.435l.196.09c.286.128.573.247.863.354.04.014.08.025.12.04.264.095.53.18.8.257.06.017.12.036.182.052.293.08.587.15.883.208.057.012.116.02.174.033.268.05.537.092.807.127l.14.017c.298.034.598.057.897.07l.193.007c.294.01.59.013.882.003h.034c.303-.01.606-.036.907-.067l.19-.022c.3-.035.6-.078.895-.133.022-.003.043-.008.065-.013.337212-.06471.671795-.142435 1.003-.233.29-.08.577-.166.86-.265l.126-.046c.26-.094.52-.195.777-.305l.117-.05c.277-.122.55-.252.82-.393l.142-.077c.26-.14.516-.286.767-.443l.038-.023c.309798-.19666.6117-.40549.905-.626.25-.187.495-.38.732-.587l1.32.484c2.008-1.696 2.99-4.142 2.99-4.142l-.79-1.128h-.002l-.002.003z" stroke-linecap="round" stroke-linejoin="round"/>
    <path stroke="#AFF4B0" d="M192.206 59.918c-.02-1.187 1.187-2.168 2.695-2.193 1.51-.025 2.747.918 2.767 2.104l-5.462.089zm11.43-5.388c-.472.21-.9.223-1.134-.012-.395-.394-.088-1.342.687-2.117.773-.773 1.72-1.08 2.116-.685.197.197.22.533.095.917l-1.764 1.897zm1.921-11.14c.20635 1.109066-.295406 2.23005-1.26 2.815l1.26-2.815zm-3.531 3.067c-1.007017-.342666-1.720442-1.24278-1.824105-2.301438-.103664-1.058658.421607-2.080065 1.343026-2.611562.92142-.531497 2.068577-.474786 2.93308.145l-2.452 4.768zm-13.432 6.868c.082-.54.453-.986.977-1.104.7-.154 1.402.34 1.573 1.102.17.764-.26 1.51-.956 1.664-.34269.073636-.70054-.001204-.985-.206l-.609-1.456zm19.728-5.265c-.37.1-.784-.242-.922-.76-.14-.518.05-1.018.422-1.117l.5 1.877zm-18.332-5.047c-.68.68-1.563.897-1.975.486-.41-.412-.192-1.296.487-1.975.68-.68 1.563-.897 1.974-.487.41.412.194 1.295-.486 1.975v.001zm3.405 3.554c.914326-.9154 2.290137-1.189695 3.48561-.694926 1.19547.49477 1.975044 1.661114 1.975044 2.954926s-.779574 2.460156-1.975045 2.954926c-1.195474.49477-2.571285.220474-3.48561-.694926v-4.52zm-.937 2.26c0-.19.017-.38.05-.568l-.05.568zm7.032-12.83c-.703874.550236-1.720338.426757-2.272-.276l2.272.276zm-50.448 27.46l-1.223.297 1.223-.297z" stroke-linecap="round" stroke-linejoin="round"/>
    <path stroke="#AFF4B0" d="M144.584 64.54l-26.69 6.476" stroke-linecap="round" stroke-linejoin="round" stroke-dasharray="2.497,3.329"/>
    <path stroke="#AFF4B0" d="M116.49 71.86c-.25.3-.424.688-.352 1.172m39.427-4.66l-1.82-1.562-1.245.19" stroke-linecap="round" stroke-linejoin="round"/>
    <path stroke="#AFF4B0" d="M149.142 67.518l-21.83 3.356" stroke-linecap="round" stroke-linejoin="round" stroke-dasharray="2.548,3.398"/>
    <path stroke="#AFF4B0" d="M125.634 71.132l-1.244.19c.394-.09.803-.186 1.222-.285" stroke-linecap="round" stroke-linejoin="round"/>
    <path stroke="#AFF4B0" d="M128.633 70.323c6.85-1.625 15.354-3.685 19.632-4.724" stroke-linecap="round" stroke-linejoin="round" stroke-dasharray="2.329,3.105"/>
    <path stroke="#AFF4B0" d="M149.774 65.234l1.22-.297-1.952-1.48m13.824 50.839l1.243-.198-.23-1.24" stroke-linecap="round" stroke-linejoin="round"/>
    <path stroke="#AFF4B0" d="M163.268 109.583l-7.172-38.505" stroke-linecap="round" stroke-linejoin="round" stroke-dasharray="2.5,3.333"/>
    <path stroke="#AFF4B0" d="M155.79 69.44l-.23-1.237-1.245.182" stroke-linecap="round" stroke-linejoin="round"/>
    <path stroke="#AFF4B0" d="M151.122 68.854L119.19 73.54" stroke-linecap="round" stroke-linejoin="round" stroke-dasharray="2.421,3.227"/>
    <path stroke="#AFF4B0" d="M117.593 73.774l-1.245.183.224 1.234" stroke-linecap="round" stroke-linejoin="round"/>
    <path stroke="#AFF4B0" d="M117.188 78.504c1.916 10.253 5.914 31.257 7.377 38.932" stroke-linecap="round" stroke-linejoin="round" stroke-dasharray="2.529,3.372"/>
    <path stroke="#AFF4B0" d="M124.88 119.092c.15.794.235 1.233.235 1.233l1.243-.198" stroke-linecap="round" stroke-linejoin="round"/>
    <path stroke="#AFF4B0" d="M129.532 119.62l31.746-5.07" stroke-linecap="round" stroke-linejoin="round" stroke-dasharray="2.411,3.215"/>
    <path stroke="#AFF4B0" d="M123.263 72.942l.245 1.234" stroke-linecap="round" stroke-linejoin="round"/>
    <path stroke="#AFF4B0" d="M124.15 77.41l7.553 38.022" stroke-linecap="round" stroke-linejoin="round" stroke-dasharray="2.474,3.299"/>
    <path stroke="#AFF4B0" d="M132.024 117.05l.245 1.235m-2.246 1.255v1.26" stroke-linecap="round" stroke-linejoin="round"/>
    <path stroke="#AFF4B0" d="M130.023 122.837v2.547" stroke-linecap="round" stroke-linejoin="round" stroke-dasharray="1.528,2.037"/>
    <path stroke="#AFF4B0" d="M130.023 126.403v1.26l.975-.8m3.01-2.463l.974-.798.976.793m3.042 2.472l.978.794v-1.258" stroke-linecap="round" stroke-linejoin="round"/>
    <path stroke="#AFF4B0" d="M139.978 123.787v-3.27" stroke-linecap="round" stroke-linejoin="round" stroke-dasharray="1.962,2.615"/>
    <path stroke="#AFF4B0" d="M139.978 119.21v-1.26m-19.32-21.052c-8.824 5.9-14.05 11.197-12.824 13.636 1.86 3.702 17.87-.582 35.76-9.568 17.89-8.985 30.886-19.27 29.028-22.97-1.076-2.143-6.888-1.612-15.06.957" stroke-linecap="round" stroke-linejoin="round"/>
  </g>
</svg>
