<svg xmlns="http://www.w3.org/2000/svg" width="379" height="177">
  <g fill="none" fill-rule="evenodd">
    <path fill="#F7F8F9" fill-rule="nonzero" d="M197.32 102.94c-4.942-3.055-6.222-9.461-6.222-9.461s-1.508 4.63-6.239 5.955l.82 2.576 5.972 1.53 5.67-.6h-.001z"/>
    <path stroke="#AFF4B0" stroke-linecap="round" stroke-linejoin="round" d="M197.32 102.94c-4.942-3.055-6.222-9.461-6.222-9.461s-1.508 4.63-6.239 5.955l.82 2.576 5.972 1.53 5.67-.6h-.001z"/>
    <path fill="#F7F8F9" fill-rule="nonzero" d="M180.128 100.758s-2.555-2.233-1.364-7.111c0 0 7.512 10.492 18.556 9.294 0 0-6.758 3.825-17.192-2.183"/>
    <path stroke="#AFF4B0" stroke-linecap="round" stroke-linejoin="round" d="M180.128 100.758s-2.555-2.233-1.364-7.111c0 0 7.512 10.492 18.556 9.294 0 0-6.758 3.825-17.192-2.183z"/>
    <path fill="#F7F8F9" fill-rule="nonzero" d="M151.694 125.297c4.3-.344 7.773 3.36 7.773 3.36s.84-4.515-2.6-5.733l-6.436-.798 1.263 3.17v.001z"/>
    <path stroke="#AFF4B0" stroke-linecap="round" stroke-linejoin="round" d="M151.694 125.297c4.3-.344 7.773 3.36 7.773 3.36s.84-4.515-2.6-5.733l-6.436-.798 1.263 3.17v.001z"/>
    <path fill="#F7F8F9" fill-rule="nonzero" d="M140.158 124.575s5.554.012 9.503 3.883c0 0 2.866-6.41 7.206-5.534 0 0-13.92-6.12-16.709 1.65"/>
    <path stroke="#AFF4B0" stroke-linecap="round" stroke-linejoin="round" d="M140.158 124.575s5.554.012 9.503 3.883c0 0 2.866-6.41 7.206-5.534 0 0-13.92-6.12-16.709 1.65v.001z"/>
    <path fill="#E6F5E6" fill-rule="nonzero" d="M219.598 172.051c0 2.566-17.221 4.644-38.463 4.644-21.243 0-38.464-2.078-38.464-4.644 0-2.566 17.22-4.646 38.464-4.646 21.242 0 38.463 2.08 38.463 4.646"/>
    <path fill="#F8F9F8" fill-rule="nonzero" d="M171.024 169.99c-3.018.657-9.34 3.284-9.34 3.284l-7.757-3.794c-.359-6.275-2.012-25.022-2.012-25.022s12.428 2.772 18.103.657c0 0 4.598 2.406 10.128 2.48 0 0-1.005 2.553-.933 3.502 0 0 2.155.655 3.232.655l-.719-7.804.72-.44-1.366-.363s5.316-1.751 8.333-4.889c0 0 8.692-.73 18.749-5.69 0 0-1.222 3.43-4.454 6.711l4.814 1.096-2.156 30.858-7.4 3.21s-5.314-2.335-9.913-3.21l-5.961 3.575s-3.951-1.969-12.068-3.502v-1.314z"/>
    <path stroke="#AFF4B0" stroke-linecap="round" stroke-linejoin="round" d="M171.024 169.99c-3.018.657-9.34 3.284-9.34 3.284l-7.757-3.794c-.359-6.275-2.012-25.022-2.012-25.022s12.428 2.772 18.103.657c0 0 4.598 2.406 10.128 2.48 0 0-1.005 2.553-.933 3.502 0 0 2.155.655 3.232.655l-.719-7.804.72-.44-1.366-.363s5.316-1.751 8.333-4.889c0 0 8.692-.73 18.749-5.69 0 0-1.222 3.43-4.454 6.711l4.814 1.096-2.156 30.858-7.4 3.21s-5.314-2.335-9.913-3.21l-5.961 3.575s-3.951-1.969-12.068-3.502v-1.314z"/>
    <path stroke="#AFF4B0" stroke-linecap="round" stroke-linejoin="round" d="M206.767 165.495l-4.4 1.912m-41.998-1.347l1.084.39s2.663-1.184 4.693-1.263m-12.42 1.263s2.851 1.195 4.942 1.989m19.344-.995s3.319-.037 5.367.994c0 0 1.27-1.115 4.157-2.064m1.719 2.706s-2.344.943-3.359 1.974m-14.914-1.974s1.41.006 3.048.593m-22.114-25.216s4.885 5.472 9.41 6.93c0 0 10.846.804 18.82-3.792"/>
    <path stroke="#AFF4B0" stroke-linecap="round" stroke-linejoin="round" d="M161.685 173.274l-.359-10.58-1.077.732s-2.946-1.606-4.598-5.618c0 0 2.946 2.116 5.315 2.188l.36-8.608m47.195-11.015l-8.573 4.757-9.99-1.398m9.009 30.708s.825-18.21.981-29.31m-7.65 2.457c3.826-.158 7.579 1.348 7.579 1.348s3.35-3.012 5.536-3.012"/>
    <path stroke="#AFF4B0" stroke-linecap="round" stroke-linejoin="round" d="M207.685 152.344l-3.13 1.342m-12.257 8.644s5.03 1.43 7.16 2.382l1.115-.476m-11.519 6.995l1.604-17.143-6.79 3.568-.777 17.15m-8.646-21.12l-4.864 3.335s4.996-.395 14.286.635m6.791-3.568l-1.332-.402m-18.302 16.304s-.351-9.084-1.443-12.969"/>
    <path stroke="#AFF4B0" stroke-linecap="round" stroke-linejoin="round" d="M161.326 162.695s4.718-2.922 8.711-3.545c0 0-5.27-.46-9.07.847m-6.219-7.653s5.07 1.897 6.399 3.327c0 0 4.062-1.503 6.716-1.583m-14.988.353s1.873.4 3.512 1.35m13.915 5.164s3.338-.049 5.915.427m13.849-.964s-1.203.726-2.374 1.438"/>
    <path fill="#F7F8F9" fill-rule="nonzero" d="M192.298 155.671s5.778.4 8.275 3.016c0 0 1.508-2.141 2.745-3.57l-3.65 1.23s-3.78-1.076-7.37-.676"/>
    <path stroke="#AFF4B0" stroke-linecap="round" stroke-linejoin="round" d="M192.298 155.671s5.778.4 8.275 3.016c0 0 1.508-2.141 2.745-3.57l-3.65 1.23s-3.78-1.076-7.37-.676zm-13.085-4.574s-4.09.236-7.603.345c0 0 3.525 3.993 11.481 5.58 0 0 3.664-2.067 7.567-4.006 0 0-3.857-.268-8.213-1.264l-3.232-.655z"/>
    <path fill="#F7F8F9" fill-rule="nonzero" d="M203.708 139.278s-1.34 1.65-1.652 1.889c0 0-9.01 3.734-19.611 2.342"/>
    <path stroke="#AFF4B0" stroke-linecap="round" stroke-linejoin="round" d="M203.708 139.278s-1.34 1.65-1.652 1.889c0 0-9.01 3.734-19.611 2.342"/>
    <g stroke="#AFF4B0" stroke-linecap="round" stroke-linejoin="round">
      <path stroke-dasharray="2.519,3.358" d="M136.408 165.104v-96.18"/>
      <path d="M136.408 65.77v-2.365m22.506-8.799l1.616 1.715"/>
      <path stroke-dasharray="2.505,3.34" d="M164.822 60.874l103.005 109.28"/>
      <path d="M136.408 173.775v-2.364m133.566 1.02l1.618 1.717"/>
    </g>
    <path stroke="#AFF4B0" stroke-linecap="round" stroke-linejoin="round" d="M154.625 26.459l-33.393 12.697-5.629-14.138c-3.588-9.011.978-19.16 10.2-22.666 9.22-3.508 19.603.957 23.193 9.968l5.629 14.139zm-33.137-.882c-4-8.257-.22-16.892 8.623-19.166l-8.623 19.166zM162 32.48l-42.04 15.987-3.052-7.665 42.04-15.986L162 32.48zm-5.027-2.501l-18.86 7.17 18.86-7.17zm-2.267 10.677l-23.716 9.02-3.085-4.23 26.15-9.943.651 5.153zM139.27 54.494c.284 1.396-.642 2.75-2.069 3.028-1.427.277-2.813-.626-3.099-2.022-.283-1.395.643-2.75 2.07-3.029 1.427-.277 2.815.629 3.099 2.023h-.001zm-3.098-2.022l-.902-4.425.902 4.425zm20.268-5.465c.756 1.214.36 2.798-.884 3.536s-2.865.351-3.62-.865c-.755-1.216-.358-2.798.886-3.538 1.242-.736 2.865-.349 3.618.867zm-3.618-.867l-2.395-3.855 2.395 3.855zm-78.704-6.074l-.847-2.758a.686.686 0 0 1 0-.406l.847-2.76a.692.692 0 0 0-.863-.865l-2.751.85a.68.68 0 0 1-.406 0l-2.749-.85a.692.692 0 0 0-.864.866l.846 2.759a.686.686 0 0 1 0 .406l-.846 2.758a.693.693 0 0 0 .864.867l2.75-.85a.68.68 0 0 1 .405 0l2.75.85a.692.692 0 0 0 .864-.867zm121.997-23.542l6.092 6.11m-6.092 0l6.092-6.11M336.838.97c.887 0 1.604.72 1.604 1.61 0 .887-.717 1.608-1.604 1.608a1.606 1.606 0 0 1-1.604-1.608c0-.89.718-1.61 1.604-1.61zm-59.93 102.25l-1.347-2.55a.687.687 0 0 0-.287-.289l-2.543-1.349a.693.693 0 0 1 0-1.224l2.543-1.35a.684.684 0 0 0 .287-.288l1.347-2.55a.69.69 0 0 1 1.221 0l1.346 2.55a.692.692 0 0 0 .286.288l2.544 1.35c.49.26.49.963 0 1.224l-2.544 1.35a.695.695 0 0 0-.286.288l-1.346 2.55a.69.69 0 0 1-1.221 0zm41.663 51.193v8.64-8.64zm4.309 4.32h-8.617 8.617zM87.815 67.417l-2.337 2.344 2.337-2.344zm6.501-6.52L91.98 63.24l2.336-2.343zm-6.501 6.52a2.94 2.94 0 0 0 4.164 0 2.959 2.959 0 0 0 0-4.176 2.938 2.938 0 0 0-4.164 0 2.959 2.959 0 0 0 0 4.176zM35.913 19.09a1.866 1.866 0 0 1-1.864 1.869 1.866 1.866 0 0 1-1.863-1.87c0-1.03.834-1.868 1.863-1.868 1.03 0 1.864.838 1.864 1.868v.001zM264.036 2.58c0 1.03-.833 1.868-1.864 1.868a1.867 1.867 0 0 1-1.862-1.868c0-1.033.835-1.87 1.862-1.87 1.03 0 1.864.837 1.864 1.87zm82.27 105.401l-.995-1.887-1.882-.998 1.882-.998.995-1.888.996 1.888 1.881.998-1.881.998-.996 1.887zM242.525 60.162c-.887 0-1.604.72-1.604 1.609 0 .888.718 1.609 1.604 1.609.886 0 1.604-.721 1.604-1.609 0-.89-.718-1.609-1.604-1.609zM83.826 96.327v4.186-4.186zm2.086 2.093H81.74h4.172zM5.168 120.64a2.22 2.22 0 0 1-2.217 2.224 2.22 2.22 0 0 1-2.217-2.223c0-1.227.994-2.224 2.217-2.224a2.22 2.22 0 0 1 2.217 2.224v-.001zm31.759 33.805l-.996-1.887-1.881-.998 1.881-1 .996-1.886.995 1.886 1.882 1-1.882.998-.995 1.887zm8.935-70.189l1.355-.419 1.357.42-.418-1.362.418-1.36-1.357.418-1.355-.417.417 1.36-.417 1.36zM10.5 61.149l3.604 1.977-3.604 1.977-1.972 3.615-1.971-3.615-3.605-1.977 3.605-1.977 1.971-3.616 1.972 3.616zm366.562.621l1.154 3.955-3.942-1.159-3.944 1.16 1.156-3.955-1.156-3.956 3.944 1.16 3.942-1.16-1.154 3.955zm-73.065-38.145c10.875 0 19.693 8.842 19.693 19.752 0 10.906-8.818 19.749-19.693 19.749-10.876 0-19.692-8.843-19.692-19.75 0-10.909 8.816-19.751 19.692-19.751zm11.855 10.878a32.8 32.8 0 0 0 1.44-5.697l-1.44 5.697z"/>
    <path stroke="#AFF4B0" stroke-linecap="round" stroke-linejoin="round" d="M303.523 50.936c3.38-2.371 6.283-5.409 8.563-8.853a34.853 34.853 0 0 0 1.801-3.05m-17.555 15.794c.76-.29 1.508-.613 2.243-.962m-9.105 2.845a33.651 33.651 0 0 0 3.078-.65m-1.476-3.077c7.25-2.203 13.647-7.11 18.055-13.364m-23.314-3.074a33.538 33.538 0 0 0 5.268-3.959m1.841 3.709a33.407 33.407 0 0 0 8.112-10.005m6.156 36.447c4.283-1.988 8.072-4.98 11.14-8.567m1.096-12.333c.122-.273.243-.544.358-.818M301.33 59.432c5.65-2.29 10.552-6.276 14.222-11.133a36.555 36.555 0 0 0 2.816-4.33M295.37 61.134a28.366 28.366 0 0 0 3.61-.862m19.543-11.2c2.11-3.096 3.659-6.521 4.666-10.13m-23.613 23.681a33.442 33.442 0 0 0 9.83-4.497M305.86 35.41a33.723 33.723 0 0 0 4.573-10.704m-9.698 16.854a32.647 32.647 0 0 0 1.948-2.014m-17.301 10.285a33.477 33.477 0 0 0 4.05-1.231m16.528-22.233c.328-.832.624-1.678.887-2.535M298.23 38.03c2.394-2.26 4.543-4.841 5.941-7.846m-9.519 10.918a68.23 68.23 0 0 0 1.6-1.313m-11.74 6.444a33.515 33.515 0 0 0 7.747-3.508m-4.04-2.95a30.348 30.348 0 0 1-3.843 1.936"/>
  </g>
</svg>
