<?xml version="1.0" encoding="UTF-8"?>
<svg width="145px" height="71px" viewBox="0 0 145 71" version="1.1" xmlns="http://www.w3.org/2000/svg" xmlns:xlink="http://www.w3.org/1999/xlink">
    <!-- Generator: Sketch Xcode 53 (67418) - http://www.bohemiancoding.com/sketch -->
    <title>release-note-header-left</title>
    <desc>Created with Sketch Xcode.</desc>
    <g id="release-note-header-left" stroke="none" stroke-width="1" fill="none" fill-rule="evenodd">
        <g fill="#AFF4B0">
            <polygon id="Path" points="75.5 3.77119025 77.2711903 2 78 2.72880975 76.2288097 4.5 78 6.27119025 77.2711903 7 75.5 5.22880975 73.7288097 7 73 6.27119025 74.7711903 4.5 73 2.72880975 73.7288097 2"></polygon>
            <path d="M4.15134371,6.49957567 C4.15134371,6.14029056 3.85970944,5.84865629 3.49957567,5.84865629 C3.14021101,5.84865629 2.84865629,6.14036998 2.84865629,6.49957567 C2.84865629,6.85955054 3.1401316,7.15134371 3.49957567,7.15134371 C3.85978895,7.15134371 4.15134371,6.85963006 4.15134371,6.49957567 Z M5,6.49957567 C5,7.32822652 4.32859241,8 3.49957567,8 C2.67122449,8 2,7.32804353 2,6.49957567 C2,5.67177358 2.67140749,5 3.49957567,5 C4.32840937,5 5,5.67159063 5,6.49957567 Z" id="Shape" fill-rule="nonzero"></path>
            <path d="M6.00398406,67 C6.00398406,66.4459619 5.55424414,65.9960159 5,65.9960159 C4.44635695,65.9960159 3.99601594,66.4463569 3.99601594,67 C3.99601594,67.5542441 4.44596188,68.0039841 5,68.0039841 C5.55463907,68.0039841 6.00398406,67.5546391 6.00398406,67 Z M7,67 C7,68.1047235 6.10472348,69 5,69 C3.89597956,69 3,68.1044307 3,67 C3,65.8962725 3.89627253,65 5,65 C6.10443069,65 7,65.8959796 7,67 Z" id="Shape" fill-rule="nonzero"></path>
            <path d="M53.0039841,9 C53.0039841,8.44596188 52.5542441,7.99601594 52,7.99601594 C51.4463569,7.99601594 50.9960159,8.44635695 50.9960159,9 C50.9960159,9.55424414 51.4459619,10.0039841 52,10.0039841 C52.5546391,10.0039841 53.0039841,9.55463907 53.0039841,9 Z M54,9 C54,10.1047235 53.1047235,11 52,11 C50.8959796,11 50,10.1044307 50,9 C50,7.89627253 50.8962725,7 52,7 C53.1044307,7 54,7.89597956 54,9 Z" id="Shape" fill-rule="nonzero"></path>
            <path d="M117,3.5 C117,2.12023151 115.880281,1 114.5,1 C113.12097,1 112,2.12097012 112,3.5 C112,4.88028119 113.120232,6 114.5,6 C115.88102,6 117,4.8810195 117,3.5 Z M118,3.5 C118,5.43330424 116.433304,7 114.5,7 C112.56805,7 111,5.4326685 111,3.5 C111,1.56868535 112.568685,0 114.5,0 C116.432669,0 118,1.56804927 118,3.5 Z" id="Shape" fill-rule="nonzero"></path>
            <path d="M95.8448216,36 L94.0057753,34.9942247 L93,33.1551784 L91.9942247,34.9942247 L90.1551784,36 L91.9942247,37.0057753 L93,38.8448216 L94.0057753,37.0057753 L95.8448216,36 Z M98,36 L94.76773,37.76773 L93,41 L91.23227,37.76773 L88,36 L91.23227,34.23227 L93,31 L94.76773,34.23227 L98,36 Z" id="Shape" fill-rule="nonzero"></path>
            <path d="M57.0057753,64.9942247 L56,63.1551784 L54.9942247,64.9942247 L53.1551784,66 L54.9942247,67.0057753 L56,68.8448216 L57.0057753,67.0057753 L58.8448216,66 L57.0057753,64.9942247 Z M61,66 L57.76773,67.76773 L56,71 L54.23227,67.76773 L51,66 L54.23227,64.23227 L56,61 L57.76773,64.23227 L61,66 Z" id="Shape" fill-rule="nonzero"></path>
            <path d="M141.616589,32.4802734 C140.527847,33.5719595 139.35122,34.4116791 138.800493,34.2003361 C137.625483,33.7494218 133.733502,29.9733412 133.849426,28.9206905 C133.910163,28.3691695 134.63454,27.3593984 135.535835,26.3918757 L133,23.7615419 L133.78955,23 L136.309364,25.6137155 C137.318122,24.663008 138.374268,23.9101734 138.916238,23.9326728 C140.185209,23.9853531 143.823293,27.657502 143.938626,28.9312738 C143.989521,29.493377 143.283318,30.610963 142.36339,31.6757168 L144.88,34.1928634 L144.104424,34.9686385 L141.616589,32.4802734 Z M139.168645,33.1151926 C139.299355,33.0517067 139.474877,32.9360986 139.680538,32.775986 C140.096692,32.452 140.606353,31.9697861 141.11028,31.4255522 C142.093861,30.3632985 142.865081,29.2381613 142.846254,29.0302281 C142.779353,28.291357 139.576101,25.058111 138.870753,25.0288291 C138.678764,25.0208588 137.699038,25.7572657 136.733284,26.7311509 C135.748257,27.7244719 134.971317,28.753484 134.939675,29.0408114 C134.894917,29.4472345 138.345148,32.8002036 139.164277,33.1639473 C139.111719,33.1418468 139.123797,33.1369754 139.168645,33.1151926 Z" id="Shape" fill-rule="nonzero"></path>
            <path d="M93.2260974,59.8802616 C92.8675761,59.8802616 92.5237389,60.0226442 92.270226,60.2760869 C92.0167131,60.5295295 91.874291,60.8732715 91.874291,61.2316934 C91.874291,61.5901154 92.0167131,61.9338574 92.270226,62.1873 C92.5237389,62.4407426 92.8675761,62.5831252 93.2260974,62.5831252 C93.5846188,62.5831252 93.928456,62.4407426 94.1819689,62.1873 C94.4354818,61.9338574 94.5779038,61.5901154 94.5779038,61.2316934 C94.5779038,60.8732715 94.4354818,60.5295295 94.1819689,60.2760869 C93.928456,60.0226442 93.5846188,59.8802616 93.2260974,59.8802616 Z M95.6753079,61.2316934 C95.6753079,61.8810844 95.4172669,62.5038781 94.9579508,62.9630669 C94.4986347,63.4222557 93.8756684,63.6802252 93.2260974,63.6802252 C92.5765264,63.6802252 91.9535601,63.4222557 91.4942441,62.9630669 C91.034928,62.5038781 90.7768869,61.8810844 90.7768869,61.2316934 C90.7768869,60.5823024 91.034928,59.9595088 91.4942441,59.50032 C91.9535601,59.0411312 92.5765264,58.7831616 93.2260974,58.7831616 C93.8756684,58.7831616 94.4986347,59.0411312 94.9579508,59.50032 C95.4172669,59.9595088 95.6753079,60.5823024 95.6753079,61.2316934 Z M95.6940179,58 L96.4699998,58.7757669 L94.969584,60.2757669 L94.1936021,59.5 L95.6940179,58 Z M96.4699998,58.7757669 L94.969584,60.2757669 L94.1936021,59.5 L95.6940179,58 L96.4699998,58.7757669 Z M91.5004158,62.19247 L92.2763977,62.9682369 L90.7759819,64.4682369 L90,63.69247 L91.5004158,62.19247 Z M92.2763977,62.9682369 L90.7759819,64.4682369 L90,63.69247 L91.5004158,62.19247 L92.2763977,62.9682369 Z" id="Shape" fill-rule="nonzero"></path>
            <path d="M42.4468063,44.361912 L42.2719082,44.7933275 C42.2406326,44.8704739 42.1810362,45.0078492 42.0928726,45.1969211 C41.9478665,45.507895 41.7738466,45.8533316 41.5705214,46.224712 C40.9903497,47.2844153 40.2898709,48.3439029 39.4656735,49.3349488 C38.8615743,50.0613401 38.2120618,50.7237772 37.5160503,51.3075288 L37.2769165,51.5080926 L35.2948451,50.8143677 C35.2030622,50.8948617 35.103237,50.9779679 34.9937218,51.06558 C34.8371216,51.1908602 34.7066944,51.290441 34.4238868,51.5026598 C34.3139287,51.6126179 34.3139287,51.6126179 34.1926753,51.7260744 C33.5650907,52.1967629 33.2824433,52.391083 32.9088643,52.5778725 L32.7930404,52.6357844 C32.4379088,52.8500395 32.1493579,53.0076257 31.6088643,53.2778725 L31.4930404,53.3357844 L31.3635453,53.3357844 C31.5044471,53.3357844 31.5952348,53.2813118 31.6514287,53.2251179 C31.55558,53.3209666 31.4590585,53.3892086 31.3265651,53.4190221 L30.2869679,53.9388207 C30.2190962,54.0042847 30.1874692,54.02607 30.1088643,54.0653725 C30.0268635,54.1063729 29.9718007,54.1237244 29.9024089,54.1309097 C29.4155062,54.372509 29.1419145,54.4931945 28.8421074,54.5802117 C28.800634,54.6160987 28.7680789,54.6357652 28.7088643,54.6653725 C28.602759,54.7184251 28.5417565,54.731882 28.4364524,54.7349531 C28.3077323,54.7693624 28.1665222,54.8144646 27.8870121,54.9076347 C27.6106804,54.9997452 27.4567675,55.0492451 27.3135596,55.088712 C27.2311038,55.1438216 27.1416534,55.1831398 27.0465882,55.2069061 C26.9683705,55.2264605 26.9119215,55.2331195 26.8333227,55.2350715 C26.6839854,55.271676 26.5327667,55.3060054 26.2325425,55.3727218 C25.8999635,55.4466283 25.7568831,55.4793324 25.5965882,55.5194061 L25.4635453,55.5357844 C25.2145563,55.5745715 25.048266,55.5964134 24.7241225,55.6324294 C24.401785,55.6682446 24.2592624,55.6875044 24.0711248,55.725132 L23.6635453,55.7357844 C23.4816151,55.7357844 23.3421685,55.7470909 23.0241225,55.7824294 C22.6671685,55.8220909 22.4982818,55.8357844 22.2635453,55.8357844 L20.5635453,55.8357844 C20.1907586,55.8357844 20.0355713,55.8336873 19.8331172,55.8224399 C19.5839595,55.8085978 19.3521588,55.7815576 19.1106546,55.7357844 L18.9635453,55.7357844 L18.8305024,55.7194061 C18.6922513,55.6848433 18.5737965,55.6663348 18.2955061,55.6315485 C18.0120389,55.5961151 17.8632729,55.5739234 17.6984553,55.5357844 L17.4635453,55.5357844 L17.3305024,55.5194061 C17.1702075,55.4793324 17.0271271,55.4466283 16.6945481,55.3727218 C16.3878814,55.3045737 16.2366838,55.2702176 16.0841552,55.2327116 C15.9726604,55.2232537 15.8950973,55.1913079 15.7682263,55.1278725 C15.5366906,55.0709532 15.3906932,55.0207665 15.0709365,54.9008578 C14.7906932,54.7957665 14.6700239,54.7542865 14.5305024,54.7194061 L14.3830994,54.6825553 C13.9206546,54.5153923 13.431656,54.3277996 12.9970661,54.1167226 C12.9437153,54.1041215 12.8927155,54.085672 12.8407581,54.0625798 C12.799418,54.0420498 12.7252407,54.013814 12.6182263,53.9778725 C12.4417995,53.8896591 12.2920249,53.8083528 11.9471459,53.6167534 C11.6170249,53.4333528 11.4751328,53.3563257 11.3182263,53.2778725 C11.0320735,53.1347961 10.7695424,52.9755075 10.4217645,52.7436556 C10.0305888,52.4788295 9.85576,52.362277 9.6813187,52.2576122 L9.5756619,52.1751179 C9.5698462,52.1693022 9.5380765,52.1461969 9.4592645,52.0936556 C9.3130765,51.9961969 9.2531796,51.9526355 9.2344153,51.9260744 C9.0552722,51.7917171 8.92784723,51.686262 8.6565537,51.4537246 C8.40284723,51.236262 8.28860555,51.1417171 8.13441531,51.0260744 L7.91499531,50.8615094 C5.85604488,49.1433407 4.23057494,47.1675688 2.98800738,44.8504385 L1.61485985,44.4581106 L1.5029991,44.2852349 C1.16546434,43.7635903 0.88383877,43.1175457 0.64840212,42.3731504 C0.43804814,41.7080606 0.27539612,41.0001622 0.15368536,40.2929239 C0.11115858,40.0458089 0.0767238,39.8161067 0.04966793,39.6094109 C0.03323981,39.4839067 0.0228189,39.3928296 0.01771766,39.3418172 L0,39.1646406 L0.69174961,37.9787842 C0.00707883,33.407669 0.81029008,28.7728566 3.08727053,24.6150774 C6.25547872,19.0707131 11.6191602,15.3041406 17.7109825,14.1923139 L18.7020028,12.4084774 L18.9385393,12.3531178 C18.9902644,12.3410119 19.0831529,12.3212224 19.2138051,12.2963614 C19.4275812,12.2556832 19.6722347,12.2151868 19.944381,12.1774958 C22.0931558,11.8799003 24.4122203,11.9252396 26.6068589,12.554293 C27.1169182,12.7004923 27.6099906,12.8768312 28.084057,13.0849579 L28.3304519,13.1931313 L28.8276906,15.1820861 L29.9692292,15.6387015 C30.1490266,15.639788 30.269492,15.6925296 30.378271,15.7823195 C31.1182626,16.0784772 31.4714568,16.2363301 31.8959091,16.4871617 C32.1802726,16.5888319 32.4063032,16.7231313 32.8678261,17.0308132 C33.0512361,17.1427822 33.1157104,17.1801139 33.1815277,17.2350375 C33.2707135,17.2851719 33.3518388,17.342767 33.4926753,17.4483944 C33.5621197,17.5004777 33.6084807,17.534229 33.643466,17.5576192 C33.8304001,17.607307 33.9759087,17.7751424 34.3120953,18.2872344 L34.1514287,17.899351 C34.36192,18.1098422 34.4017659,18.1430472 34.5088643,18.1965964 L34.6514287,18.299351 L34.9514287,18.599351 L35.0541834,18.7419154 C35.0995572,18.7906922 35.2896935,18.9376157 35.4199665,19.0829536 L35.6514287,19.299351 L35.7541834,19.4419154 C35.7995572,19.4906922 35.9896935,19.6376157 36.0514287,19.699351 L36.2984933,19.9464156 C36.4223829,20.0226893 36.5242849,20.1182594 36.6224531,20.2360613 C36.6507125,20.2699726 36.748164,20.3960863 36.7514287,20.399351 L37.0514287,20.699351 C37.1289464,20.7768687 37.1725078,20.8367656 37.2699665,20.9829536 C37.3225078,21.0617656 37.3456131,21.0935353 37.3514287,21.099351 L37.4541834,21.2419154 C37.5060025,21.3455536 37.5394868,21.3874091 37.6514287,21.499351 C37.7289464,21.5768687 37.7725078,21.6367656 37.8699665,21.7829536 C37.9225078,21.8617656 37.9456131,21.8935353 37.9514287,21.899351 L38.0541834,22.0419154 C38.1060025,22.1455536 38.1394868,22.1874091 38.2514287,22.299351 C38.3289464,22.3768687 38.3725078,22.4367656 38.4699665,22.5829536 C38.5225078,22.6617656 38.5456131,22.6935353 38.5514287,22.699351 C38.6289464,22.7768687 38.6725078,22.8367656 38.7699665,22.9829536 C38.8225078,23.0617656 38.8456131,23.0935353 38.8514287,23.099351 C38.9289464,23.1768687 38.9725078,23.2367656 39.0699665,23.3829536 C39.1225078,23.4617656 39.1456131,23.4935353 39.1514287,23.499351 C39.2289464,23.5768687 39.2725078,23.6367656 39.3699665,23.7829536 C39.4225078,23.8617656 39.4456131,23.8935353 39.4514287,23.899351 L39.6120953,24.0600176 L39.6120953,24.2872344 C39.6120953,24.2461888 39.678762,24.3037832 39.8120953,24.4600176 L39.8120953,24.6872344 C39.9761665,24.8240887 40.0182393,24.9166488 40.0839455,25.1137677 C40.0896783,25.130966 40.1323949,25.179716 40.2120953,25.2600176 L40.2120953,25.4872344 C40.3761665,25.6240887 40.4182393,25.7166488 40.4839455,25.9137677 C40.4901414,25.9323551 40.513554,25.975071 40.5541834,26.0419154 C40.6101042,26.1537571 40.6388878,26.2285943 40.6839455,26.3637677 C40.7973688,26.5736688 40.833765,26.6632261 40.8839455,26.8137677 C40.8901414,26.8323551 40.913554,26.875071 40.9541834,26.9419154 C41.0101042,27.0537571 41.0388878,27.1285943 41.0839455,27.2637677 C41.1138878,27.3535943 41.1267709,27.3870905 41.1541834,27.4419154 L41.2120953,27.6078183 C41.2576568,27.6998999 41.2857367,27.7662584 41.3001275,27.841961 C41.3364798,27.9298123 41.3614331,28.017056 41.395717,28.1541915 C41.4237813,28.2664488 41.4360001,28.3055488 41.4541834,28.3419154 L41.5120953,28.6198708 C41.5890408,28.9292448 41.6568018,29.2135711 41.7975133,29.8115949 C41.9469183,30.446566 42.013215,30.7241837 42.095717,31.0541915 L42.1120953,31.1872344 L42.1120953,31.3872344 C42.1120953,31.4198668 42.1218832,31.4818567 42.1514429,31.6296549 C42.1968832,31.8568567 42.2120953,31.9532001 42.2120953,32.0872344 C42.2936777,32.4709083 42.3120953,32.6673472 42.3120953,32.9872344 L42.3120953,37.0872344 C42.3120953,37.2625953 42.2918005,37.4012769 42.2490327,37.5937316 C42.2162212,37.7413834 42.2120953,37.7640759 42.2120953,37.7872344 L42.2120953,38.0872344 C42.2120953,38.2625953 42.1918005,38.4012769 42.1490327,38.5937316 C42.1162212,38.7413834 42.1120953,38.7640759 42.1120953,38.7872344 L42.1120953,39.0144513 L42.0119265,39.1146201 C42.0098977,39.2773361 41.9895505,39.4114019 41.9490327,39.5937316 C41.9162212,39.7413834 41.9120953,39.7640759 41.9120953,39.7872344 L41.9120953,40.0144513 L41.8120953,40.1144513 L41.7541834,40.3325534 C41.7425057,40.3559088 41.7288315,40.4078706 41.7014429,40.5448139 C41.6538315,40.7828706 41.625839,40.8892421 41.5541834,41.0325534 L41.4541834,41.2325534 C41.4425057,41.2559088 41.4288315,41.3078706 41.4014429,41.4448139 C41.3538315,41.6828706 41.325839,41.7892421 41.2541834,41.9325534 L41.1541834,42.1325534 C41.1219415,42.1970371 41.0917246,42.2688023 41.0228612,42.4409608 C40.9417246,42.6438023 40.9052749,42.7303704 40.8541834,42.8325534 L40.7025679,43.1357844 C40.6702878,43.1717304 40.6547378,43.211068 40.6368844,43.2558486 L42.4468063,44.361912 Z M40.8120953,42.6872344 L40.7886999,42.8314036 C40.8065333,42.781634 40.8120953,42.7360991 40.8120953,42.6872344 Z M30.1635453,15.7386844 L30.3374958,15.7721842 C30.2904875,15.7519686 30.2331271,15.7386844 30.1635453,15.7386844 Z M39.3051501,43.7277526 L39.4431451,43.3137677 C39.489179,43.175666 39.5254337,43.0804974 39.6042294,42.8835081 C39.6645895,42.7326079 39.6956362,42.6522594 39.7264141,42.5631218 C39.7367808,42.5091412 39.7551748,42.4523803 39.7854073,42.3919154 C39.8235853,42.3155592 39.875909,42.2481987 39.9394301,42.1933261 C39.9568323,42.1514382 39.9776528,42.0999496 40.0042294,42.0335081 C40.055316,41.9057915 40.0886868,41.8241708 40.1191512,41.7557244 C40.1258676,41.6828072 40.1429693,41.6267914 40.1854073,41.5419154 C40.2203345,41.472061 40.2414276,41.4393073 40.2916358,41.385246 C40.3002381,41.3519937 40.3109749,41.3030194 40.3256478,41.2296549 C40.3586324,41.0647318 40.3822008,40.9630119 40.4173949,40.8684259 C40.4212996,40.8007218 40.431226,40.7495249 40.4556451,40.6762677 C40.4872646,40.5814092 40.5384661,40.4971535 40.605039,40.428526 C40.6590381,40.1627031 40.6827792,40.060519 40.718699,39.9649386 C40.7284116,39.8194895 40.7590346,39.6972788 40.8313603,39.5787554 C40.840821,39.5247283 40.8554992,39.4572514 40.8780579,39.3557372 C40.904933,39.2347991 40.9149953,39.1660402 40.9149953,39.0872344 C40.9149953,38.8852446 40.9396557,38.7290359 41.0313603,38.5787554 C41.040821,38.5247283 41.0554992,38.4572514 41.0780579,38.3557372 C41.104933,38.2347991 41.1149953,38.1660402 41.1149953,38.0872344 L41.1149953,37.7872344 C41.1149953,37.647893 41.1233694,37.6018355 41.1780579,37.3557372 C41.204933,37.2347991 41.2149953,37.1660402 41.2149953,37.0872344 L41.2149953,32.9872344 C41.2149953,32.7410567 41.2041945,32.6438494 41.1431451,32.4607012 L41.1149953,32.2872344 L41.1149953,32.0872344 C41.1149953,32.0546021 41.1052074,31.9926122 41.0756478,31.8448139 C41.0302074,31.6176122 41.0149953,31.5212687 41.0149953,31.3872344 L41.0149953,31.2545981 C40.9380498,30.945224 40.8702888,30.6608977 40.7295773,30.0628739 C40.5801723,29.4279028 40.5138756,29.1502851 40.4313736,28.8202773 C40.3862152,28.6291585 40.362686,28.545527 40.3313736,28.4202773 C40.3033093,28.30802 40.2910905,28.26892 40.2729073,28.2325534 L40.2149953,28.1167295 C40.17042,27.976562 40.1425776,27.9110951 40.1279168,27.8374107 C40.0978292,27.7692125 40.0744033,27.7044758 40.0431451,27.6107012 C40.024622,27.5551318 40.0126274,27.5211202 39.9996828,27.4902806 C39.9297218,27.4008001 39.8933256,27.3112427 39.8431451,27.1607012 C39.8369493,27.1421138 39.8135367,27.0993978 39.7729073,27.0325534 C39.7169864,26.9207117 39.6882029,26.8458745 39.6431451,26.7107012 C39.624622,26.6551318 39.6126274,26.6211202 39.5996828,26.5902806 C39.5297218,26.5008001 39.4933256,26.4112427 39.4431451,26.2607012 C39.3354096,26.1348656 39.2103478,25.9241281 39.1511675,25.7195334 C39.109902,25.6502081 39.0803025,25.5721736 39.0431451,25.4607012 C38.9382002,25.3376561 38.8153304,25.1324862 38.7547778,24.9317524 C38.6693552,24.8131725 38.5977896,24.6729647 38.5556695,24.5346939 C38.5278299,24.496663 38.4969851,24.4513067 38.4571241,24.3915152 C38.4045828,24.3127033 38.3814775,24.2809335 38.3756619,24.2751179 C38.2981442,24.1976002 38.2545828,24.1377033 38.1571241,23.9915152 C38.1045828,23.9127033 38.0814775,23.8809335 38.0756619,23.8751179 C37.9981442,23.7976002 37.9545828,23.7377033 37.8571241,23.5915152 C37.8045828,23.5127033 37.7814775,23.4809335 37.7756619,23.4751179 C37.6981442,23.3976002 37.6545828,23.3377033 37.5571241,23.1915152 C37.5045828,23.1127033 37.4814775,23.0809335 37.4756619,23.0751179 C37.3081546,22.9076105 37.2106309,22.7902822 37.1101558,22.6043177 C37.0655926,22.5516482 37.0240767,22.4919441 36.9571241,22.3915152 C36.9045828,22.3127033 36.8814775,22.2809335 36.8756619,22.2751179 C36.7081546,22.1076105 36.6106309,21.9902822 36.5101558,21.8043177 C36.4655926,21.7516482 36.4240767,21.6919441 36.3571241,21.5915152 C36.3045828,21.5127033 36.2814775,21.4809335 36.2756619,21.4751179 L35.9756619,21.1751179 C35.9139266,21.1133826 35.7670031,20.9232463 35.7796375,20.9384076 C35.7581222,20.9125892 35.6901303,20.8581593 35.5756619,20.7751179 L35.2756619,20.4751179 C35.2723972,20.4718531 35.1462835,20.3744016 35.1123722,20.3461422 C34.9945703,20.247974 34.8990002,20.146072 34.8227265,20.0221824 L34.7256619,19.9251179 C34.6506619,19.8501179 34.6506619,19.8501179 34.5071241,19.6915152 C34.2945703,19.547974 34.1990002,19.446072 34.1227265,19.3221824 L33.9338829,19.1333388 C33.7878019,19.0504031 33.6754392,18.9467551 33.4534217,18.6358115 C33.3855421,18.5407426 33.3074376,18.4263351 33.2149953,18.2872344 L33.3593694,18.6357844 L33.2182263,18.5778725 C33.0946474,18.516083 33.0119999,18.4592629 32.8344153,18.3260744 C32.7119999,18.2342629 32.661314,18.1994163 32.6182263,18.1778725 L32.4756619,18.0751179 C32.3644566,18.0259876 32.2958937,17.9852768 32.2210826,17.9182465 C31.8409663,17.6657705 31.6705292,17.5677849 31.4900786,17.5076347 C31.0103764,17.2350468 30.7044766,17.0955318 30.0310317,16.8250898 C29.9343791,16.8083109 29.8566458,16.7723106 29.7857311,16.7207988 L29.659819,16.6965503 L27.8994,15.9923827 L27.3977348,13.9857218 C27.0451453,13.8420362 26.6804323,13.7166597 26.3045678,13.6089249 C24.2789783,13.0283264 22.105051,12.9858246 20.0948878,13.2642231 C19.8183386,13.3025239 19.5913645,13.34054 19.4212567,13.3728875 L18.4150677,15.1840278 L18.1552125,15.228071 C12.2783987,16.2241412 7.08947983,19.8224869 4.04467648,25.150711 C1.85787564,29.1439995 1.10596476,33.6053374 1.8052825,38.001049 L1.83605308,38.194464 L1.12916259,39.4062763 C1.15103511,39.5814175 1.18565106,39.8207279 1.23489169,40.1068559 C1.34877338,40.7686009 1.50066914,41.4296857 1.69443052,42.0423135 C1.87599089,42.6163647 2.08490388,43.1157621 2.31930443,43.5183793 L3.74086118,43.9245383 L3.84988144,44.1334938 C5.03784128,46.4104169 6.60408073,48.3380962 8.65142875,49.999351 C8.79236604,50.0888398 8.86613686,50.1595255 8.9195084,50.2454888 C9.0439419,50.3429342 9.1665843,50.4459276 9.3705369,50.6207442 C9.6242434,50.8382069 9.7384851,50.9327517 9.9514287,51.099351 C9.9572444,51.1051666 9.9890142,51.1282719 10.0678261,51.1808132 C10.1785226,51.2546109 10.2397414,51.2975048 10.2965984,51.347639 C10.4813868,51.4605932 10.6788602,51.5925733 11.0303261,51.8308132 C11.3434857,52.0395863 11.571333,52.1778307 11.8088643,52.2965964 C11.9852912,52.3848098 12.1350658,52.466116 12.4799448,52.6577154 C12.7508682,52.8082285 12.8950168,52.8870975 13.0247311,52.9539075 C13.094023,52.9690966 13.1573832,52.9963408 13.2429614,53.0386844 L13.4088643,53.0965964 C13.7777366,53.2810325 14.2061139,53.4499871 14.5369801,53.5395312 C14.6419606,53.5426319 14.7029363,53.5561324 14.8088643,53.6090964 C14.8682359,53.6387822 14.9008064,53.6584744 14.9424374,53.694543 C15.0783964,53.7344445 15.2198114,53.7849825 15.4561541,53.873611 C15.7079431,53.9680319 15.8309174,54.0111033 15.9544858,54.0441743 C16.0365981,54.0543367 16.1104439,54.0781607 16.1863326,54.111889 C16.4568831,54.1951365 16.5999635,54.2278406 16.9325425,54.301747 C17.2308169,54.3680302 17.382015,54.4023456 17.5304129,54.4386844 L17.7635453,54.4386844 L17.8965882,54.4550627 C18.0348393,54.4896255 18.1532941,54.5081341 18.4315846,54.5429204 C18.7150517,54.5783538 18.8638177,54.6005455 19.0286353,54.6386844 L19.1635453,54.6386844 C19.4795427,54.6910204 19.6760824,54.7149239 19.8939734,54.727029 C20.0691979,54.7367637 20.211332,54.7386844 20.5635453,54.7386844 L22.2635453,54.7386844 C22.4454755,54.7386844 22.5849221,54.7273779 22.9029681,54.6920395 C23.2599221,54.6523779 23.4288089,54.6386844 23.6635453,54.6386844 L23.9103092,54.6386844 C24.1125343,54.5998974 24.2788246,54.5780554 24.6029681,54.5420395 C24.9253056,54.5062242 25.0678282,54.4869644 25.2559658,54.4493369 L25.3966777,54.4386844 C25.5450756,54.4023456 25.6962737,54.3680302 25.9945481,54.301747 C26.3271271,54.2278406 26.4702075,54.1951365 26.6305024,54.1550627 L26.7830994,54.0919135 L26.9305024,54.0550627 C27.0784613,54.018073 27.2167251,53.9746187 27.5400786,53.8668342 C27.8827754,53.7526019 28.0371911,53.7039051 28.2164069,53.6586059 L28.4305024,53.5550627 C28.7110391,53.4849286 28.9552217,53.3780987 29.5182263,53.0965964 L29.6340502,53.0386844 L31.0340502,52.3386844 C31.1462894,52.2825648 31.1735665,52.2688893 31.2001025,52.2555421 C31.2490736,52.2444861 31.3029593,52.2386844 31.3635453,52.2386844 L31.3635453,52.7872344 L31.1395362,52.3392161 C31.0122324,52.3450067 30.9285978,52.3964151 30.8756619,52.449351 C30.9714086,52.3536043 31.0678266,52.2854055 31.2001025,52.2555421 C31.7141008,51.9970095 31.9500392,51.8616765 32.2344153,51.6483944 L32.3806953,51.5386844 L32.5293153,51.5386844 C32.7797896,51.4025625 33.0277409,51.2292822 33.4756619,50.899351 L33.5756619,50.799351 C33.6131619,50.761851 33.6131619,50.761851 33.7344153,50.6483944 C34.0297728,50.4268763 34.1581186,50.329089 34.3083688,50.2088888 C34.5000829,50.0555176 34.6526089,49.922404 34.7756619,49.799351 L35.0194057,49.5556072 L37.0460402,50.2649293 C37.6020114,49.7752615 38.1274927,49.2282472 38.6221575,48.6334437 C39.3977696,47.7008188 40.0599683,46.6992305 40.6082047,45.697858 C40.7844965,45.3758552 40.9369284,45.0755067 41.0655522,44.8035539 L39.3051501,43.7277526 Z M29.7635453,53.0386844 C29.7339328,53.0386844 29.7028296,53.0417947 29.6182263,53.0840964 C29.5621705,53.1121243 29.5693513,53.1056615 29.5756619,53.099351 L29.6598323,53.0386844 L29.7635453,53.0386844 Z M26.7635453,54.1386844 C26.7942096,54.1386844 26.7966178,54.1385339 26.7805024,54.1425627 C26.7395591,54.1527986 26.6999139,54.175099 26.6756619,54.199351 L26.7325075,54.1425053 L26.7635453,54.1386844 Z M13.8120953,53.7872344 L12.7149953,53.7872344 C12.7149953,51.6386443 14.8045294,49.9386844 17.3635453,49.9386844 C19.9599611,49.9386844 22.1120953,51.5616053 22.1120953,53.6872344 L21.0149953,53.6872344 C21.0149953,52.2456504 19.4106078,51.0357844 17.3635453,51.0357844 C15.3663113,51.0357844 13.8120953,52.3002313 13.8120953,53.7872344 Z M30.4474609,45.0830374 L30.8796298,46.0914314 C29.9964096,46.4699544 29.0704984,46.4699544 28.5756619,45.9751179 C27.7079125,45.1073685 28.250104,43.4446479 29.5756619,41.999351 C30.9427727,40.6322402 32.6612907,40.109213 33.5514287,40.999351 C34.0178842,41.4658064 34.0539332,42.1507381 33.7839455,42.9607012 L32.7431451,42.6137677 C32.8958847,42.1555489 32.8814287,41.8808846 32.7756619,41.7751179 C32.4457999,41.4452559 31.3468179,41.7797287 30.3679112,42.7579032 C29.4095019,43.8034406 29.051965,44.8998872 29.3514287,45.199351 C29.4565922,45.3045145 29.930681,45.3045145 30.4474609,45.0830374 Z M33.0243908,28.6883259 L34.1026999,28.4861429 C34.4544764,30.3622845 33.6011123,32.364408 31.945772,33.3576122 L31.3813187,32.4168567 C32.63567,31.6642459 33.2931485,30.1217003 33.0243908,28.6883259 Z M28.3370121,32.7668342 L27.9900786,33.8076347 C26.9201985,33.451008 26.0324627,32.7408193 25.4997524,31.7801563 C24.1253694,29.60405 24.8334325,26.6655884 27.0813187,25.3168567 C28.7605994,24.3092882 30.8065812,24.4051936 32.2980022,25.5524405 L31.6290885,26.4220283 C30.4988789,25.5526363 28.9423366,25.4796734 27.645772,26.2576122 C25.9246441,27.2902889 25.3825352,29.540041 26.4430643,31.220835 C26.8546279,31.9616495 27.5211778,32.4948894 28.3370121,32.7668342 Z M8.30785936,43.8552737 L7.21923128,43.7191952 C7.34820446,42.6874097 8.1173896,41.8083409 9.1654177,41.5475326 C10.563468,41.2933416 11.8287981,42.1865158 12.195717,43.6541915 C12.5671177,45.1397943 11.6953882,46.5662608 10.2711248,46.825132 C9.6060353,46.9581499 8.85246676,46.814613 8.33441531,46.4260744 L8.99267532,45.5483944 C9.249092,45.7407069 9.68447,45.823636 10.0654177,45.7475326 C10.8629525,45.6025262 11.3519084,44.8024165 11.1313736,43.9202773 C10.9000783,42.9950959 10.1702491,42.4799224 9.3965882,42.6194061 C8.82570103,42.7621279 8.3809695,43.2703925 8.30785936,43.8552737 Z M37.5900786,35.2668342 L37.9370121,36.3076347 C36.9907918,36.6230414 36.1085632,35.8290357 35.8313736,34.7202773 C35.5673742,33.6642797 35.9775044,32.5250292 36.8559658,32.3493369 L37.0711248,33.425132 C36.9366552,33.4520259 36.7646344,33.9298613 36.895717,34.4541915 C37.0378822,35.0228525 37.3849475,35.3352112 37.5900786,35.2668342 Z M10.2399207,28.3995143 C9.0377796,29.6016553 7.38329903,29.9955792 6.49433397,29.1066142 C5.60536892,28.2176491 5.99929285,26.5631685 7.2014339,25.3610275 C8.40357494,24.1588864 10.0580555,23.7649625 10.9470206,24.6539276 C11.8359857,25.5428926 11.4420617,27.1973732 10.2399207,28.3995143 Z M9.4641538,27.6237474 C10.2927195,26.7951817 10.5319544,25.7903951 10.1712537,25.4296944 C9.8105531,25.0689938 8.80576642,25.3082287 7.97720076,26.1367943 C7.1486351,26.96536 6.90940019,27.9701467 7.27010084,28.3308473 C7.63080149,28.691548 8.63558815,28.4523131 9.4641538,27.6237474 Z M15.4514287,33.8751179 L14.6756619,33.099351 C16.789884,30.9851289 20.2372066,30.9851289 22.3514287,33.099351 C24.4656509,35.2135731 24.4656509,38.6608957 22.3514287,40.7751179 C20.2372066,42.88934 16.789884,42.88934 14.6756619,40.7751179 L15.4514287,39.999351 C17.1372066,41.6851289 19.889884,41.6851289 21.5756619,39.999351 C23.2614398,38.3135731 23.2614398,35.5608957 21.5756619,33.8751179 C19.889884,32.18934 17.1372066,32.18934 15.4514287,33.8751179 Z M14.2120953,36.8872344 L13.1149953,36.8872344 C13.1149953,36.6470503 13.1172907,36.5368735 13.1293901,36.3916798 C13.1465497,36.1857652 13.1817831,35.9978536 13.2431451,35.8137677 L14.2839455,36.1607012 C14.2524504,36.2551867 14.2330409,36.3587036 14.2227005,36.482789 C14.2139666,36.5875953 14.2120953,36.6774185 14.2120953,36.8872344 Z M24.0409037,16.9436022 L24.6861869,17.8308666 C23.3261168,18.8200085 21.5053564,18.6379324 20.438991,17.334597 L21.2880996,16.6398718 C21.9771798,17.482081 23.1405342,17.5984164 24.0409037,16.9436022 Z" id="Shape" fill-rule="nonzero"></path>
            <path d="M65.371891,28.9879634 C65.0134683,28.9879619 64.669725,29.1303436 64.4162812,29.383786 C64.1628373,29.6372286 64.0204538,29.9809712 64.0204534,30.3393929 C64.0204538,30.6978157 64.1628373,31.0415583 64.4162811,31.2950008 C64.669725,31.5484432 65.0134683,31.690825 65.371893,31.6908234 C66.1182671,31.6908228 66.7233228,31.0857671 66.7233234,30.339393 C66.7233228,29.5930197 66.1182671,28.9879641 65.371891,28.9879634 Z M65.3718958,32.7879234 C64.7225034,32.7879263 64.0997073,32.5299582 63.6405163,32.0707696 C63.1813253,31.611581 62.9233541,30.9887864 62.9233534,30.3393929 C62.9233541,29.6900005 63.1813253,29.0672058 63.6405163,28.6080172 C64.0997073,28.1488286 64.7225034,27.8908606 65.3718939,27.8908634 C66.7241789,27.8908646 67.8204223,28.9871079 67.8204234,30.339393 C67.8204223,31.6916789 66.7241789,32.7879223 65.3718958,32.7879234 Z M67.725,27 L68.5007669,27.7757669 L67.0007669,29.2757669 L66.225,28.5 L67.725,27 Z M68.5007669,27.7757669 L67.0007669,29.2757669 L66.225,28.5 L67.725,27 L68.5007669,27.7757669 Z M63.5,31.22501 L64.2757669,32.0007769 L62.7757669,33.5007769 L62,32.72501 L63.5,31.22501 Z M64.2757669,32.0007769 L62.7757669,33.5007769 L62,32.72501 L63.5,31.22501 L64.2757669,32.0007769 Z" id="Shape" fill-rule="nonzero"></path>
        </g>
    </g>
</svg>