<?xml version="1.0" encoding="UTF-8"?>
<svg width="144px" height="74px" viewBox="0 0 144 74" version="1.1" xmlns="http://www.w3.org/2000/svg" xmlns:xlink="http://www.w3.org/1999/xlink">
    <!-- Generator: Sketch Xcode 53 (67418) - http://www.bohemiancoding.com/sketch -->
    <title>release-note-header-right</title>
    <desc>Created with Sketch Xcode.</desc>
    <g id="release-note-header-right" stroke="none" stroke-width="1" fill="none" fill-rule="evenodd">
        <g fill="#AFF4B0">
            <path d="M99.1920537,26.979008 C99.4209077,27.7232986 98.7246422,28.4195641 97.9800937,28.192062 L96.1182146,27.6188676 L94.2559474,28.1924834 C93.5118754,28.4192089 92.8154395,27.7235252 93.0443631,26.979008 L93.6175353,25.1181955 L93.0444051,23.2565173 C92.81499,22.5124685 93.5128079,21.8154042 94.257395,22.0443493 L96.1182075,22.6175215 L97.9798857,22.0443913 C98.7237085,21.8150459 99.4213571,22.5126945 99.1920758,23.2563093 L98.6188777,25.1181762 L99.1920537,26.979008 Z M97.66078,25.4047279 C97.6026053,25.2177378 97.6026053,25.0165653 97.660341,24.8330799 L98.2194471,23.0169559 L96.4047417,23.575623 C96.2180062,23.6337185 96.0184106,23.6337185 95.8330218,23.5760399 L94.0168678,23.0166255 L94.5751615,24.830142 C94.6338115,25.0165653 94.6338115,25.2177378 94.5760537,25.4033812 L94.0165376,27.2198654 L95.8316751,26.6607662 C96.0184106,26.6026707 96.2180062,26.6026707 96.4033231,26.6603272 L98.2197778,27.2195362 L97.66078,25.4047279 Z" id="Shape" fill-rule="nonzero"></path>
            <polygon id="Path" points="57.425 1.71844661 59.1430545 0 59.8499999 0.70710678 58.1319454 2.42555339 59.8499999 4.144 59.1430545 4.85110678 57.425 3.13266017 55.7069454 4.85110678 55 4.144 56.7180545 2.42555339 55 0.70710678 55.7069454 0"></polygon>
            <path d="M111.535,12.767 C111.535,12.3436424 111.191358,12 110.767,12 C110.343549,12 110,12.343736 110,12.767 C110,13.1911704 110.343455,13.535 110.767,13.535 C111.191451,13.535 111.535,13.1912641 111.535,12.767 Z M112.535,12.767 C112.535,13.7434269 111.743858,14.535 110.767,14.535 C109.790926,14.535 109,13.7432113 109,12.767 C109,11.7915732 109.791142,11 110.767,11 C111.743642,11 112.535,11.7913576 112.535,12.767 Z" id="Shape" fill-rule="nonzero"></path>
            <polygon id="Path" points="88.5 66.5 90 66.5 90 67.5 88.5 67.5 88.5 69 87.5 69 87.5 67.5 86 67.5 86 66.5 87.5 66.5 87.5 65 88.5 65"></polygon>
            <path d="M142.016,71.008 C142.016,70.4517457 141.564461,70 141.008,70 C140.452142,70 140,70.4521424 140,71.008 C140,71.5644611 140.451746,72.016 141.008,72.016 C141.564858,72.016 142.016,71.5648576 142.016,71.008 Z M143.016,71.008 C143.016,72.1171424 142.117142,73.016 141.008,73.016 C139.899563,73.016 139,72.1168484 139,71.008 C139,69.8998576 139.899858,69 141.008,69 C142.116848,69 143.016,69.8995635 143.016,71.008 Z" id="Shape" fill-rule="nonzero"></path>
            <path d="M139.005775,41.9942247 L138,40.1551784 L136.994225,41.9942247 L135.155178,43 L136.994225,44.0057753 L138,45.8448216 L139.005775,44.0057753 L140.844822,43 L139.005775,41.9942247 Z M143,43 L139.76773,44.76773 L138,48 L136.23227,44.76773 L133,43 L136.23227,41.23227 L138,38 L139.76773,41.23227 L143,43 Z M139.840401,41.3651471 L139.634853,41.1595994 L139.76773,41.23227 L139.840401,41.3651471 Z" id="Shape" fill-rule="nonzero"></path>
            <path d="M121.720444,53.279556 L120,50.133748 L118.279556,53.279556 L115.133748,55 L118.279556,56.7204439 L120,59.866252 L121.720444,56.7204439 L124.866252,55 L121.720444,53.279556 Z M127,55 L122.474822,57.474822 L120,62 L117.525178,57.474822 L113,55 L117.525178,52.5251779 L120,48 L122.474822,52.5251779 L127,55 Z" id="Shape" fill-rule="nonzero"></path>
            <path d="M54.9691035,33.7254742 L54.8077827,33.7497316 C54.2456747,33.7497316 53.8735538,33.2535704 54.1248747,32.7582603 L56.1367154,27.3271151 L50.7837495,29.3069791 C50.2969392,29.6317304 49.7118643,29.127811 49.7118643,28.6538132 L49.7361217,28.4924924 L49.8405926,28.152962 C47.8413546,28.9129289 45.548494,30.1836039 43.9956645,31.7364334 C41.5883951,34.1437028 41.4347631,37.326082 43.7430329,39.6343592 C46.0517046,41.9430308 49.3162163,41.7865132 51.6409513,39.3817283 C53.1615432,37.8611307 54.4115747,35.6309139 55.1764325,33.6616807 L54.9691035,33.7254742 Z M56.4984208,32.6400731 C56.5974897,32.8382109 56.5969824,33.0808135 56.4821979,33.2804753 C55.7137168,35.5523565 54.2728382,38.301367 52.4232365,40.1508654 C49.6917865,42.9765033 45.7238851,43.1667451 42.9672654,40.4101254 C40.2129321,37.6557832 40.4000121,33.7805521 43.2198976,30.9606666 C45.0962125,29.0843517 47.8851661,27.6322524 50.0993058,26.9000172 C50.6496453,26.6248475 51.1458064,26.9969683 51.1458064,27.5590763 L51.121549,27.7203971 L51.0201976,28.0497894 L56.4701246,26.034063 L56.6604143,26 C57.200592,26 57.7194078,26.4150527 57.427533,26.9914713 L55.4083398,32.4424651 L55.6604354,32.3648972 C55.9713065,32.1901292 56.3452757,32.3337827 56.4984208,32.6400731 Z M47.3564312,40.1883573 C45.0071345,40.1883573 43.1026533,38.2838761 43.1026533,35.9345795 C43.1026533,33.5852828 45.0071345,31.6808016 47.3564312,31.6808016 C49.7057278,31.6808016 51.6102091,33.5852828 51.6102091,35.9345795 C51.6102091,38.2838761 49.7057278,40.1883573 47.3564312,40.1883573 Z M47.3564312,39.0912573 C49.0998162,39.0912573 50.513109,37.6779645 50.513109,35.9345795 C50.513109,34.1911944 49.0998162,32.7779016 47.3564312,32.7779016 C45.6130461,32.7779016 44.1997533,34.1911944 44.1997533,35.9345795 C44.1997533,37.6779645 45.6130461,39.0912573 47.3564312,39.0912573 Z" id="Shape" fill-rule="nonzero"></path>
            <path d="M6.40799454,19.7606609 C6.86785286,19.4156863 7.49864298,18.8494598 8.13008712,18.2178675 C8.76153125,17.5862752 9.32762496,16.9553371 9.67251869,16.4953709 C9.83679914,16.276279 9.83679914,15.6852229 9.67251869,15.466131 C9.32762496,15.0061648 8.76153125,14.3752266 8.13008712,13.7436344 C7.49864298,13.1120421 6.86785286,12.5458156 6.40799454,12.200841 C6.18895395,12.036522 5.59803654,12.036522 5.37899595,12.200841 C4.91913763,12.5458156 4.2883475,13.1120421 3.65690337,13.7436344 C3.02545923,14.3752266 2.45936553,15.0061648 2.11447179,15.466131 C1.95019135,15.6852229 1.95019135,16.276279 2.11447179,16.4953709 C2.45936553,16.9553371 3.02545923,17.5862752 3.65690337,18.2178675 C4.2883475,18.8494598 4.91913763,19.4156863 5.37899595,19.7606609 C5.59803654,19.9249799 6.18895395,19.9249799 6.40799454,19.7606609 Z M8.51392882,19.3775916 C7.98411623,19.8862015 7.47355503,20.3326781 7.06610016,20.638341 C6.76821656,20.8618061 6.52370095,21.0132084 6.31740747,21.0892291 C6.17536459,21.1415729 6.02860201,21.1600653 5.89349524,21.1433211 C5.75838848,21.1600653 5.61162589,21.1415729 5.46958301,21.0892291 C5.26328954,21.0132084 5.01877392,20.8618061 4.72089032,20.638341 C4.21358423,20.2577721 3.54644515,19.6589171 2.88131845,18.9936344 C2.21619176,18.3283516 1.6174772,17.6610561 1.23699763,17.153631 C1.01358493,16.8556775 0.862218119,16.6111045 0.786215259,16.4047626 C0.733883672,16.2626864 0.715395676,16.1158894 0.732135954,15.9807509 C0.715395676,15.8456125 0.733883672,15.6988155 0.786215259,15.5567393 C0.862218119,15.3503974 1.01358493,15.1058244 1.23699763,14.8078709 C1.54332479,14.3993389 1.99111164,13.887179 2.50112636,13.3558733 L0,10.7615419 L0.78955043,10 L3.27699268,12.5801374 C3.8053993,12.0730926 4.31444326,11.6280677 4.72089032,11.3231609 C5.01877392,11.0996958 5.26328954,10.9482935 5.46958301,10.8722728 C5.61162589,10.819929 5.75838848,10.8014366 5.89349524,10.8181808 C6.02860201,10.8014366 6.17536459,10.819929 6.31740747,10.8722728 C6.52370095,10.9482935 6.76821656,11.0996958 7.06610016,11.3231609 C7.57340626,11.7037298 8.24054534,12.3025848 8.90567203,12.9678675 C9.57079873,13.6331502 10.1695133,14.3004458 10.5499929,14.8078709 C10.7734056,15.1058244 10.9247724,15.3503974 11.0007752,15.5567393 C11.0531068,15.6988155 11.0715948,15.8456125 11.0548545,15.9807509 C11.0715948,16.1158894 11.0531068,16.2626864 11.0007752,16.4047626 C10.9247724,16.6111045 10.7734056,16.8556775 10.5499929,17.153631 C10.2443967,17.5611881 9.79801518,18.0718791 9.28951426,18.6018253 L11.8800001,21.1928634 L11.1044235,21.9686385 L8.51392882,19.3775916 Z" id="Shape" fill-rule="nonzero"></path>
        </g>
    </g>
</svg>