<svg xmlns="http://www.w3.org/2000/svg" width="42" height="44">
  <g fill="none" fill-rule="evenodd" stroke="#AFF4B0" stroke-linecap="round" stroke-linejoin="round" stroke-width="1.097">
    <path d="M39.949 31.487c.1-.3.2-.5.3-.8 0 0 0-.1.1-.1.1-.2.2-.5.3-.7 0-.1 0-.1.1-.2.1-.2.1-.5.2-.7 0-.1 0-.2.1-.2.1-.2.1-.5.2-.7 0-.1 0-.2.1-.3 0-.2.1-.4.1-.7 0-.1 0-.2.1-.3 0-.2.1-.4.1-.7v-.3c0-.2.1-.4.1-.7v-4.1c0-.2 0-.4-.1-.7v-.2c0-.2-.1-.5-.1-.7v-.2c-.2-.8-.4-1.7-.6-2.5v-.1c-.1-.2-.1-.4-.2-.6 0-.1-.1-.2-.1-.3-.1-.2-.1-.3-.2-.5-.1-.1-.1-.3-.2-.4-.1-.2-.1-.3-.2-.5-.1-.1-.1-.3-.2-.4-.1-.1-.2-.3-.2-.4-.1-.1-.1-.3-.2-.4-.1-.1-.2-.3-.2-.4-.1-.1-.2-.3-.2-.4-.1-.1-.2-.3-.3-.4-.1-.1-.2-.3-.3-.4-.1-.1-.2-.3-.3-.4-.1-.1-.2-.3-.3-.4-.1-.1-.2-.2-.3-.4-.1-.1-.2-.3-.3-.4-.1-.1-.2-.2-.3-.4-.1-.1-.2-.3-.3-.4l-.3-.3c-.1-.1-.2-.3-.4-.4l-.3-.3c-.1-.1-.3-.2-.4-.4l-.3-.3c-.1-.1-.3-.2-.4-.4l-.3-.3c-.2-.1-.3-.2-.5-.4-.1-.1-.2-.2-.3-.2-.2-.1-.4-.3-.6-.4-.1-.1-.2-.1-.3-.2-.3-.2-.6-.4-.9-.5-.5-.3-1-.5-1.5-.7-.1 0-.1-.1-.2-.1h-.1l-1.5-.6-.5-2c-4.1-1.8-8.8-.7-8.8-.7l-1 1.8c-5.9 1-11.3 4.6-14.5 10.2-2.3 4.2-3 8.8-2.3 13.2l-.7 1.2s.3 3 1.4 4.7l1.4.4c1.2 2.3 2.8 4.3 4.9 6 .1.1.2.1.2.2.4.3.7.6 1.1.9.1.1.3.2.4.3.5.3 1 .7 1.6 1 .4.2.9.5 1.3.7.1 0 .2.1.3.1.4.2.9.4 1.3.5.1 0 .1 0 .2.1.4.1.8.3 1.2.4.1 0 .2.1.3.1.4.1.9.2 1.3.3h.3c.4.1.8.1 1.2.2h.2c.5.1.9.1 1.4.1h1.7c.5 0 .9-.1 1.4-.1h.3c.5-.1.9-.1 1.4-.2h.1c.4-.1.9-.2 1.3-.3.1 0 .2 0 .3-.1.4-.1.9-.3 1.3-.4.1 0 .1 0 .2-.1.4-.1.8-.3 1.2-.5.1 0 .1 0 .2-.1l1.2-.6c.1 0 .1-.1.2-.1.4-.2.8-.4 1.2-.7h.1c.4-.2.8-.5 1.2-.8l.2-.2c.4-.3.8-.6 1.1-.9l2 .7c3.1-2.6 4.6-6.3 4.6-6.3l-1.8-1.1z"/>
    <path d="M13.249 41.787c0-1.8 1.8-3.3 4.1-3.3s4.2 1.4 4.2 3.2m9.1-8.1c-.7.3-1.4.3-1.7 0-.6-.6-.1-2 1-3.2 1.2-1.2 2.6-1.6 3.2-1 .3.3.3.8.1 1.4m.3-14.2c.3 1.6-.4 3.4-1.9 4.3m-3.5.4c-.9-.3-1.7-.9-2.2-1.8-1.2-1.9-.6-4.5 1.4-5.7 1.5-.9 3.3-.8 4.6.2m-24.2 17.8c.1-.8.7-1.5 1.5-1.7 1.1-.2 2.1.5 2.4 1.7.3 1.2-.4 2.3-1.5 2.5-.5.1-1.1 0-1.5-.3m29.1-10.2c-.6.2-1.2-.4-1.4-1.2-.2-.8.1-1.6.6-1.7"/>
    <ellipse cx="8.706" cy="14.88" rx="2.6" ry="1.6" transform="rotate(-45 8.706 14.88)"/>
    <path d="M15.049 21.487c1.9-1.9 5-1.9 6.9 0 1.9 1.9 1.9 5 0 6.9-1.9 1.9-5 1.9-6.9 0m-1.4-3.5c0-.3 0-.6.1-.9m10.6-18.6c-1.1.8-2.6.7-3.5-.4"/>
  </g>
</svg>
