<svg xmlns="http://www.w3.org/2000/svg" width="114" height="172">
  <g fill="none" fill-rule="evenodd">
    <g fill-rule="nonzero">
      <path fill="#AFF4B0" d="M60.148 69.454c-2.8-4.9-1.1-11.1 3.7-13.9 3.4-2 7.5-1.7 10.6.3 1.6-1.2 2.8-2.5 3.1-4.1.1-.8.6-.5.7-.1.7 2.2 1.2 5.4-.1 8.6 2.1 4.7.3 10.3-4.2 12.9-4.8 2.8-11 1.2-13.8-3.7z"/>
      <path fill="#FFF" d="M70.048 65.354l1.9 3.8c.1.2 0 .5-.3.5-.1 0-.2-.1-.3-.2l-.7-1.5c-.2-.3-.6-.2-.6.1v1.9c0 .2-.1.3-.3.3h-.1c-.2 0-.3-.1-.3-.3v-2.3c0-.4-.5-.4-.6-.1l-.7 1.8c0 .1-.2.2-.3.2-.2 0-.4-.2-.3-.4l1.2-3c0-.1.1-.1.2-.2l1.2-.6zm-.8-6.5h-.4c-.2 0-.3.1-.3.3v.1c0 .2.1.3.3.3h.1c.2 0 .3-.1.3-.3v-.4zm-1.4 2.2h-.4c-.2 0-.3.1-.3.3v.1c0 .2.1.3.3.3h.1c.2 0 .3-.1.3-.3v-.4zm-2.1-1.5h-.4c-.2 0-.3.1-.3.3v.1c0 .2.1.3.3.3h.1c.2 0 .3-.1.3-.3v-.4zm-1 5.8c-.2.1-.2.3-.1.5l.4.7c.1.2.3.2.5.1l.7-.3c.2-.1.2-.3.1-.5l-.5-.8c-.1-.2-.3-.2-.5-.1l-.6.4zm5.6-3.9l-3.9 2.7c-.1.1-.2.3-.1.4l.6 1c.1.1.3.2.4.1l4-1.9c.2-.1.2-.3.1-.5l-1.1-1.8zm3.1.9l-1.1-1.8c-.1-.2-.3-.2-.5-.1l-.6.4c-.1.1-.2.3-.1.4l1 1.8c.1.1.3.2.4.1l.7-.3c.2 0 .3-.3.2-.5z"/>
    </g>
    <path stroke="#AFF4B0" stroke-linecap="round" stroke-linejoin="round" stroke-width="1.097" d="M96.748 47.254l-1.1-1.8 1.1 1.8zm1.694.366a1.2 1.2 0 1 1-2.052 1.245 1.2 1.2 0 0 1 2.052-1.245zm-9.294 2.634l-.4-2.1.4 2.1zm1.362.843a1.2 1.2 0 1 1-2.354.469 1.2 1.2 0 0 1 2.354-.469zm7.138-6.443l-10.9 4.2-1.4-1.9 12-4.7.3 2.4zm-17.406.09l19.29-7.507 1.414 3.635-19.29 7.506-1.414-3.635zm17.406-6.79l-15.3 6-2.6-6.6c-1.6-4.2.4-9 4.7-10.6 4.2-1.6 9 .4 10.6 4.7l2.6 6.5z"/>
    <g stroke="#AFF4B0" stroke-linecap="round" stroke-linejoin="round" stroke-width="1.097" transform="translate(92 85)">
      <path d="M17.148 8.354l-1.3.4c-.2 0-.3-.1-.2-.3l2.7-7.3c.1-.2-.1-.3-.3-.3l-7.3 2.7c-.1.1-.3-.1-.3-.2l.4-1.3c0-.2-.1-.3-.3-.2-1.2.4-5.3 2-8 4.7-3 3-3.4 7.2-.3 10.3 3.1 3.1 7.4 2.7 10.3-.3 2.7-2.7 4.3-6.8 4.7-8 .1-.1 0-.3-.1-.2z"/>
      <circle cx="7" cy="12" r="4.4"/>
    </g>
    <g stroke="#AFF4B0" stroke-linecap="round" stroke-linejoin="round" stroke-width="1.097">
      <circle cx="110.548" cy="125.154" r="2.9"/>
      <circle cx="48.548" cy="82.654" r="1.4"/>
      <path d="M106.948 67.354l-.8-1.6c0-.1-.1-.1-.2-.2l-1.6-.8c-.3-.2-.3-.6 0-.8l1.6-.8c.1 0 .1-.1.2-.2l.8-1.6c.2-.3.6-.3.8 0l.8 1.6c0 .1.1.1.2.2l1.6.8c.3.2.3.6 0 .8l-1.6.8c-.1 0-.1.1-.2.2l-.8 1.6c-.2.4-.7.4-.8 0zm-60.8 50.6l.5-1.7v-.3l-.5-1.7c-.1-.3.2-.6.5-.5l1.7.5h.3l1.7-.5c.3-.1.6.2.5.5l-.5 1.7v.3l.5 1.7c.1.3-.2.6-.5.5l-1.7-.5h-.3l-1.7.5c-.3.1-.6-.2-.5-.5zm35.3 20h-5.4m2.7-2.8v5.5m-59.3 11.4l-3.8-3.9m3.8 0l-3.8 3.9m90.66-148.548a1.9 1.9 0 1 1-3.8 0 1.9 1.9 0 0 1 3.8 0zm.84-2.952l-1.5 1.5 1.5-1.5zm-4.225 4.225l-1.5 1.5 1.5-1.5z"/>
      <circle cx="110.848" cy="150.754" r="1.2"/>
      <circle cx="38.048" cy="140.654" r="1.2"/>
      <path d="M3.048 114.754l1.1.6-1.1.6-.7 1.2-.6-1.2-1.2-.6 1.2-.6.6-1.2zm66.6-8.1l-.6 1.2-.7-1.2-1.2-.6 1.2-.6.7-1.2.6 1.2 1.2.6z"/>
      <circle cx="81.948" cy="119.454" r="1"/>
      <circle cx="103.948" cy="170.754" r="1"/>
      <path d="M97.748 115.154h-2.6m1.3-1.3v2.6m-4.3 50.1l-.2-.8.2-.9-.8.3-.9-.3.3.9-.3.8.9-.2zm-62.8-64.5l-2.3 1.2-1.2 2.3-1.3-2.3-2.2-1.2 2.2-1.3 1.3-2.3 1.2 2.3zm8.7-54.3l2.4.7 2.5-.7-.7 2.4.7 2.5-2.5-.7-2.4.7.7-2.5z"/>
    </g>
  </g>
</svg>
