<svg xmlns="http://www.w3.org/2000/svg" width="114" height="172" viewBox="0 0 114 172">
  <g fill="none" fill-rule="evenodd">
    <g fill-rule="nonzero">
      <path fill="#AFF4B0" d="M60.14848 69.45409c-2.8-4.9-1.1-11.1 3.699998-13.9 3.4-2 7.5-1.7 10.6.3 1.6-1.2 2.8-2.5 3.1-4.1.1-.8.6-.5.7-.1.7 2.2 1.2 5.4-.1 8.6 2.1 4.7.3 10.3-4.2 12.9-4.8 2.8-11 1.2-13.799997-3.7z"/>
      <path fill="#FFF" d="M70.04848 65.3541l1.9 3.8c.1.2 0 .5-.3.5-.1 0-.2-.1-.3-.2l-.7-1.5c-.2-.3-.6-.2-.6.1v1.9c0 .2-.1.3-.3.3h-.1c-.2 0-.3-.1-.3-.3v-2.3c0-.4-.5-.4-.6-.1l-.7 1.8c0 .1-.2.2-.3.2-.2 0-.4-.2-.3-.4l1.2-3c0-.1.1-.1.2-.2l1.2-.6zm-.8-6.5h-.4c-.2 0-.3.1-.3.3v.1c0 .2.1.3.3.3h.1c.2 0 .3-.1.3-.3v-.4zm-1.4 2.2h-.4c-.2 0-.3.1-.3.3v.1c0 .2.1.3.3.3h.1c.2 0 .3-.1.3-.3v-.4zm-2.1-1.5h-.4c-.2 0-.3.1-.3.3v.1c0 .2.1.3.3.3h.1c.2 0 .3-.1.3-.3v-.4zm-1 5.8c-.2.1-.2.3-.1.5l.4.7c.1.2.3.2.5.1l.7-.3c.2-.1.2-.3.1-.5l-.5-.8c-.1-.2-.3-.2-.5-.1l-.6.4zm5.6-3.9l-3.9 2.7c-.1.1-.2.3-.1.4l.6 1c.1.1.3.2.4.1l4-1.9c.2-.1.2-.3.1-.5l-1.1-1.8zm3.1.9l-1.1-1.8c-.1-.2-.3-.2-.5-.1l-.6.4c-.1.1-.2.3-.1.4l1 1.8c.1.1.3.2.4.1l.7-.3c.2 0 .3-.3.2-.5z"/>
    </g>
    <path stroke="#AFF4B0" stroke-width="1.0971" d="M96.748478 47.25409l-1.10001-1.80002 1.10001 1.80002zm1.69349.36553c.165144.27205.215453.59856.13986.907703-.075595.309142-.2709.575594-.54295.740737-.56651.34389-1.304534.163426-1.64843-.40308-.343898-.56651-.163438-1.30454.40307-1.64844.27205-.165148.59856-.21546.907706-.139868.309145.075592.5756.270897.740744.542948zm-9.2935 2.63447l-.39999-2.10001.39999 2.10001zm1.36144.84322c.129433.64995-.29253 1.281766-.94248 1.4112-.64995.129433-1.281767-.29253-1.4112-.94248-.129433-.64995.29253-1.281766.94248-1.4112.64995-.129433 1.281767.29253 1.4112.94248zm7.13857-6.44321l-10.9 4.2-1.4-1.9 12-4.7.3 2.4zm-17.40677.0892l19.29033-7.50582 1.414142 3.63442-19.290332 7.50582-1.41414-3.63442zm17.40677-6.7892l-15.3 6-2.6-6.6c-1.6-4.2.4-9 4.7-10.6 4.2-1.6 9 .4 10.6 4.7l2.6 6.5z" stroke-linecap="round" stroke-linejoin="round"/>
    <g stroke="#AFF4B0" stroke-width="1.0971" transform="translate(92 85)" stroke-linecap="round" stroke-linejoin="round">
      <path d="M17.14848 8.35409l-1.3.4c-.2 0-.3-.1-.2-.3l2.7-7.3c.1-.2-.1-.3-.3-.3l-7.3 2.7c-.1.1-.3-.1-.3-.2l.4-1.3c0-.2-.1-.3-.3-.2-1.2.4-5.300002 2-8.000002 4.7-3 3-3.4 7.2-.3 10.30001 3.1 3.1 7.400002 2.7 10.300002-.3 2.7-2.70001 4.3-6.80001 4.7-8.00001.1-.1 0-.3-.1-.2z"/>
      <circle cx="7" cy="12" r="4.399958"/>
    </g>
    <g stroke="#AFF4B0" stroke-width="1.0971" stroke-linecap="round" stroke-linejoin="round">
      <circle cx="110.54846" cy="125.15408" r="2.9"/>
      <circle cx="48.548466" cy="82.654083" r="1.4"/>
      <path d="M106.94848 67.35409l-.8-1.6c0-.1-.1-.1-.2-.2l-1.6-.8c-.3-.2-.3-.6 0-.8l1.6-.8c.1 0 .1-.1.2-.2l.8-1.6c.2-.3.6-.3.8 0l.8 1.6c0 .1.1.1.2.2l1.6.8c.3.2.3.6 0 .8l-1.6.8c-.1 0-.1.1-.2.2l-.8 1.6c-.2.4-.7.4-.8 0zm-60.8 50.60001l.5-1.7v-.3l-.5-1.7c-.1-.3.2-.6.5-.5l1.7.5h.3l1.7-.5c.3-.1.6.2.5.5l-.5 1.7v.3l.5 1.7c.1.3-.2.6-.5.5l-1.7-.5h-.3l-1.7.5c-.3.1-.6-.2-.5-.5zm35.300014 19.99999H76.04847m2.700012-2.79999v5.5m-59.29999 11.39999l-3.800018-3.89999m3.800018 0l-3.800018 3.89999M106.30746 3.50561c0 1.04933-.85065 1.89998-1.89998 1.89998-.503908.000002-.987177-.200173-1.343495-.556488-.356317-.356316-.556495-.839584-.556495-1.343492 0-.503908.200178-.987176.556495-1.343492.356318-.356315.839587-.55649 1.343495-.556488 1.04933 0 1.89998.85065 1.89998 1.89998zm.84101-2.95151l-1.5 1.5 1.5-1.5zm-4.225 4.22501l-1.5 1.5 1.5-1.5z"/>
      <circle cx="110.84848" cy="150.75409" r="1.2"/>
      <circle cx="38.048466" cy="140.65408" r="1.2"/>
      <path d="M3.04848 114.754l1.1.6-1.1.6-.7 1.2-.6-1.2-1.2-.6 1.2-.6.6-1.2zm66.6-8.1l-.6 1.2-.7-1.2-1.2-.6 1.2-.6.7-1.2.6 1.2 1.2.6z"/>
      <circle cx="81.948486" cy="119.45407" r="1"/>
      <circle cx="103.94849" cy="170.75409" r="1"/>
      <path d="M97.748482 115.1541h-2.600006m1.300018-1.29999v2.59998M92.14848 166.5541l-.2-.8.2-.9-.8.3-.9-.3.3.9-.3.8.9-.2zm-62.8-64.5001l-2.3 1.2-1.2 2.3-1.3-2.3-2.2-1.2 2.2-1.3 1.3-2.3 1.2 2.3zm8.7-54.3l2.4.7 2.5-.7-.7 2.4.7 2.5-2.5-.7-2.4.7.7-2.5z"/>
    </g>
  </g>
</svg>
