<svg xmlns="http://www.w3.org/2000/svg" width="296.45" height="378.377">
  <path fill="#ea8434" d="M239.825 208.125l.5.3c.3.1.3.5 0 .7l-.5.3c-.1 0-.1.1-.1.1l-.3.5c-.1.3-.5.3-.7 0l-.3-.5c0-.1-.1-.1-.1-.1l-.5-.3c-.3-.1-.3-.5 0-.7l.5-.3c.1 0 .1-.1.1-.1l.3-.5c.1-.3.5-.3.7 0l.3.5s0 .1.1.1z"/>
  <path fill="#7b64ac" d="M15.125 257.425l.5.3c.3.1.3.5 0 .7l-.5.3c-.1 0-.1.1-.1.1l-.3.5c-.1.3-.5.3-.7 0l-.3-.5c0-.1-.1-.1-.1-.1l-.5-.3c-.3-.1-.3-.5 0-.7l.5-.3c.1 0 .1-.1.1-.1l.3-.5c.1-.3.5-.3.7 0l.3.5.1.1z"/>
  <path fill="#ea8434" d="M21.025 142.925l2.6 1.4c.3.1.3.5 0 .7l-2.6 1.4c-.1 0-.1.1-.1.1l-1.4 2.6c-.1.3-.5.3-.7 0l-1.4-2.6c0-.1-.1-.1-.1-.1l-2.6-1.4c-.3-.1-.3-.5 0-.7l2.6-1.4c.1 0 .1-.1.1-.1l1.4-2.6c.1-.3.5-.3.7 0l1.4 2.6.1.1z"/>
  <path fill="#d25d64" d="M183.525 307.925l2.8 1.5c.3.1.3.5 0 .7l-2.8 1.5c-.1 0-.1.1-.2.2l-1.5 2.8c-.1.3-.5.3-.7 0l-1.5-2.8c0-.1-.1-.1-.2-.2l-2.8-1.5c-.3-.1-.3-.5 0-.7l2.8-1.5c.1 0 .1-.1.2-.2l1.5-2.8c.1-.3.5-.3.7 0l1.5 2.8c0 .1.1.1.2.2zm-105.8-304.7l2.8 1.5c.3.1.3.5 0 .7l-2.8 1.5c-.1 0-.1.1-.2.2l-1.5 2.8c-.1.3-.5.3-.7 0l-1.5-2.8c0-.1-.1-.1-.2-.2l-2.8-1.5c-.3-.1-.3-.5 0-.7l2.8-1.5c.1 0 .1-.1.2-.2l1.5-2.8c.1-.3.5-.3.7 0l1.5 2.8c.1.1.2.1.2.2zm207 194l2.8 1.5c.3.1.3.5 0 .7l-2.8 1.5c-.1 0-.1.1-.2.2l-1.5 2.8c-.1.3-.5.3-.7 0l-1.5-2.8c0-.1-.1-.1-.2-.2l-2.8-1.5c-.3-.1-.3-.5 0-.7l2.8-1.5c.1 0 .1-.1.2-.2l1.5-2.8c.1-.3.5-.3.7 0l1.5 2.8.2.2z"/>
  <path fill="#fcd15d" d="M7.125 310.025l2.8 1.5c.3.1.3.5 0 .7l-2.8 1.5c-.1 0-.1.1-.2.2l-1.5 2.8c-.1.3-.5.3-.7 0l-1.5-2.8c0-.1-.1-.1-.2-.2l-2.8-1.5c-.3-.1-.3-.5 0-.7l2.8-1.5c.1 0 .1-.1.2-.2l1.5-2.8c.1-.3.5-.3.7 0l1.5 2.8c.1.1.1.2.2.2z"/>
  <path fill="#ea8434" d="M280.725 349.725l2.8 1.5c.3.1.3.5 0 .7l-2.8 1.5c-.1 0-.1.1-.2.2l-1.5 2.8c-.1.3-.5.3-.7 0l-1.5-2.8c0-.1-.1-.1-.2-.2l-2.8-1.5c-.3-.1-.3-.5 0-.7l2.8-1.5c.1 0 .1-.1.2-.2l1.5-2.8c.1-.3.5-.3.7 0l1.5 2.8c0 .2.1.2.2.2z"/>
  <path fill="#d25d64" d="M104.825 293.925l1.3.7c.3.1.3.5 0 .7l-1.3.7c-.1 0-.1.1-.1.1l-.7 1.3c-.1.3-.5.3-.7 0l-.7-1.3c0-.1-.1-.1-.1-.1l-1.3-.7c-.3-.1-.3-.5 0-.7l1.3-.7c.1 0 .1-.1.1-.1l.7-1.3c.1-.3.5-.3.7 0l.7 1.3.1.1z"/>
  <path fill="#fcd15d" d="M27.325 127.425l1.3.7c.3.1.3.5 0 .7l-1.3.7c-.1 0-.1.1-.1.1l-.7 1.3c-.1.3-.5.3-.7 0l-.7-1.3c0-.1-.1-.1-.1-.1l-1.3-.7c-.3-.1-.3-.5 0-.7l1.3-.7c.1 0 .1-.1.1-.1l.7-1.3c.1-.3.5-.3.7 0l.7 1.3s0 .1.1.1zm114.3-119.5l1.3.7c.3.1.3.5 0 .7l-1.3.7c-.1 0-.1.1-.1.1l-.7 1.3c-.1.3-.5.3-.7 0l-.7-1.3c0-.1-.1-.1-.1-.1l-1.3-.7c-.3-.1-.3-.5 0-.7l1.3-.7c.1 0 .1-.1.1-.1l.7-1.3c.1-.3.5-.3.7 0l.7 1.3s0 .1.1.1zm.1 305.1l1.4.7c.3.1.3.5 0 .7l-1.4.7c-.1 0-.1.1-.2.2l-.7 1.4c-.1.3-.5.3-.7 0l-.7-1.4c0-.1-.1-.1-.2-.2l-1.4-.7c-.3-.1-.3-.5 0-.7l1.4-.7c.1 0 .1-.1.2-.2l.7-1.4c.1-.3.5-.3.7 0l.7 1.4c0 .1.1.2.2.2zm103 24.7l1.4.7c.3.1.3.5 0 .7l-1.4.7c-.1 0-.1.1-.2.2l-.7 1.4c-.1.3-.5.3-.7 0l-.7-1.4c0-.1-.1-.1-.2-.2l-1.4-.7c-.3-.1-.3-.5 0-.7l1.4-.7c.1 0 .1-.1.2-.2l.7-1.4c.1-.3.5-.3.7 0l.7 1.4.2.2z"/>
  <path fill="#7b64ac" d="M263.625 208.325l1.4.7c.3.1.3.5 0 .7l-1.4.7c-.1 0-.1.1-.2.2l-.7 1.4c-.1.3-.5.3-.7 0l-.7-1.4c0-.1-.1-.1-.2-.2l-1.4-.7c-.3-.1-.3-.5 0-.7l1.4-.7c.1 0 .1-.1.2-.2l.7-1.4c.1-.3.5-.3.7 0l.7 1.4c.1.1.1.2.2.2zm31.2-177.1l1.4.7c.3.1.3.5 0 .7l-1.4.7c-.1 0-.1.1-.2.2l-.7 1.4c-.1.3-.5.3-.7 0l-.7-1.4c0-.1-.1-.1-.2-.2l-1.4-.7c-.3-.1-.3-.5 0-.7l1.4-.7c.1 0 .1-.1.2-.2l.7-1.4c.1-.3.5-.3.7 0l.7 1.4c0 .1.1.1.2.2z"/>
  <path fill="#d25d64" d="M121.325 106.825l1.4.7c.3.1.3.5 0 .7l-1.4.7c-.1 0-.1.1-.2.2l-.7 1.4c-.1.3-.5.3-.7 0l-.7-1.4c0-.1-.1-.1-.2-.2l-1.4-.7c-.3-.1-.3-.5 0-.7l1.4-.7c.1 0 .1-.1.2-.2l.7-1.4c.1-.3.5-.3.7 0l.7 1.4c0 .1.1.2.2.2z"/>
  <circle cx="226.325" cy="164.425" r="2.9" fill="#d25d64"/>
  <circle cx="290.625" cy="371.425" r="2.9" fill="#d25d64"/>
  <circle cx="240.425" cy="124.425" r="1.4" fill="#ea8434"/>
  <circle cx="197.625" cy="273.925" r="1.4" fill="#fcd15d"/>
  <circle cx="86.725" cy="309.625" r="1.4" fill="#d25d64"/>
  <path fill="none" stroke="#7b64ac" stroke-linecap="round" stroke-linejoin="round" stroke-miterlimit="10" stroke-width="1.097" d="M266.525 179.825c0 1-5.5-4.5-4.5-4.5-1 0 4.5-5.5 4.5-4.5 0-1 5.5 4.5 4.5 4.5 1 0-4.5 5.5-4.5 4.5zm-5.5-10.1l2.7 2.8m5.6 5.6l2.8 2.8"/>
  <path fill="none" stroke="#d25d64" stroke-linecap="round" stroke-linejoin="round" stroke-miterlimit="10" stroke-width="1.097" d="M50.025 290.525c1 0-4.5 5.5-4.5 4.5 0 1-5.5-4.5-4.5-4.5-1 0 4.5-5.5 4.5-4.5 0-1 5.5 4.5 4.5 4.5zm-10 5.5l2.7-2.8m5.6-5.5l2.8-2.8"/>
  <path fill="none" stroke="#7b64ac" stroke-linecap="round" stroke-linejoin="round" stroke-miterlimit="10" stroke-width="1.097" d="M103.125 95.025l-.8-1.6c0-.1-.1-.1-.2-.2l-1.6-.8c-.3-.2-.3-.6 0-.8l1.6-.8c.1 0 .1-.1.2-.2l.8-1.6c.2-.3.6-.3.8 0l.8 1.6c0 .1.1.1.2.2l1.6.8c.3.2.3.6 0 .8l-1.6.8c-.1 0-.1.1-.2.2l-.8 1.6c-.1.3-.6.3-.8 0zm138.3 276.7l-.8-1.6c0-.1-.1-.1-.2-.2l-1.6-.8c-.3-.2-.3-.6 0-.8l1.6-.8c.1 0 .1-.1.2-.2l.8-1.6c.2-.3.6-.3.8 0l.8 1.6c0 .1.1.1.2.2l1.6.8c.3.2.3.6 0 .8l-1.6.8c-.1 0-.1.1-.2.2l-.8 1.6c-.2.4-.6.4-.8 0z"/>
  <path fill="none" stroke="#00aa5a" stroke-linecap="round" stroke-linejoin="round" stroke-miterlimit="10" stroke-width="1.845" d="M175.625 107.325h-5.4m2.7-2.7v5.4"/>
  <path fill="none" stroke="#7b64ac" stroke-linecap="round" stroke-linejoin="round" stroke-miterlimit="10" stroke-width="1.097" d="M156.85 323.789a1.9 1.9 0 0 1 0 2.687 1.9 1.9 0 0 1-2.686 0 1.9 1.9 0 0 1 0-2.687 1.9 1.9 0 0 1 2.687 0zm1.512-1.5l-1.5 1.5m-2.692 2.692l-1.5 1.5"/>
  <path fill="none" stroke="#00aa5a" stroke-linecap="round" stroke-linejoin="round" stroke-miterlimit="10" stroke-width="1.097" d="M16.325 298.525l-.6-1.8.6-1.7-1.8.5-1.7-.5.5 1.7-.5 1.8 1.7-.6z"/>
  <path fill="none" stroke="#ea8434" stroke-linecap="round" stroke-linejoin="round" stroke-miterlimit="10" stroke-width="1.097" d="M194.625 90.225l-.6-1.8.6-1.8-1.8.6-1.7-.6.5 1.8-.5 1.8 1.7-.6z"/>
  <path fill="#00aa5a" d="M130.025 46.525l-1.1 2.1-1.1-2.1-2-1.1 2-1.1 1.1-2 1.1 2 2 1.1z"/>
  <circle cx="101.525" cy="372.025" r="1.2" fill="none" stroke="#ea8434" stroke-width="1.097"/>
  <circle cx="196.925" cy="213.625" r="1.4" fill="#ea8434"/>
  <path fill="none" stroke="#d25d64" stroke-linecap="round" stroke-linejoin="round" stroke-miterlimit="10" stroke-width=".731" d="M54.525 93.425c.3.3-3.4.3-3.1 0-.3.3-.3-3.4 0-3.1-.3-.3 3.4-.3 3.1 0 .3-.3.3 3.4 0 3.1zm-5.4-1.5h1.9m3.8 0h2"/>
  <path fill="#fcd15d" d="M8.525 10.225l.4-1.3-.4-1.2 1.3.4 1.3-.4-.4 1.2.4 1.3-1.3-.4z"/>
  <path fill="none" stroke="#d25d64" stroke-linecap="round" stroke-linejoin="round" stroke-miterlimit="10" stroke-width=".731" d="M283.425 141.325l-.4-.8-.1-.1-.8-.4c-.1-.1-.1-.3 0-.4l.8-.4.1-.1.4-.8c.1-.1.3-.1.4 0l.4.8.1.1.8.4c.1.1.1.3 0 .4l-.8.4-.1.1-.4.8c-.1.2-.3.2-.4 0z"/>
  <path fill="none" stroke="#7b64ac" stroke-linecap="round" stroke-linejoin="round" stroke-miterlimit="10" stroke-width="1.097" d="M245.425 42.825l3.6-.9-.9 3.5z"/>
  <path fill="none" stroke="#ea8434" stroke-linecap="round" stroke-linejoin="round" stroke-miterlimit="10" stroke-width="1.097" d="M216.325 243.725l3.5-.9-.9 3.5z"/>
  <path fill="none" stroke="#00aa5a" stroke-linecap="round" stroke-linejoin="round" stroke-miterlimit="10" stroke-width="1.845" d="M85.825 48.625h-2.6m1.3-1.3v2.6"/>
  <path fill="none" stroke="#ea8434" stroke-linecap="round" stroke-linejoin="round" stroke-miterlimit="10" stroke-width="1.097" d="M277.846 19.572a1.9 1.9 0 0 1 0 2.687 1.9 1.9 0 0 1-2.687 0 1.9 1.9 0 0 1 0-2.687 1.9 1.9 0 0 1 2.687 0zm1.532-1.517l-1.5 1.5m-2.71 2.71l-1.5 1.5"/>
  <path fill="none" stroke="#fcd15d" stroke-linecap="round" stroke-linejoin="round" stroke-miterlimit="10" stroke-width=".731" d="M281.826 249.307a.9.9 0 0 1 0 1.273.9.9 0 0 1-1.273 0 .9.9 0 0 1 0-1.273.9.9 0 0 1 1.273 0zm.73-.671l-.7.7m-1.333 1.332l-.7.7"/>
  <path fill="#dbe8f1" d="M42.025 156.925c5.3-1.8 11.1 1.1 12.9 6.4 1.3 3.7.2 7.7-2.4 10.3.8 1.8 1.9 3.3 3.4 3.8.8.3.4.7 0 .7-2.3.2-5.5.1-8.4-1.8-5 1.1-10.2-1.7-11.8-6.7-1.9-5.2 1-11 6.3-12.7z"/>
  <path fill="#28373b" d="M48.625 163.925c-.3-.4-.8-.6-1.4-.6-.6 0-1.1.3-1.4.6l-.3.3c-.1.2-.4.2-.5 0l-.3-.3c-.3-.4-.7-.6-1.4-.6-.6 0-1.1.2-1.4.6-.3.4-.5.8-.5 1.3 0 .3.1 1 .4 1.7.4.7 1.4 1.8 3.2 3.3.1.1.3.1.4 0 1.8-1.4 2.9-2.5 3.2-3.3.4-.7.4-1.4.4-1.7.1-.5-.1-.9-.4-1.3z"/>
  <path fill="#dbe8f1" d="M251.325 251.925c4.3 3.6 4.8 10 1.2 14.3-2.5 3-6.5 4.2-10.1 3.4-1.2 1.7-1.8 3.4-1.5 4.9.2.8-.4.7-.7.4-1.4-1.8-3-4.6-2.9-8.1-3.6-3.7-3.8-9.6-.5-13.6 3.8-4.4 10.2-5 14.5-1.3z"/>
  <path fill="#28373b" d="M248.425 263.225c0 .4-.8.6-1.2.6h-3.8l-1-.6v-3.6c.8 0 1.3-.5 1.9-1.1.7-.8.7-1.5.5-2.5 0-.3.3-.6.6-.6.5 0 1.2 1.6 1.2 2.4v.6c0 .4.2.6.6.6h1.2c.4 0 .6.2.6.6l-.6 3.6zm0-4.8h-1.2v-.6c0-.8-.7-3-1.8-3-.3 0-.7.2-.9.5-.2.2-.3.5-.3.8.2.9.2 1.4-.4 2-.6.7-.9.9-1.4.9h-1.2c-.6 0-1.2.6-1.2 1.2v2.4c0 .6.6 1.2 1.2 1.2h1l.9.5c.1.1.2.1.3.1h3.8c.7 0 1.7-.3 1.8-1.1l.6-3.6v-.1c0-.7-.5-1.2-1.2-1.2z"/>
  <path fill="#dbe8f1" d="M159.525 85.725c5.6.5 10.5-3.6 11-9.2.3-3.9-1.6-7.5-4.7-9.5.4-2 1.1-3.7 2.4-4.5.7-.4.2-.8-.2-.7-2.3.3-5.4 1.1-7.8 3.7-5.1.1-9.5 4-10 9.3-.4 5.5 3.7 10.4 9.3 10.9z"/>
  <path fill="#28373b" d="M163.925 77.825v-4c0-.5-.2-.9-.6-1.3-.4-.4-.8-.6-1.3-.6h-.6v-1.3l-1.9 1.9 1.9 1.9v-1.3h.6c.2 0 .3.1.4.2.1.1.2.3.2.4v4c-.4.2-.6.6-.6 1.1 0 .7.6 1.3 1.3 1.3.7 0 1.3-.6 1.3-1.3-.1-.3-.3-.8-.7-1zm-.6 1.9c-.4 0-.8-.4-.8-.8s.4-.8.8-.8.8.4.8.8-.4.8-.8.8zm-3.9-7.2c0-.7-.6-1.3-1.3-1.3-.7 0-1.3.6-1.3 1.3 0 .5.3.9.6 1.1v4.2c-.4.2-.6.6-.6 1.1 0 .7.6 1.3 1.3 1.3.7 0 1.3-.6 1.3-1.3 0-.5-.3-.9-.6-1.1v-4.2c.3-.2.6-.6.6-1.1zm-.5 6.4c0 .4-.4.8-.8.8s-.8-.4-.8-.8.4-.8.8-.8c.4.1.8.4.8.8zm-.8-5.6c-.4 0-.8-.4-.8-.8s.4-.8.8-.8.8.4.8.8-.4.8-.8.8z"/>
  <path fill="#4e595e" d="M130.725 229.825c-19.8-25.8-21.5 19.1-59.8 11.6 10.7 13.6 27.4 22.4 46 22.4 32.4 0 58.6-26.2 58.6-58.6 0-19.2-9.2-36.2-23.5-46.9l-2.5 1c10.9 13.2-9.3 82.9-18.8 70.5z"/>
  <path fill="none" stroke="#dbe8f1" stroke-linecap="round" stroke-linejoin="round" stroke-miterlimit="10" stroke-width="1.097" d="M58.425 204.225c.1-3.8.5-7.7 1.3-11.5m20.6 58.1c-1.5-1.2-2.8-2.4-4.2-3.7m60.3 13.1c-4.8 1.7-9.8 2.8-14.9 3.2m50.7-77.3c.8 2.2 1.4 4.4 1.9 6.7m-18.7-31.8c1.8 1.5 3.4 3.2 5 4.9m-53.3-18.5c3.7-.6 7.4-.9 11.2-.8"/>
  <path fill="#28373b" stroke="#dbe8f1" stroke-linecap="round" stroke-linejoin="round" stroke-miterlimit="10" stroke-width="1.097" d="M80.525 251.825c2.2 1.9 4.9 3.8 8.1 5.3l.3.3c.4.5 1.7 1.9 2.1 2.4.1.1.2.2.3.2l4.3 1.6c.1 0 .2.1.3.2l2.8 3.1c.2.2.5.3.7.3l3-.5h.3l2.1.5h.3l2.4-.5h.3l4.6 1c.2 0 .3 0 .5-.1l2.4-1.1c.1 0 .2-.1.3-.1h3.9c.1 0 .3 0 .4-.1l2.4-1.5c.5-.3.3-1.1-.3-1.1l-1.9.1c-.1 0-.3 0-.4-.1l-4.6-2.2c-.2-.1-.4-.1-.5-.1l-2.6.6c-.2 0-.4 0-.5-.1l-7.5-3.7c-.1 0-.2-.1-.2-.1l-6-.9c-.1 0-.3-.1-.4-.1l-4.9-3.6c-.1-.1-.3-.2-.5-.2l-5.7.1h-.2l-5.2-1.1c-.5-.1-1 .9-.4 1.5zm81.2-85.7c4.1 4.7 9.6 12.8 11.2 19.1.1.3 0 .5-.2.7-1.8 1.9-10.5 9.9-11.4 10.7-.1.1-.1.1-.2.1l-5.1 2.5c-.1 0-.1.1-.2.1l-2.7.5c-.2 0-.4.2-.5.3l-3.2 4.6c-.2.3-.7.4-1 .2l-11.9-6.6c-.2-.1-.4-.3-.4-.6l-1.5-9.8c-.1-.3.1-.7.4-.8l7.7-4.3c.2-.1.3-.3.4-.5l3.3-13.2c.1-.3.3-.5.6-.6l14-2.8c.2.1.5.1.7.4zm-95.6 70c2.5 3.8 5.6 7.5 9.3 10.7.4.3 1 .2 1.2-.2.3-.6.8-1.3 1-1.7.2-.3.5-.4.8-.4l3.5.5h.2l8.2-1.2c.3 0 .6-.3.7-.6l1.9-6.8c0-.1.1-.3.2-.4l6.5-5.9c.2-.2.3-.4.3-.6l-.9-13.6c0-.2-.1-.3-.2-.5l-5-5.6c-.2-.3-.6-.3-1-.2l-6.8 3.7c-.2.1-.4.1-.5.1l-7.9-1.6c-.1 0-.2-.1-.3-.1l-7.7-4.8c-.2-.1-.3-.1-.5-.1l-6.3.7c-.2 0-.4 0-.6-.2l-3.9-3.2c-.5-.4-1.3-.1-1.3.6-.1 4.3.3 8.6 1.3 12.8"/>
  <path fill="none" stroke="#dbe8f1" stroke-linecap="round" stroke-linejoin="round" stroke-miterlimit="10" stroke-width="1.097" d="M106.225 146.625c-19.6 3.4-41.2 18.4-47.1 45.2-.1.6.4 1.1 1 1 .6-.1 1.3-.3 1.7-.4.3-.1.6 0 .8.2l4.4 4.9c.2.2.5.3.8.2l11.4-2.4c.2 0 .4-.2.5-.3l7.2-10c.2-.3.2-.7-.1-1l-3.7-4.1c-.2-.2-.2-.4-.2-.7l1.2-6.4c0-.3.2-.5.5-.6l6.9-3.2c.5-.2 1.1.1 1.1.7l.4 5.4c0 .2.1.4.2.5l9.5 9c.2.2.5.3.8.2l8.1-2.1h.2c1 0 8.5.4 8.6.1.1-.3.8-7.8 1-9.1 0-.1.1-.3.1-.4l4.6-6.7c.2-.3.2-.7 0-1l-7.9-9.4c-.1-.1-.2-.2-.3-.2l-9.7-3.8c-.3-.1-.5-.3-.5-.6-.1-.9-.4-3.1-.5-4.3-.1-.4-.6-.7-1-.7z"/>
  <path fill="#28373b" stroke="#dbe8f1" stroke-linecap="round" stroke-linejoin="round" stroke-miterlimit="10" stroke-width="1.097" d="M173.725 193.225l-2.4 5.4c-.1.2-.3.4-.5.4l-5.9 1.8c-.1 0-.3.1-.4.2l-5.3 5.8c-.2.2-.2.4-.2.6l1 8.1c0 .2 0 .5-.2.6l-4.5 5.2c-.2.2-.4.3-.6.3l-8-.2c-.4 0-.8.3-.8.8l-.5 9.4c0 .1 0 .2-.1.3l-3.7 8.3c-.1.2-.1.4 0 .6l2.9 7.2c.1.2.1.5 0 .7l-4 7.2c0 .1-.1.1-.1.2-.4.4-2.3 2.2-3.7 3.6-.6.6 0 1.5.8 1.3 12.8-3.1 44.5-25 37.8-67.5-.2-.9-1.3-1.1-1.6-.3z"/>
  <path fill="none" stroke="#dbe8f1" stroke-linecap="round" stroke-linejoin="round" stroke-miterlimit="10" stroke-width="1.097" d="M119.025 145.725l6.9-.4c.2 0 .4 0 .5.2l1.1.8c.2.1.4.2.7.1l4.3-1c.2-.1.4 0 .6.1l1.8 1.1c.2.1.4.1.6.1l2.7-.5h.4l.9.4c.2.1.3.2.4.4l.9 1.8c.1.2.3.4.6.4l1.8.3c.2 0 .4.1.5.3l1.4 1.7.2.2 3.1 2.1c.1.1.2.2.2.3.2.4.7 1.3.9 1.4.1.1 4.8 4 6.1 5 .1.1.1.3-.1.4-.4.1-1.1.3-1.4.3-.1 0-.2 0-.3-.1l-4.2-2c-.1 0-.1 0-.2-.1l-4.7-1.1h-.3l-4.7.6c-.2 0-.4 0-.6-.1l-7.1-4.9c-.1-.1-.2-.1-.3-.1l-8.3-2.1c-.2 0-.3-.1-.4-.3l-2.2-2.8c-.1-.1-.2-.2-.3-.2l-2-.9c-.5-.2-.3-1.4.5-1.4zm52.9 36.6h33.9c5.4 0 3.1-2-3.7-1.4-.3 0-.7.1-1 .1-.8-.8-2.7-1.8-4.5-1.3-.3-2.2-4-4.9-7.5-2.6-.3-3.5-3.7-6.8-7.4-3.8 1.1-5.6-.4-11.8-8.9-11-5.3.5-7.6 3.2-8.4 6.5m-93.1 65.8c-.5 0-1 .1-1.5.1-.1-1.2-1.4-3.2-4.2-3.2l.6-.9c8.1-13.4-11.2-17.4-14.2-7.6-.6 2.1-.9 4.1-.9 5.9-1-.6-2.3-1-4.1-1-4.9 0-6.5 4.3-6 6.3-.9-.5-1.9-1.1-4-.9-4.2.4-8.4 2.8-2 2.8h41.7c3.4 0-1.7-1.7-5.4-1.5z"/>
  <path fill="#4e595e" d="M278.725 292.725c0-4.5-1.6-8.7-4.2-11.9-2.1-2.2-4.4-.8-5.1 9.5-.8 12.4-7.3 4.1-12.5 10-5.2 5.8-17.3-4.8-14.2 1.4 3.2 6 9.6 10.1 16.9 10.1 10.5 0 19.1-8.6 19.1-19.1z"/>
  <circle cx="259.525" cy="292.725" r="19.1" fill="none" stroke="#dbe8f1" stroke-linecap="round" stroke-linejoin="round" stroke-miterlimit="10" stroke-width="1.097"/>
  <circle cx="259.525" cy="292.725" r="19.1" fill="none" stroke="#dbe8f1" stroke-linecap="round" stroke-linejoin="round" stroke-miterlimit="10" stroke-width="1.097"/>
  <path fill="none" stroke="#dbe8f1" stroke-linecap="round" stroke-linejoin="round" stroke-miterlimit="10" stroke-width="1.097" d="M241.925 285.225c3.7 1.6 8.1 3.1 11.8 3.1 7.6 0 9.3-4.6 18.3-4.8 1.6 0 3.1 0 4.4-.1m-24.3 26.9c1.4-3.5 4.2-8.5 9.7-11.3 6.5-3.3 11.2-.6 16.1-.8"/>
  <path fill="none" stroke="#dbe8f1" stroke-linecap="round" stroke-linejoin="round" stroke-miterlimit="10" stroke-width="1.097" d="M243.525 303.025c2.9-.4 7.8-1.7 11.8-5.7 6.2-6.2 7.9-6.4 11.7-6.4 3.1 0 7.7 3.2 11.6 3.4m-26.8-19.1c4 .6 8.8 1.9 11.9 4.4 2.4 2 6.5 1.8 10.6 1m-26.4-3.1c1.5.3 2.8.7 3.7.9 2.9.9 5.5 1.3 4.7 3.3-.9 2.6-5.3 1.1-8.2.2-.9-.3-2.1-.9-3.3-1.5m-4.2 10.1c3.8.5 9.1 1.8 9.7 4.8.4 2-3.8 3.2-8.7 3.8m13 12c3.3-3.5 11.5-10.6 21.1-8.3"/>
  <path fill="#4e595e" d="M224.625 32.225c0-8.7-3.5-16.6-9.2-22.3-5-4.9-3.4 6.7-14.2 8.9-11.9 2.5 12.8 27.2-2.9 28.8-14 1.4-11.3 13.3-21.7 11.7 4.8 2.9 10.4 4.6 16.4 4.6 17.5-.1 31.6-14.2 31.6-31.7z"/>
  <circle cx="193.025" cy="32.225" r="31.6" fill="none" stroke="#dbe8f1" stroke-linecap="round" stroke-linejoin="round" stroke-miterlimit="10" stroke-width="1.097"/>
  <path fill="none" stroke="#dbe8f1" stroke-linecap="round" stroke-linejoin="round" stroke-miterlimit="10" stroke-width="1.097" d="M212.025 18.125c1-3 1.8-6 2.3-9.1m-22 35.3c5.4-3.8 10.1-8.7 13.7-14.2 1-1.6 2-3.2 2.9-4.9m-28.2 25.4l3.6-1.5m-14.6 4.5c1.7-.3 3.3-.6 4.9-1m-2.3-5c11.6-3.5 21.9-11.4 29-21.4m-37.5-4.9c3-1.8 5.9-4 8.5-6.3m2.9 5.9c5.3-4.4 9.8-9.9 13-16m9.9 58.3c6.9-3.2 13-8 17.9-13.7m1.8-19.7c.2-.4.4-.9.6-1.3m-29.7 29.4c9.1-3.7 16.9-10 22.8-17.8 1.7-2.2 3.2-4.5 4.5-6.9m-36.8 27.5c2-.3 3.9-.8 5.8-1.4m31.3-17.9c3.4-5 5.9-10.4 7.5-16.2m-37.9 37.8c5.6-1.5 10.9-4 15.8-7.2m-5.7-36.3c3.4-5.2 5.9-11 7.3-17.1m-15.5 26.9c1.1-1 2.1-2.1 3.1-3.2m-27.8 16.5c2.2-.5 4.4-1.2 6.5-2m26.6-35.6c.5-1.3 1-2.7 1.4-4.1m-13.8 22.8c3.8-3.6 7.3-7.7 9.5-12.6m-15.3 17.5c.9-.7 1.7-1.4 2.6-2.1m-18.9 10.3c4.4-1.3 8.5-3.2 12.4-5.6m-6.4-4.7c-2 1.2-4 2.2-6.2 3.1"/>
  <g fill="none" stroke="#dbe8f1" stroke-linecap="round" stroke-linejoin="round" stroke-miterlimit="10" stroke-width="1.097">
    <path d="M21.925 69.625c-.9-.6-1.8-1.3-2.6-2.1s-1.5-1.7-2.1-2.6c-.5-.9-1-1.8-1.3-2.8-1.8-5.1-.7-10.9 3.4-14.9 4-4 9.9-5.2 14.9-3.4 1 .3 1.9.8 2.8 1.3.9.6 1.8 1.3 2.6 2.1s1.5 1.7 2.1 2.6m-17 21.1c5.1 1.8 10.9.7 14.9-3.4s5.2-9.9 3.4-14.9"/>
    <path d="M34.325 43.925c6.7-5 12.3-7.4 14.2-5.5 1.9 1.9-.5 7.5-5.5 14.2-2.3 3.1-5.2 6.5-8.5 9.8-3.3 3.3-6.7 6.2-9.8 8.5-6.7 5-12.3 7.4-14.2 5.5-1.9-1.9.5-7.5 5.5-14.2"/>
    <path d="M37.025 45.225c2.7-1.5 4.8-2 5.7-1.1.9.9.4 3-1.1 5.7-1.7 3.1-4.8 7.1-8.7 11-3.9 3.9-7.9 7-11 8.7-2.7 1.5-4.8 2-5.7 1.1-.9-.9-.4-3 1.1-5.7"/>
  </g>
  <g fill="none" stroke="#dbe8f1" stroke-linecap="round" stroke-linejoin="round" stroke-miterlimit="10" stroke-width="1.097">
    <circle cx="54.725" cy="350.925" r="26.8"/>
    <path d="M52.925 331.825c-1-.5-1.8-1.5-1.2-2.6.5-1 1.8-1.4 2.8-1.7 1.7-.4 4-.4 5.6.5 1.2.7 1 1.9-.3 2.5"/>
    <path d="M43.525 331.725c-.8-2.6 1.7-4.7 3.7-5.8 2.5-1.3 5.4-1.8 8.2-1.8 2.9 0 5.8.5 8.4 1.8 1 .5 2.2 1.3 2.4 2.6.2 1.3-.7 2.3-1.6 3-2.3 1.6-5.4 1.8-8.1 1.4m-9 2.5c-.7-.3-1.3-.7-1.9-1.2m19.2 2.5c2.6-.6 5.9-1.9 7.7-5.1m-11.5 5.5h1.4m3.2 4.5c.8-.2 1.6-.5 2.5-.7m-25.1-2.1c3.6 2.5 10 5.3 19.8 3.4m-23.2-6.5s.4.5 1.2 1.3m-7.9 14c-.3-.1-.7-.1-1-.2m15.2 10.7c-1.3-5.4-6.3-8.5-11.3-9.9m9.9 14.9c.4-.4.7-.9 1-1.4m-4.1-4.2c-1-2.6-4.9-4.3-7-1.8-1.8 2.2.1 5.5 1.9 7 1.5 1.4 3.7 2.1 5.7 1.7m-5.4-5.9c.3 1.7 2.6 3.2 4.2 2m4.2-13c3.2 2.9 6.2 6.9 6.8 11.4.3 2.6-.4 5.2-2.2 7.2-.7.8-1.5 1.5-2.4 2m-5.3-23c.4.3.8.5 1.2.8m-15.4-5.6c2.5.2 6 .8 9.7 2.4m16.1 4.8s6.6 9.5 2.9 17.1m19-13.4c1.1-.5 1.9.6 1.8 2.4"/>
    <path d="M70.525 358.425c.7-2.6 1.9-5.2 3.8-7.2 1.2-1.3 3.2-2.9 4.9-1.6 1.8 1.3 1.9 4.4 1.6 6.4-.3 2.6-1.4 5.6-3.5 7.3-.8.6-1.8 1.1-2.6.4-1-.8-1-2.4-1-3.6m-3.9 2.5c0-.4.1-.8.1-1.1m2.08 9.86c-1.1-1-1.9-2.9-2.2-5.3m-.78-15.76c1.9-2.9 4.4-5.8 7.8-6.7m-10 28.4s-2.4-6.3-1-13.6m-8.981 19.202s3.7-1.9 4.3-7.7"/>
  </g>
</svg>
